G75*
%MOIN*%
%OFA0B0*%
%FSLAX24Y24*%
%IPPOS*%
%LPD*%
%AMOC8*
5,1,8,0,0,1.08239X$1,22.5*
%
%ADD10C,0.0000*%
%ADD11C,0.0080*%
%ADD12C,0.0040*%
%ADD13C,0.0030*%
%ADD14R,0.0197X0.0630*%
%ADD15R,0.0276X0.0945*%
%ADD16C,0.0060*%
%ADD17R,0.1000X0.0500*%
%ADD18R,0.0118X0.0787*%
%ADD19R,0.0394X0.0945*%
%ADD20R,0.0630X0.0197*%
%ADD21R,0.0276X0.0787*%
D10*
X002390Y008440D02*
X038610Y008440D01*
X038610Y008444D02*
X038687Y008446D01*
X038764Y008452D01*
X038841Y008461D01*
X038917Y008474D01*
X038993Y008491D01*
X039067Y008512D01*
X039141Y008536D01*
X039213Y008564D01*
X039283Y008595D01*
X039352Y008630D01*
X039420Y008668D01*
X039485Y008709D01*
X039548Y008754D01*
X039609Y008802D01*
X039668Y008852D01*
X039724Y008905D01*
X039777Y008961D01*
X039827Y009020D01*
X039875Y009081D01*
X039920Y009144D01*
X039961Y009209D01*
X039999Y009277D01*
X040034Y009346D01*
X040065Y009416D01*
X040093Y009488D01*
X040117Y009562D01*
X040138Y009636D01*
X040155Y009712D01*
X040168Y009788D01*
X040177Y009865D01*
X040183Y009942D01*
X040185Y010019D01*
X040185Y038365D01*
X040183Y038442D01*
X040177Y038519D01*
X040168Y038596D01*
X040155Y038672D01*
X040138Y038748D01*
X040117Y038822D01*
X040093Y038896D01*
X040065Y038968D01*
X040034Y039038D01*
X039999Y039107D01*
X039961Y039175D01*
X039920Y039240D01*
X039875Y039303D01*
X039827Y039364D01*
X039777Y039423D01*
X039724Y039479D01*
X039668Y039532D01*
X039609Y039582D01*
X039548Y039630D01*
X039485Y039675D01*
X039420Y039716D01*
X039352Y039754D01*
X039283Y039789D01*
X039213Y039820D01*
X039141Y039848D01*
X039067Y039872D01*
X038993Y039893D01*
X038917Y039910D01*
X038841Y039923D01*
X038764Y039932D01*
X038687Y039938D01*
X038610Y039940D01*
X002390Y039940D01*
X002313Y039938D01*
X002236Y039932D01*
X002159Y039923D01*
X002083Y039910D01*
X002007Y039893D01*
X001933Y039872D01*
X001859Y039848D01*
X001787Y039820D01*
X001717Y039789D01*
X001648Y039754D01*
X001580Y039716D01*
X001515Y039675D01*
X001452Y039630D01*
X001391Y039582D01*
X001332Y039532D01*
X001276Y039479D01*
X001223Y039423D01*
X001173Y039364D01*
X001125Y039303D01*
X001080Y039240D01*
X001039Y039175D01*
X001001Y039107D01*
X000966Y039038D01*
X000935Y038968D01*
X000907Y038896D01*
X000883Y038822D01*
X000862Y038748D01*
X000845Y038672D01*
X000832Y038596D01*
X000823Y038519D01*
X000817Y038442D01*
X000815Y038365D01*
X000815Y010019D01*
X000817Y009942D01*
X000823Y009865D01*
X000832Y009788D01*
X000845Y009712D01*
X000862Y009636D01*
X000883Y009562D01*
X000907Y009488D01*
X000935Y009416D01*
X000966Y009346D01*
X001001Y009277D01*
X001039Y009209D01*
X001080Y009144D01*
X001125Y009081D01*
X001173Y009020D01*
X001223Y008961D01*
X001276Y008905D01*
X001332Y008852D01*
X001391Y008802D01*
X001452Y008754D01*
X001515Y008709D01*
X001580Y008668D01*
X001648Y008630D01*
X001717Y008595D01*
X001787Y008564D01*
X001859Y008536D01*
X001933Y008512D01*
X002007Y008491D01*
X002083Y008474D01*
X002159Y008461D01*
X002236Y008452D01*
X002313Y008446D01*
X002390Y008444D01*
X001937Y010192D02*
X001939Y010242D01*
X001945Y010292D01*
X001955Y010341D01*
X001969Y010389D01*
X001986Y010436D01*
X002007Y010481D01*
X002032Y010525D01*
X002060Y010566D01*
X002092Y010605D01*
X002126Y010642D01*
X002163Y010676D01*
X002203Y010706D01*
X002245Y010733D01*
X002289Y010757D01*
X002335Y010778D01*
X002382Y010794D01*
X002430Y010807D01*
X002480Y010816D01*
X002529Y010821D01*
X002580Y010822D01*
X002630Y010819D01*
X002679Y010812D01*
X002728Y010801D01*
X002776Y010786D01*
X002822Y010768D01*
X002867Y010746D01*
X002910Y010720D01*
X002951Y010691D01*
X002990Y010659D01*
X003026Y010624D01*
X003058Y010586D01*
X003088Y010546D01*
X003115Y010503D01*
X003138Y010459D01*
X003157Y010413D01*
X003173Y010365D01*
X003185Y010316D01*
X003193Y010267D01*
X003197Y010217D01*
X003197Y010167D01*
X003193Y010117D01*
X003185Y010068D01*
X003173Y010019D01*
X003157Y009971D01*
X003138Y009925D01*
X003115Y009881D01*
X003088Y009838D01*
X003058Y009798D01*
X003026Y009760D01*
X002990Y009725D01*
X002951Y009693D01*
X002910Y009664D01*
X002867Y009638D01*
X002822Y009616D01*
X002776Y009598D01*
X002728Y009583D01*
X002679Y009572D01*
X002630Y009565D01*
X002580Y009562D01*
X002529Y009563D01*
X002480Y009568D01*
X002430Y009577D01*
X002382Y009590D01*
X002335Y009606D01*
X002289Y009627D01*
X002245Y009651D01*
X002203Y009678D01*
X002163Y009708D01*
X002126Y009742D01*
X002092Y009779D01*
X002060Y009818D01*
X002032Y009859D01*
X002007Y009903D01*
X001986Y009948D01*
X001969Y009995D01*
X001955Y010043D01*
X001945Y010092D01*
X001939Y010142D01*
X001937Y010192D01*
X001937Y038188D02*
X001939Y038238D01*
X001945Y038288D01*
X001955Y038337D01*
X001969Y038385D01*
X001986Y038432D01*
X002007Y038477D01*
X002032Y038521D01*
X002060Y038562D01*
X002092Y038601D01*
X002126Y038638D01*
X002163Y038672D01*
X002203Y038702D01*
X002245Y038729D01*
X002289Y038753D01*
X002335Y038774D01*
X002382Y038790D01*
X002430Y038803D01*
X002480Y038812D01*
X002529Y038817D01*
X002580Y038818D01*
X002630Y038815D01*
X002679Y038808D01*
X002728Y038797D01*
X002776Y038782D01*
X002822Y038764D01*
X002867Y038742D01*
X002910Y038716D01*
X002951Y038687D01*
X002990Y038655D01*
X003026Y038620D01*
X003058Y038582D01*
X003088Y038542D01*
X003115Y038499D01*
X003138Y038455D01*
X003157Y038409D01*
X003173Y038361D01*
X003185Y038312D01*
X003193Y038263D01*
X003197Y038213D01*
X003197Y038163D01*
X003193Y038113D01*
X003185Y038064D01*
X003173Y038015D01*
X003157Y037967D01*
X003138Y037921D01*
X003115Y037877D01*
X003088Y037834D01*
X003058Y037794D01*
X003026Y037756D01*
X002990Y037721D01*
X002951Y037689D01*
X002910Y037660D01*
X002867Y037634D01*
X002822Y037612D01*
X002776Y037594D01*
X002728Y037579D01*
X002679Y037568D01*
X002630Y037561D01*
X002580Y037558D01*
X002529Y037559D01*
X002480Y037564D01*
X002430Y037573D01*
X002382Y037586D01*
X002335Y037602D01*
X002289Y037623D01*
X002245Y037647D01*
X002203Y037674D01*
X002163Y037704D01*
X002126Y037738D01*
X002092Y037775D01*
X002060Y037814D01*
X002032Y037855D01*
X002007Y037899D01*
X001986Y037944D01*
X001969Y037991D01*
X001955Y038039D01*
X001945Y038088D01*
X001939Y038138D01*
X001937Y038188D01*
X033059Y029414D02*
X033061Y029464D01*
X033067Y029514D01*
X033077Y029563D01*
X033091Y029611D01*
X033108Y029658D01*
X033129Y029703D01*
X033154Y029747D01*
X033182Y029788D01*
X033214Y029827D01*
X033248Y029864D01*
X033285Y029898D01*
X033325Y029928D01*
X033367Y029955D01*
X033411Y029979D01*
X033457Y030000D01*
X033504Y030016D01*
X033552Y030029D01*
X033602Y030038D01*
X033651Y030043D01*
X033702Y030044D01*
X033752Y030041D01*
X033801Y030034D01*
X033850Y030023D01*
X033898Y030008D01*
X033944Y029990D01*
X033989Y029968D01*
X034032Y029942D01*
X034073Y029913D01*
X034112Y029881D01*
X034148Y029846D01*
X034180Y029808D01*
X034210Y029768D01*
X034237Y029725D01*
X034260Y029681D01*
X034279Y029635D01*
X034295Y029587D01*
X034307Y029538D01*
X034315Y029489D01*
X034319Y029439D01*
X034319Y029389D01*
X034315Y029339D01*
X034307Y029290D01*
X034295Y029241D01*
X034279Y029193D01*
X034260Y029147D01*
X034237Y029103D01*
X034210Y029060D01*
X034180Y029020D01*
X034148Y028982D01*
X034112Y028947D01*
X034073Y028915D01*
X034032Y028886D01*
X033989Y028860D01*
X033944Y028838D01*
X033898Y028820D01*
X033850Y028805D01*
X033801Y028794D01*
X033752Y028787D01*
X033702Y028784D01*
X033651Y028785D01*
X033602Y028790D01*
X033552Y028799D01*
X033504Y028812D01*
X033457Y028828D01*
X033411Y028849D01*
X033367Y028873D01*
X033325Y028900D01*
X033285Y028930D01*
X033248Y028964D01*
X033214Y029001D01*
X033182Y029040D01*
X033154Y029081D01*
X033129Y029125D01*
X033108Y029170D01*
X033091Y029217D01*
X033077Y029265D01*
X033067Y029314D01*
X033061Y029364D01*
X033059Y029414D01*
X037803Y038188D02*
X037805Y038238D01*
X037811Y038288D01*
X037821Y038337D01*
X037835Y038385D01*
X037852Y038432D01*
X037873Y038477D01*
X037898Y038521D01*
X037926Y038562D01*
X037958Y038601D01*
X037992Y038638D01*
X038029Y038672D01*
X038069Y038702D01*
X038111Y038729D01*
X038155Y038753D01*
X038201Y038774D01*
X038248Y038790D01*
X038296Y038803D01*
X038346Y038812D01*
X038395Y038817D01*
X038446Y038818D01*
X038496Y038815D01*
X038545Y038808D01*
X038594Y038797D01*
X038642Y038782D01*
X038688Y038764D01*
X038733Y038742D01*
X038776Y038716D01*
X038817Y038687D01*
X038856Y038655D01*
X038892Y038620D01*
X038924Y038582D01*
X038954Y038542D01*
X038981Y038499D01*
X039004Y038455D01*
X039023Y038409D01*
X039039Y038361D01*
X039051Y038312D01*
X039059Y038263D01*
X039063Y038213D01*
X039063Y038163D01*
X039059Y038113D01*
X039051Y038064D01*
X039039Y038015D01*
X039023Y037967D01*
X039004Y037921D01*
X038981Y037877D01*
X038954Y037834D01*
X038924Y037794D01*
X038892Y037756D01*
X038856Y037721D01*
X038817Y037689D01*
X038776Y037660D01*
X038733Y037634D01*
X038688Y037612D01*
X038642Y037594D01*
X038594Y037579D01*
X038545Y037568D01*
X038496Y037561D01*
X038446Y037558D01*
X038395Y037559D01*
X038346Y037564D01*
X038296Y037573D01*
X038248Y037586D01*
X038201Y037602D01*
X038155Y037623D01*
X038111Y037647D01*
X038069Y037674D01*
X038029Y037704D01*
X037992Y037738D01*
X037958Y037775D01*
X037926Y037814D01*
X037898Y037855D01*
X037873Y037899D01*
X037852Y037944D01*
X037835Y037991D01*
X037821Y038039D01*
X037811Y038088D01*
X037805Y038138D01*
X037803Y038188D01*
X037803Y010192D02*
X037805Y010242D01*
X037811Y010292D01*
X037821Y010341D01*
X037835Y010389D01*
X037852Y010436D01*
X037873Y010481D01*
X037898Y010525D01*
X037926Y010566D01*
X037958Y010605D01*
X037992Y010642D01*
X038029Y010676D01*
X038069Y010706D01*
X038111Y010733D01*
X038155Y010757D01*
X038201Y010778D01*
X038248Y010794D01*
X038296Y010807D01*
X038346Y010816D01*
X038395Y010821D01*
X038446Y010822D01*
X038496Y010819D01*
X038545Y010812D01*
X038594Y010801D01*
X038642Y010786D01*
X038688Y010768D01*
X038733Y010746D01*
X038776Y010720D01*
X038817Y010691D01*
X038856Y010659D01*
X038892Y010624D01*
X038924Y010586D01*
X038954Y010546D01*
X038981Y010503D01*
X039004Y010459D01*
X039023Y010413D01*
X039039Y010365D01*
X039051Y010316D01*
X039059Y010267D01*
X039063Y010217D01*
X039063Y010167D01*
X039059Y010117D01*
X039051Y010068D01*
X039039Y010019D01*
X039023Y009971D01*
X039004Y009925D01*
X038981Y009881D01*
X038954Y009838D01*
X038924Y009798D01*
X038892Y009760D01*
X038856Y009725D01*
X038817Y009693D01*
X038776Y009664D01*
X038733Y009638D01*
X038688Y009616D01*
X038642Y009598D01*
X038594Y009583D01*
X038545Y009572D01*
X038496Y009565D01*
X038446Y009562D01*
X038395Y009563D01*
X038346Y009568D01*
X038296Y009577D01*
X038248Y009590D01*
X038201Y009606D01*
X038155Y009627D01*
X038111Y009651D01*
X038069Y009678D01*
X038029Y009708D01*
X037992Y009742D01*
X037958Y009779D01*
X037926Y009818D01*
X037898Y009859D01*
X037873Y009903D01*
X037852Y009948D01*
X037835Y009995D01*
X037821Y010043D01*
X037811Y010092D01*
X037805Y010142D01*
X037803Y010192D01*
D11*
X037567Y012623D02*
X038394Y012623D01*
X038417Y012624D01*
X038440Y012628D01*
X038462Y012635D01*
X038483Y012646D01*
X038501Y012660D01*
X038518Y012676D01*
X038531Y012695D01*
X038541Y012716D01*
X038548Y012738D01*
X038552Y012761D01*
X038551Y012761D02*
X038551Y013155D01*
X038552Y013155D02*
X038548Y013178D01*
X038541Y013200D01*
X038531Y013221D01*
X038518Y013240D01*
X038501Y013256D01*
X038483Y013270D01*
X038462Y013281D01*
X038440Y013288D01*
X038417Y013292D01*
X038394Y013293D01*
X038394Y013292D02*
X037567Y013292D01*
X037567Y013293D02*
X037544Y013292D01*
X037521Y013288D01*
X037499Y013281D01*
X037478Y013270D01*
X037460Y013256D01*
X037443Y013240D01*
X037430Y013221D01*
X037420Y013200D01*
X037413Y013178D01*
X037409Y013155D01*
X037409Y012761D01*
X037413Y012738D01*
X037420Y012716D01*
X037430Y012695D01*
X037443Y012676D01*
X037460Y012660D01*
X037478Y012646D01*
X037499Y012635D01*
X037521Y012628D01*
X037544Y012624D01*
X037567Y012623D01*
X035283Y012761D02*
X035283Y013155D01*
X035284Y013155D02*
X035280Y013178D01*
X035273Y013200D01*
X035263Y013221D01*
X035250Y013240D01*
X035233Y013256D01*
X035215Y013270D01*
X035194Y013281D01*
X035172Y013288D01*
X035149Y013292D01*
X035126Y013293D01*
X035126Y013292D02*
X034299Y013292D01*
X034299Y013293D02*
X034276Y013292D01*
X034253Y013288D01*
X034231Y013281D01*
X034210Y013270D01*
X034192Y013256D01*
X034175Y013240D01*
X034162Y013221D01*
X034152Y013200D01*
X034145Y013178D01*
X034141Y013155D01*
X034142Y013155D02*
X034142Y012761D01*
X034141Y012761D02*
X034145Y012738D01*
X034152Y012716D01*
X034162Y012695D01*
X034175Y012676D01*
X034192Y012660D01*
X034210Y012646D01*
X034231Y012635D01*
X034253Y012628D01*
X034276Y012624D01*
X034299Y012623D01*
X035126Y012623D01*
X035149Y012624D01*
X035172Y012628D01*
X035194Y012635D01*
X035215Y012646D01*
X035233Y012660D01*
X035250Y012676D01*
X035263Y012695D01*
X035273Y012716D01*
X035280Y012738D01*
X035284Y012761D01*
X035126Y012052D02*
X034299Y012052D01*
X034299Y012053D02*
X034276Y012052D01*
X034253Y012048D01*
X034231Y012041D01*
X034210Y012030D01*
X034192Y012016D01*
X034175Y012000D01*
X034162Y011981D01*
X034152Y011960D01*
X034145Y011938D01*
X034141Y011915D01*
X034142Y011914D02*
X034142Y011521D01*
X034141Y011521D02*
X034145Y011498D01*
X034152Y011476D01*
X034162Y011455D01*
X034175Y011436D01*
X034192Y011420D01*
X034210Y011406D01*
X034231Y011395D01*
X034253Y011388D01*
X034276Y011384D01*
X034299Y011383D01*
X035126Y011383D01*
X035149Y011384D01*
X035172Y011388D01*
X035194Y011395D01*
X035215Y011406D01*
X035233Y011420D01*
X035250Y011436D01*
X035263Y011455D01*
X035273Y011476D01*
X035280Y011498D01*
X035284Y011521D01*
X035283Y011521D02*
X035283Y011914D01*
X035284Y011915D02*
X035280Y011938D01*
X035273Y011960D01*
X035263Y011981D01*
X035250Y012000D01*
X035233Y012016D01*
X035215Y012030D01*
X035194Y012041D01*
X035172Y012048D01*
X035149Y012052D01*
X035126Y012053D01*
X035126Y010812D02*
X034299Y010812D01*
X034276Y010811D01*
X034253Y010807D01*
X034231Y010800D01*
X034210Y010789D01*
X034192Y010775D01*
X034175Y010759D01*
X034162Y010740D01*
X034152Y010719D01*
X034145Y010697D01*
X034141Y010674D01*
X034142Y010674D02*
X034142Y010281D01*
X034141Y010280D02*
X034145Y010257D01*
X034152Y010235D01*
X034162Y010214D01*
X034175Y010195D01*
X034192Y010179D01*
X034210Y010165D01*
X034231Y010154D01*
X034253Y010147D01*
X034276Y010143D01*
X034299Y010142D01*
X034299Y010143D02*
X035126Y010143D01*
X035126Y010142D02*
X035149Y010143D01*
X035172Y010147D01*
X035194Y010154D01*
X035215Y010165D01*
X035233Y010179D01*
X035250Y010195D01*
X035263Y010214D01*
X035273Y010235D01*
X035280Y010257D01*
X035284Y010280D01*
X035283Y010281D02*
X035283Y010674D01*
X035284Y010674D02*
X035280Y010697D01*
X035273Y010719D01*
X035263Y010740D01*
X035250Y010759D01*
X035233Y010775D01*
X035215Y010789D01*
X035194Y010800D01*
X035172Y010807D01*
X035149Y010811D01*
X035126Y010812D01*
X032764Y011678D02*
X032764Y009237D01*
X032763Y009237D02*
X032761Y009215D01*
X032757Y009193D01*
X032749Y009172D01*
X032738Y009152D01*
X032725Y009134D01*
X032709Y009118D01*
X032691Y009105D01*
X032671Y009094D01*
X032650Y009086D01*
X032628Y009082D01*
X032606Y009080D01*
X028039Y009080D01*
X028017Y009082D01*
X027995Y009086D01*
X027974Y009094D01*
X027954Y009105D01*
X027936Y009118D01*
X027920Y009134D01*
X027907Y009152D01*
X027896Y009172D01*
X027888Y009193D01*
X027884Y009215D01*
X027882Y009237D01*
X027882Y011678D01*
X027884Y011700D01*
X027888Y011722D01*
X027896Y011743D01*
X027907Y011763D01*
X027920Y011781D01*
X027936Y011797D01*
X027954Y011810D01*
X027974Y011821D01*
X027995Y011829D01*
X028017Y011833D01*
X028039Y011835D01*
X028039Y011836D02*
X032606Y011836D01*
X032606Y011835D02*
X032628Y011833D01*
X032650Y011829D01*
X032671Y011821D01*
X032691Y011810D01*
X032709Y011797D01*
X032725Y011781D01*
X032738Y011763D01*
X032749Y011743D01*
X032757Y011722D01*
X032761Y011700D01*
X032763Y011678D01*
X031142Y012531D02*
X031142Y013148D01*
X031141Y013148D02*
X031139Y013170D01*
X031135Y013192D01*
X031127Y013213D01*
X031116Y013233D01*
X031103Y013251D01*
X031087Y013267D01*
X031069Y013280D01*
X031049Y013291D01*
X031028Y013299D01*
X031006Y013303D01*
X030984Y013305D01*
X029386Y013305D01*
X029364Y013303D01*
X029342Y013299D01*
X029321Y013291D01*
X029301Y013280D01*
X029283Y013267D01*
X029267Y013251D01*
X029254Y013233D01*
X029243Y013213D01*
X029235Y013192D01*
X029231Y013170D01*
X029229Y013148D01*
X029228Y013148D02*
X029228Y012531D01*
X029229Y012531D02*
X029231Y012509D01*
X029235Y012487D01*
X029243Y012466D01*
X029254Y012446D01*
X029267Y012428D01*
X029283Y012412D01*
X029301Y012399D01*
X029321Y012388D01*
X029342Y012380D01*
X029364Y012376D01*
X029386Y012374D01*
X030984Y012374D01*
X031006Y012376D01*
X031028Y012380D01*
X031049Y012388D01*
X031069Y012399D01*
X031087Y012412D01*
X031103Y012428D01*
X031116Y012446D01*
X031127Y012466D01*
X031135Y012487D01*
X031139Y012509D01*
X031141Y012531D01*
X030717Y014099D02*
X029654Y014099D01*
X029654Y014100D02*
X029637Y014101D01*
X029620Y014106D01*
X029605Y014113D01*
X029591Y014123D01*
X029579Y014135D01*
X029569Y014149D01*
X029562Y014164D01*
X029557Y014181D01*
X029556Y014198D01*
X029555Y014198D02*
X029555Y014631D01*
X029556Y014631D02*
X029557Y014648D01*
X029562Y014665D01*
X029569Y014680D01*
X029579Y014694D01*
X029591Y014706D01*
X029605Y014716D01*
X029620Y014723D01*
X029637Y014728D01*
X029654Y014729D01*
X030717Y014729D01*
X030734Y014728D01*
X030751Y014723D01*
X030766Y014716D01*
X030780Y014706D01*
X030792Y014694D01*
X030802Y014680D01*
X030809Y014665D01*
X030814Y014648D01*
X030815Y014631D01*
X030815Y014198D01*
X030814Y014181D01*
X030809Y014164D01*
X030802Y014149D01*
X030792Y014135D01*
X030780Y014123D01*
X030766Y014113D01*
X030751Y014106D01*
X030734Y014101D01*
X030717Y014100D01*
X030598Y015576D02*
X029772Y015576D01*
X029772Y015575D02*
X029749Y015576D01*
X029726Y015580D01*
X029704Y015587D01*
X029683Y015598D01*
X029665Y015612D01*
X029648Y015628D01*
X029635Y015647D01*
X029625Y015668D01*
X029618Y015690D01*
X029614Y015713D01*
X029614Y015714D02*
X029614Y016107D01*
X029618Y016130D01*
X029625Y016152D01*
X029635Y016173D01*
X029648Y016192D01*
X029665Y016208D01*
X029683Y016222D01*
X029704Y016233D01*
X029726Y016240D01*
X029749Y016244D01*
X029772Y016245D01*
X030598Y016245D01*
X030621Y016244D01*
X030644Y016240D01*
X030666Y016233D01*
X030687Y016222D01*
X030705Y016208D01*
X030722Y016192D01*
X030735Y016173D01*
X030745Y016152D01*
X030752Y016130D01*
X030756Y016107D01*
X030756Y015714D01*
X030756Y015713D02*
X030752Y015690D01*
X030745Y015668D01*
X030735Y015647D01*
X030722Y015628D01*
X030705Y015612D01*
X030687Y015598D01*
X030666Y015587D01*
X030644Y015580D01*
X030621Y015576D01*
X030598Y015575D01*
X030598Y017072D02*
X029772Y017072D01*
X029772Y017071D02*
X029749Y017072D01*
X029726Y017076D01*
X029704Y017083D01*
X029683Y017094D01*
X029665Y017108D01*
X029648Y017124D01*
X029635Y017143D01*
X029625Y017164D01*
X029618Y017186D01*
X029614Y017209D01*
X029614Y017210D02*
X029614Y017603D01*
X029618Y017626D01*
X029625Y017648D01*
X029635Y017669D01*
X029648Y017688D01*
X029665Y017704D01*
X029683Y017718D01*
X029704Y017729D01*
X029726Y017736D01*
X029749Y017740D01*
X029772Y017741D01*
X030598Y017741D01*
X030621Y017740D01*
X030644Y017736D01*
X030666Y017729D01*
X030687Y017718D01*
X030705Y017704D01*
X030722Y017688D01*
X030735Y017669D01*
X030745Y017648D01*
X030752Y017626D01*
X030756Y017603D01*
X030756Y017210D01*
X030756Y017209D02*
X030752Y017186D01*
X030745Y017164D01*
X030735Y017143D01*
X030722Y017124D01*
X030705Y017108D01*
X030687Y017094D01*
X030666Y017083D01*
X030644Y017076D01*
X030621Y017072D01*
X030598Y017071D01*
X030598Y018568D02*
X029772Y018568D01*
X029749Y018569D01*
X029726Y018573D01*
X029704Y018580D01*
X029683Y018591D01*
X029665Y018605D01*
X029648Y018621D01*
X029635Y018640D01*
X029625Y018661D01*
X029618Y018683D01*
X029614Y018706D01*
X029614Y019099D01*
X029614Y019100D02*
X029618Y019123D01*
X029625Y019145D01*
X029635Y019166D01*
X029648Y019185D01*
X029665Y019201D01*
X029683Y019215D01*
X029704Y019226D01*
X029726Y019233D01*
X029749Y019237D01*
X029772Y019238D01*
X029772Y019237D02*
X030598Y019237D01*
X030598Y019238D02*
X030621Y019237D01*
X030644Y019233D01*
X030666Y019226D01*
X030687Y019215D01*
X030705Y019201D01*
X030722Y019185D01*
X030735Y019166D01*
X030745Y019145D01*
X030752Y019123D01*
X030756Y019100D01*
X030756Y019099D02*
X030756Y018706D01*
X030752Y018683D01*
X030745Y018661D01*
X030735Y018640D01*
X030722Y018621D01*
X030705Y018605D01*
X030687Y018591D01*
X030666Y018580D01*
X030644Y018573D01*
X030621Y018569D01*
X030598Y018568D01*
X033098Y018706D02*
X033098Y019099D01*
X033098Y019100D02*
X033102Y019123D01*
X033109Y019145D01*
X033119Y019166D01*
X033132Y019185D01*
X033149Y019201D01*
X033167Y019215D01*
X033188Y019226D01*
X033210Y019233D01*
X033233Y019237D01*
X033256Y019238D01*
X033256Y019237D02*
X034083Y019237D01*
X034083Y019238D02*
X034106Y019237D01*
X034129Y019233D01*
X034151Y019226D01*
X034172Y019215D01*
X034190Y019201D01*
X034207Y019185D01*
X034220Y019166D01*
X034230Y019145D01*
X034237Y019123D01*
X034241Y019100D01*
X034240Y019099D02*
X034240Y018706D01*
X034241Y018706D02*
X034237Y018683D01*
X034230Y018661D01*
X034220Y018640D01*
X034207Y018621D01*
X034190Y018605D01*
X034172Y018591D01*
X034151Y018580D01*
X034129Y018573D01*
X034106Y018569D01*
X034083Y018568D01*
X033256Y018568D01*
X033233Y018569D01*
X033210Y018573D01*
X033188Y018580D01*
X033167Y018591D01*
X033149Y018605D01*
X033132Y018621D01*
X033119Y018640D01*
X033109Y018661D01*
X033102Y018683D01*
X033098Y018706D01*
X033256Y019906D02*
X034083Y019906D01*
X034106Y019907D01*
X034129Y019911D01*
X034151Y019918D01*
X034172Y019929D01*
X034190Y019943D01*
X034207Y019959D01*
X034220Y019978D01*
X034230Y019999D01*
X034237Y020021D01*
X034241Y020044D01*
X034240Y020044D02*
X034240Y020438D01*
X034241Y020438D02*
X034237Y020461D01*
X034230Y020483D01*
X034220Y020504D01*
X034207Y020523D01*
X034190Y020539D01*
X034172Y020553D01*
X034151Y020564D01*
X034129Y020571D01*
X034106Y020575D01*
X034083Y020576D01*
X033256Y020576D01*
X033233Y020575D01*
X033210Y020571D01*
X033188Y020564D01*
X033167Y020553D01*
X033149Y020539D01*
X033132Y020523D01*
X033119Y020504D01*
X033109Y020483D01*
X033102Y020461D01*
X033098Y020438D01*
X033098Y020044D01*
X033102Y020021D01*
X033109Y019999D01*
X033119Y019978D01*
X033132Y019959D01*
X033149Y019943D01*
X033167Y019929D01*
X033188Y019918D01*
X033210Y019911D01*
X033233Y019907D01*
X033256Y019906D01*
X032882Y021934D02*
X032449Y021934D01*
X032432Y021935D01*
X032415Y021940D01*
X032400Y021947D01*
X032386Y021957D01*
X032374Y021969D01*
X032364Y021983D01*
X032357Y021998D01*
X032352Y022015D01*
X032351Y022032D01*
X032350Y022032D02*
X032350Y023095D01*
X032351Y023095D02*
X032352Y023112D01*
X032357Y023129D01*
X032364Y023144D01*
X032374Y023158D01*
X032386Y023170D01*
X032400Y023180D01*
X032415Y023187D01*
X032432Y023192D01*
X032449Y023193D01*
X032449Y023194D02*
X032882Y023194D01*
X032882Y023193D02*
X032899Y023192D01*
X032916Y023187D01*
X032931Y023180D01*
X032945Y023170D01*
X032957Y023158D01*
X032967Y023144D01*
X032974Y023129D01*
X032979Y023112D01*
X032980Y023095D01*
X032980Y022032D01*
X032979Y022015D01*
X032974Y021998D01*
X032967Y021983D01*
X032957Y021969D01*
X032945Y021957D01*
X032931Y021947D01*
X032916Y021940D01*
X032899Y021935D01*
X032882Y021934D01*
X034048Y022367D02*
X034265Y022367D01*
X037690Y022367D01*
X037906Y022367D01*
X037906Y022406D02*
X037906Y022584D01*
X037906Y023981D01*
X037907Y023981D02*
X037905Y024012D01*
X037900Y024042D01*
X037892Y024072D01*
X037880Y024101D01*
X037865Y024128D01*
X037847Y024153D01*
X037826Y024176D01*
X037803Y024197D01*
X037778Y024215D01*
X037751Y024230D01*
X037722Y024242D01*
X037692Y024250D01*
X037662Y024255D01*
X037631Y024257D01*
X034324Y024257D01*
X034293Y024255D01*
X034263Y024250D01*
X034233Y024242D01*
X034204Y024230D01*
X034177Y024215D01*
X034152Y024197D01*
X034129Y024176D01*
X034108Y024153D01*
X034090Y024128D01*
X034075Y024101D01*
X034063Y024072D01*
X034055Y024042D01*
X034050Y024012D01*
X034048Y023981D01*
X034048Y022584D01*
X034048Y022406D01*
X034107Y022347D02*
X034265Y022190D01*
X035131Y022190D01*
X035131Y022347D01*
X034107Y022347D01*
X034131Y022324D02*
X035131Y022324D01*
X035190Y022367D02*
X035190Y022131D01*
X035190Y021737D01*
X036765Y021737D01*
X036765Y022131D01*
X036765Y022367D01*
X036824Y022347D02*
X036824Y022190D01*
X037690Y022190D01*
X037847Y022347D01*
X036824Y022347D01*
X036824Y022324D02*
X037824Y022324D01*
X037745Y022245D02*
X036824Y022245D01*
X036765Y022131D02*
X037631Y022131D01*
X037631Y022130D02*
X037662Y022132D01*
X037692Y022137D01*
X037722Y022145D01*
X037751Y022157D01*
X037778Y022172D01*
X037803Y022190D01*
X037826Y022211D01*
X037847Y022234D01*
X037865Y022259D01*
X037880Y022286D01*
X037892Y022315D01*
X037900Y022345D01*
X037905Y022375D01*
X037907Y022406D01*
X037907Y022584D02*
X037905Y022556D01*
X037900Y022528D01*
X037890Y022501D01*
X037878Y022476D01*
X037862Y022452D01*
X037843Y022431D01*
X037822Y022412D01*
X037799Y022396D01*
X037773Y022384D01*
X037746Y022374D01*
X037718Y022369D01*
X037690Y022367D01*
X037522Y023892D02*
X037524Y023912D01*
X037530Y023930D01*
X037539Y023948D01*
X037551Y023963D01*
X037566Y023975D01*
X037584Y023984D01*
X037602Y023990D01*
X037622Y023992D01*
X037642Y023990D01*
X037660Y023984D01*
X037678Y023975D01*
X037693Y023963D01*
X037705Y023948D01*
X037714Y023930D01*
X037720Y023912D01*
X037722Y023892D01*
X037720Y023872D01*
X037714Y023854D01*
X037705Y023836D01*
X037693Y023821D01*
X037678Y023809D01*
X037660Y023800D01*
X037642Y023794D01*
X037622Y023792D01*
X037602Y023794D01*
X037584Y023800D01*
X037566Y023809D01*
X037551Y023821D01*
X037539Y023836D01*
X037530Y023854D01*
X037524Y023872D01*
X037522Y023892D01*
X038307Y024717D02*
X036709Y024717D01*
X036687Y024719D01*
X036665Y024723D01*
X036644Y024731D01*
X036624Y024742D01*
X036606Y024755D01*
X036590Y024771D01*
X036577Y024789D01*
X036566Y024809D01*
X036558Y024830D01*
X036554Y024852D01*
X036552Y024874D01*
X036551Y024874D02*
X036551Y025490D01*
X036552Y025490D02*
X036554Y025512D01*
X036558Y025534D01*
X036566Y025555D01*
X036577Y025575D01*
X036590Y025593D01*
X036606Y025609D01*
X036624Y025622D01*
X036644Y025633D01*
X036665Y025641D01*
X036687Y025645D01*
X036709Y025647D01*
X036709Y025648D02*
X038307Y025648D01*
X038307Y025647D02*
X038329Y025645D01*
X038351Y025641D01*
X038372Y025633D01*
X038392Y025622D01*
X038410Y025609D01*
X038426Y025593D01*
X038439Y025575D01*
X038450Y025555D01*
X038458Y025534D01*
X038462Y025512D01*
X038464Y025490D01*
X038465Y025490D02*
X038465Y024874D01*
X038464Y024874D02*
X038462Y024852D01*
X038458Y024830D01*
X038450Y024809D01*
X038439Y024789D01*
X038426Y024771D01*
X038410Y024755D01*
X038392Y024742D01*
X038372Y024731D01*
X038351Y024723D01*
X038329Y024719D01*
X038307Y024717D01*
X037995Y026295D02*
X037100Y026295D01*
X037078Y026297D01*
X037056Y026301D01*
X037035Y026309D01*
X037015Y026320D01*
X036997Y026333D01*
X036981Y026349D01*
X036968Y026367D01*
X036957Y026387D01*
X036949Y026408D01*
X036945Y026430D01*
X036943Y026452D01*
X036942Y026452D02*
X036942Y026865D01*
X036943Y026865D02*
X036945Y026887D01*
X036949Y026909D01*
X036957Y026930D01*
X036968Y026950D01*
X036981Y026968D01*
X036997Y026984D01*
X037015Y026997D01*
X037035Y027008D01*
X037056Y027016D01*
X037078Y027020D01*
X037100Y027022D01*
X037995Y027022D01*
X038017Y027020D01*
X038039Y027016D01*
X038060Y027008D01*
X038080Y026997D01*
X038098Y026984D01*
X038114Y026968D01*
X038127Y026950D01*
X038138Y026930D01*
X038146Y026909D01*
X038150Y026887D01*
X038152Y026865D01*
X038152Y026452D01*
X038150Y026430D01*
X038146Y026408D01*
X038138Y026387D01*
X038127Y026367D01*
X038114Y026349D01*
X038098Y026333D01*
X038080Y026320D01*
X038060Y026309D01*
X038039Y026301D01*
X038017Y026297D01*
X037995Y026295D01*
X035866Y025490D02*
X035866Y024874D01*
X035864Y024852D01*
X035860Y024830D01*
X035852Y024809D01*
X035841Y024789D01*
X035828Y024771D01*
X035812Y024755D01*
X035794Y024742D01*
X035774Y024731D01*
X035753Y024723D01*
X035731Y024719D01*
X035709Y024717D01*
X034110Y024717D01*
X034088Y024719D01*
X034066Y024723D01*
X034045Y024731D01*
X034025Y024742D01*
X034007Y024755D01*
X033991Y024771D01*
X033978Y024789D01*
X033967Y024809D01*
X033959Y024830D01*
X033955Y024852D01*
X033953Y024874D01*
X033953Y025490D01*
X033955Y025512D01*
X033959Y025534D01*
X033967Y025555D01*
X033978Y025575D01*
X033991Y025593D01*
X034007Y025609D01*
X034025Y025622D01*
X034045Y025633D01*
X034066Y025641D01*
X034088Y025645D01*
X034110Y025647D01*
X034110Y025648D02*
X035709Y025648D01*
X035709Y025647D02*
X035731Y025645D01*
X035753Y025641D01*
X035774Y025633D01*
X035794Y025622D01*
X035812Y025609D01*
X035828Y025593D01*
X035841Y025575D01*
X035852Y025555D01*
X035860Y025534D01*
X035864Y025512D01*
X035866Y025490D01*
X034516Y026422D02*
X034516Y026895D01*
X034515Y026894D02*
X034510Y026924D01*
X034502Y026953D01*
X034491Y026980D01*
X034476Y027007D01*
X034459Y027031D01*
X034439Y027054D01*
X034417Y027073D01*
X034392Y027091D01*
X034366Y027105D01*
X034339Y027117D01*
X034310Y027125D01*
X034280Y027130D01*
X034250Y027132D01*
X034221Y027130D01*
X034220Y027131D02*
X032921Y027131D01*
X032921Y027130D02*
X032892Y027132D01*
X032862Y027130D01*
X032832Y027125D01*
X032803Y027117D01*
X032776Y027105D01*
X032750Y027091D01*
X032725Y027073D01*
X032703Y027054D01*
X032683Y027031D01*
X032666Y027007D01*
X032651Y026980D01*
X032640Y026953D01*
X032632Y026924D01*
X032627Y026894D01*
X032626Y026895D02*
X032626Y026422D01*
X032627Y026423D02*
X032632Y026393D01*
X032640Y026364D01*
X032651Y026337D01*
X032666Y026310D01*
X032683Y026286D01*
X032703Y026263D01*
X032725Y026244D01*
X032750Y026226D01*
X032776Y026212D01*
X032803Y026200D01*
X032832Y026192D01*
X032862Y026187D01*
X032892Y026185D01*
X032921Y026187D01*
X032921Y026186D02*
X034220Y026186D01*
X034221Y026187D02*
X034250Y026185D01*
X034280Y026187D01*
X034310Y026192D01*
X034339Y026200D01*
X034366Y026212D01*
X034392Y026226D01*
X034417Y026244D01*
X034439Y026263D01*
X034459Y026286D01*
X034476Y026310D01*
X034491Y026337D01*
X034502Y026364D01*
X034510Y026393D01*
X034515Y026423D01*
X034048Y022584D02*
X034050Y022556D01*
X034055Y022528D01*
X034065Y022501D01*
X034077Y022476D01*
X034093Y022452D01*
X034112Y022431D01*
X034133Y022412D01*
X034157Y022396D01*
X034182Y022384D01*
X034209Y022374D01*
X034237Y022369D01*
X034265Y022367D01*
X034048Y022406D02*
X034050Y022375D01*
X034055Y022345D01*
X034063Y022315D01*
X034075Y022286D01*
X034090Y022259D01*
X034108Y022234D01*
X034129Y022211D01*
X034152Y022190D01*
X034177Y022172D01*
X034204Y022157D01*
X034233Y022145D01*
X034263Y022137D01*
X034293Y022132D01*
X034324Y022130D01*
X034324Y022131D02*
X035190Y022131D01*
X035131Y022245D02*
X034209Y022245D01*
X036858Y020438D02*
X036858Y020044D01*
X036862Y020021D01*
X036869Y019999D01*
X036879Y019978D01*
X036892Y019959D01*
X036909Y019943D01*
X036927Y019929D01*
X036948Y019918D01*
X036970Y019911D01*
X036993Y019907D01*
X037016Y019906D01*
X037843Y019906D01*
X037842Y019906D02*
X037865Y019907D01*
X037888Y019911D01*
X037910Y019918D01*
X037931Y019929D01*
X037949Y019943D01*
X037966Y019959D01*
X037979Y019978D01*
X037989Y019999D01*
X037996Y020021D01*
X038000Y020044D01*
X038000Y020438D01*
X037996Y020461D01*
X037989Y020483D01*
X037979Y020504D01*
X037966Y020523D01*
X037949Y020539D01*
X037931Y020553D01*
X037910Y020564D01*
X037888Y020571D01*
X037865Y020575D01*
X037842Y020576D01*
X037843Y020576D02*
X037016Y020576D01*
X036993Y020575D01*
X036970Y020571D01*
X036948Y020564D01*
X036927Y020553D01*
X036909Y020539D01*
X036892Y020523D01*
X036879Y020504D01*
X036869Y020483D01*
X036862Y020461D01*
X036858Y020438D01*
X036760Y019316D02*
X038098Y019316D01*
X038111Y019317D01*
X038124Y019314D01*
X038136Y019309D01*
X038146Y019300D01*
X038153Y019289D01*
X038157Y019277D01*
X038206Y018506D02*
X038202Y018482D01*
X038195Y018458D01*
X038184Y018435D01*
X038171Y018414D01*
X038155Y018395D01*
X038136Y018378D01*
X038115Y018364D01*
X038093Y018353D01*
X038069Y018346D01*
X038045Y018341D01*
X036813Y018341D01*
X036789Y018346D01*
X036765Y018353D01*
X036743Y018364D01*
X036722Y018378D01*
X036703Y018395D01*
X036687Y018414D01*
X036674Y018435D01*
X036663Y018458D01*
X036656Y018482D01*
X036652Y018506D01*
X036701Y019277D02*
X036705Y019289D01*
X036712Y019300D01*
X036722Y019309D01*
X036734Y019314D01*
X036747Y019317D01*
X036760Y019316D01*
X030185Y021383D02*
X030185Y021480D01*
X030212Y021482D01*
X030238Y021488D01*
X030263Y021497D01*
X030287Y021510D01*
X030308Y021526D01*
X030327Y021545D01*
X030343Y021566D01*
X030356Y021590D01*
X030365Y021615D01*
X030371Y021641D01*
X030373Y021668D01*
X030371Y021695D01*
X030365Y021721D01*
X030356Y021746D01*
X030343Y021770D01*
X030327Y021791D01*
X030308Y021810D01*
X030287Y021826D01*
X030263Y021839D01*
X030238Y021848D01*
X030212Y021854D01*
X030185Y021856D01*
X028610Y021855D02*
X028612Y021934D01*
X028618Y022013D01*
X028628Y022092D01*
X028642Y022170D01*
X028659Y022247D01*
X028681Y022323D01*
X028706Y022398D01*
X028736Y022471D01*
X028768Y022543D01*
X028805Y022614D01*
X028845Y022682D01*
X028888Y022748D01*
X028934Y022812D01*
X028984Y022874D01*
X029037Y022933D01*
X029092Y022989D01*
X029151Y023043D01*
X029212Y023093D01*
X029275Y023141D01*
X029341Y023185D01*
X029409Y023226D01*
X029479Y023263D01*
X029550Y023297D01*
X029624Y023327D01*
X029698Y023353D01*
X029774Y023375D01*
X029851Y023394D01*
X029929Y023409D01*
X030007Y023420D01*
X030086Y023427D01*
X030165Y023430D01*
X030244Y023429D01*
X030323Y023424D01*
X030402Y023415D01*
X030480Y023402D01*
X030557Y023385D01*
X030634Y023365D01*
X030709Y023340D01*
X030783Y023312D01*
X030856Y023280D01*
X030926Y023245D01*
X030995Y023206D01*
X031062Y023163D01*
X031127Y023117D01*
X031189Y023069D01*
X031249Y023017D01*
X031306Y022962D01*
X031360Y022904D01*
X031411Y022844D01*
X031459Y022781D01*
X031504Y022716D01*
X031546Y022648D01*
X031584Y022579D01*
X031618Y022508D01*
X031649Y022435D01*
X031677Y022360D01*
X031700Y022285D01*
X031720Y022208D01*
X031736Y022131D01*
X031748Y022052D01*
X031756Y021974D01*
X031760Y021895D01*
X031760Y021815D01*
X031756Y021736D01*
X031748Y021658D01*
X031736Y021579D01*
X031720Y021502D01*
X031700Y021425D01*
X031677Y021350D01*
X031649Y021275D01*
X031618Y021202D01*
X031584Y021131D01*
X031546Y021062D01*
X031504Y020994D01*
X031459Y020929D01*
X031411Y020866D01*
X031360Y020806D01*
X031306Y020748D01*
X031249Y020693D01*
X031189Y020641D01*
X031127Y020593D01*
X031062Y020547D01*
X030995Y020504D01*
X030926Y020465D01*
X030856Y020430D01*
X030783Y020398D01*
X030709Y020370D01*
X030634Y020345D01*
X030557Y020325D01*
X030480Y020308D01*
X030402Y020295D01*
X030323Y020286D01*
X030244Y020281D01*
X030165Y020280D01*
X030086Y020283D01*
X030007Y020290D01*
X029929Y020301D01*
X029851Y020316D01*
X029774Y020335D01*
X029698Y020357D01*
X029624Y020383D01*
X029550Y020413D01*
X029479Y020447D01*
X029409Y020484D01*
X029341Y020525D01*
X029275Y020569D01*
X029212Y020617D01*
X029151Y020667D01*
X029092Y020721D01*
X029037Y020777D01*
X028984Y020836D01*
X028934Y020898D01*
X028888Y020962D01*
X028845Y021028D01*
X028805Y021096D01*
X028768Y021167D01*
X028736Y021239D01*
X028706Y021312D01*
X028681Y021387D01*
X028659Y021463D01*
X028642Y021540D01*
X028628Y021618D01*
X028618Y021697D01*
X028612Y021776D01*
X028610Y021855D01*
X027445Y021481D02*
X027445Y022379D01*
X013555Y022379D01*
X013555Y023036D01*
X013594Y023038D01*
X013632Y023044D01*
X013669Y023053D01*
X013706Y023066D01*
X013741Y023083D01*
X013774Y023102D01*
X013805Y023125D01*
X013834Y023151D01*
X013860Y023180D01*
X013883Y023211D01*
X013902Y023244D01*
X013919Y023279D01*
X013932Y023316D01*
X013941Y023353D01*
X013947Y023391D01*
X013949Y023430D01*
X013947Y023469D01*
X013941Y023507D01*
X013932Y023544D01*
X013919Y023581D01*
X013902Y023616D01*
X013883Y023649D01*
X013860Y023680D01*
X013834Y023709D01*
X013805Y023735D01*
X013774Y023758D01*
X013741Y023777D01*
X013706Y023794D01*
X013669Y023807D01*
X013632Y023816D01*
X013594Y023822D01*
X013555Y023824D01*
X013555Y024481D01*
X027445Y024481D01*
X027445Y022379D01*
X027445Y021481D02*
X013555Y021481D01*
X013555Y022379D01*
X012232Y022151D02*
X012232Y021718D01*
X012231Y021701D01*
X012226Y021684D01*
X012219Y021669D01*
X012209Y021655D01*
X012197Y021643D01*
X012183Y021633D01*
X012168Y021626D01*
X012151Y021621D01*
X012134Y021620D01*
X012134Y021619D02*
X011071Y021619D01*
X011071Y021620D02*
X011054Y021621D01*
X011037Y021626D01*
X011022Y021633D01*
X011008Y021643D01*
X010996Y021655D01*
X010986Y021669D01*
X010979Y021684D01*
X010974Y021701D01*
X010973Y021718D01*
X010972Y021718D02*
X010972Y022151D01*
X010973Y022151D02*
X010974Y022168D01*
X010979Y022185D01*
X010986Y022200D01*
X010996Y022214D01*
X011008Y022226D01*
X011022Y022236D01*
X011037Y022243D01*
X011054Y022248D01*
X011071Y022249D01*
X012134Y022249D01*
X012151Y022248D01*
X012168Y022243D01*
X012183Y022236D01*
X012197Y022226D01*
X012209Y022214D01*
X012219Y022200D01*
X012226Y022185D01*
X012231Y022168D01*
X012232Y022151D01*
X012402Y020589D02*
X010803Y020589D01*
X010803Y020588D02*
X010781Y020586D01*
X010759Y020582D01*
X010738Y020574D01*
X010718Y020563D01*
X010700Y020550D01*
X010684Y020534D01*
X010671Y020516D01*
X010660Y020496D01*
X010652Y020475D01*
X010648Y020453D01*
X010646Y020431D01*
X010646Y019815D01*
X010648Y019793D01*
X010652Y019771D01*
X010660Y019750D01*
X010671Y019730D01*
X010684Y019712D01*
X010700Y019696D01*
X010718Y019683D01*
X010738Y019672D01*
X010759Y019664D01*
X010781Y019660D01*
X010803Y019658D01*
X010803Y019657D02*
X012402Y019657D01*
X012402Y019658D02*
X012424Y019660D01*
X012446Y019664D01*
X012467Y019672D01*
X012487Y019683D01*
X012505Y019696D01*
X012521Y019712D01*
X012534Y019730D01*
X012545Y019750D01*
X012553Y019771D01*
X012557Y019793D01*
X012559Y019815D01*
X012559Y020431D01*
X012557Y020453D01*
X012553Y020475D01*
X012545Y020496D01*
X012534Y020516D01*
X012521Y020534D01*
X012505Y020550D01*
X012487Y020563D01*
X012467Y020574D01*
X012446Y020582D01*
X012424Y020586D01*
X012402Y020588D01*
X014346Y020628D02*
X014346Y020012D01*
X014347Y020012D02*
X014349Y019990D01*
X014353Y019968D01*
X014361Y019947D01*
X014372Y019927D01*
X014385Y019909D01*
X014401Y019893D01*
X014419Y019880D01*
X014439Y019869D01*
X014460Y019861D01*
X014482Y019857D01*
X014504Y019855D01*
X014504Y019854D02*
X016102Y019854D01*
X016102Y019855D02*
X016124Y019857D01*
X016146Y019861D01*
X016167Y019869D01*
X016187Y019880D01*
X016205Y019893D01*
X016221Y019909D01*
X016234Y019927D01*
X016245Y019947D01*
X016253Y019968D01*
X016257Y019990D01*
X016259Y020012D01*
X016260Y020012D02*
X016260Y020628D01*
X016259Y020628D02*
X016257Y020650D01*
X016253Y020672D01*
X016245Y020693D01*
X016234Y020713D01*
X016221Y020731D01*
X016205Y020747D01*
X016187Y020760D01*
X016167Y020771D01*
X016146Y020779D01*
X016124Y020783D01*
X016102Y020785D01*
X014504Y020785D01*
X014482Y020783D01*
X014460Y020779D01*
X014439Y020771D01*
X014419Y020760D01*
X014401Y020747D01*
X014385Y020731D01*
X014372Y020713D01*
X014361Y020693D01*
X014353Y020672D01*
X014349Y020650D01*
X014347Y020628D01*
X015131Y019468D02*
X017681Y019468D01*
X018307Y019854D02*
X016709Y019854D01*
X016709Y019855D02*
X016687Y019857D01*
X016665Y019861D01*
X016644Y019869D01*
X016624Y019880D01*
X016606Y019893D01*
X016590Y019909D01*
X016577Y019927D01*
X016566Y019947D01*
X016558Y019968D01*
X016554Y019990D01*
X016552Y020012D01*
X016551Y020012D02*
X016551Y020628D01*
X016552Y020628D02*
X016554Y020650D01*
X016558Y020672D01*
X016566Y020693D01*
X016577Y020713D01*
X016590Y020731D01*
X016606Y020747D01*
X016624Y020760D01*
X016644Y020771D01*
X016665Y020779D01*
X016687Y020783D01*
X016709Y020785D01*
X018307Y020785D01*
X018329Y020783D01*
X018351Y020779D01*
X018372Y020771D01*
X018392Y020760D01*
X018410Y020747D01*
X018426Y020731D01*
X018439Y020713D01*
X018450Y020693D01*
X018458Y020672D01*
X018462Y020650D01*
X018464Y020628D01*
X018465Y020628D02*
X018465Y020012D01*
X018464Y020012D02*
X018462Y019990D01*
X018458Y019968D01*
X018450Y019947D01*
X018439Y019927D01*
X018426Y019909D01*
X018410Y019893D01*
X018392Y019880D01*
X018372Y019869D01*
X018351Y019861D01*
X018329Y019857D01*
X018307Y019855D01*
X018992Y018856D02*
X020591Y018856D01*
X020613Y018854D01*
X020635Y018850D01*
X020656Y018842D01*
X020676Y018831D01*
X020694Y018818D01*
X020710Y018802D01*
X020723Y018784D01*
X020734Y018764D01*
X020742Y018743D01*
X020746Y018721D01*
X020748Y018699D01*
X020748Y018083D01*
X020746Y018061D01*
X020742Y018039D01*
X020734Y018018D01*
X020723Y017998D01*
X020710Y017980D01*
X020694Y017964D01*
X020676Y017951D01*
X020656Y017940D01*
X020635Y017932D01*
X020613Y017928D01*
X020591Y017926D01*
X020591Y017925D02*
X018992Y017925D01*
X018992Y017926D02*
X018970Y017928D01*
X018948Y017932D01*
X018927Y017940D01*
X018907Y017951D01*
X018889Y017964D01*
X018873Y017980D01*
X018860Y017998D01*
X018849Y018018D01*
X018841Y018039D01*
X018837Y018061D01*
X018835Y018083D01*
X018835Y018699D01*
X018837Y018721D01*
X018841Y018743D01*
X018849Y018764D01*
X018860Y018784D01*
X018873Y018802D01*
X018889Y018818D01*
X018907Y018831D01*
X018927Y018842D01*
X018948Y018850D01*
X018970Y018854D01*
X018992Y018856D01*
X019996Y019284D02*
X019996Y019678D01*
X020000Y019701D01*
X020007Y019723D01*
X020017Y019744D01*
X020030Y019763D01*
X020047Y019779D01*
X020065Y019793D01*
X020086Y019804D01*
X020108Y019811D01*
X020131Y019815D01*
X020154Y019816D01*
X020981Y019816D01*
X021004Y019815D01*
X021027Y019811D01*
X021049Y019804D01*
X021070Y019793D01*
X021088Y019779D01*
X021105Y019763D01*
X021118Y019744D01*
X021128Y019723D01*
X021135Y019701D01*
X021139Y019678D01*
X021138Y019678D02*
X021138Y019284D01*
X021139Y019284D02*
X021135Y019261D01*
X021128Y019239D01*
X021118Y019218D01*
X021105Y019199D01*
X021088Y019183D01*
X021070Y019169D01*
X021049Y019158D01*
X021027Y019151D01*
X021004Y019147D01*
X020981Y019146D01*
X020154Y019146D01*
X020131Y019147D01*
X020108Y019151D01*
X020086Y019158D01*
X020065Y019169D01*
X020047Y019183D01*
X020030Y019199D01*
X020017Y019218D01*
X020007Y019239D01*
X020000Y019261D01*
X019996Y019284D01*
X020409Y020091D02*
X022008Y020091D01*
X022030Y020093D01*
X022052Y020097D01*
X022073Y020105D01*
X022093Y020116D01*
X022111Y020129D01*
X022127Y020145D01*
X022140Y020163D01*
X022151Y020183D01*
X022159Y020204D01*
X022163Y020226D01*
X022165Y020248D01*
X022165Y020864D01*
X022163Y020886D01*
X022159Y020908D01*
X022151Y020929D01*
X022140Y020949D01*
X022127Y020967D01*
X022111Y020983D01*
X022093Y020996D01*
X022073Y021007D01*
X022052Y021015D01*
X022030Y021019D01*
X022008Y021021D01*
X022008Y021022D02*
X020409Y021022D01*
X020409Y021021D02*
X020387Y021019D01*
X020365Y021015D01*
X020344Y021007D01*
X020324Y020996D01*
X020306Y020983D01*
X020290Y020967D01*
X020277Y020949D01*
X020266Y020929D01*
X020258Y020908D01*
X020254Y020886D01*
X020252Y020864D01*
X020252Y020248D01*
X020254Y020226D01*
X020258Y020204D01*
X020266Y020183D01*
X020277Y020163D01*
X020290Y020145D01*
X020306Y020129D01*
X020324Y020116D01*
X020344Y020105D01*
X020365Y020097D01*
X020387Y020093D01*
X020409Y020091D01*
X022535Y019053D02*
X022535Y018437D01*
X022536Y018437D02*
X022538Y018415D01*
X022542Y018393D01*
X022550Y018372D01*
X022561Y018352D01*
X022574Y018334D01*
X022590Y018318D01*
X022608Y018305D01*
X022628Y018294D01*
X022649Y018286D01*
X022671Y018282D01*
X022693Y018280D01*
X024291Y018280D01*
X024313Y018282D01*
X024335Y018286D01*
X024356Y018294D01*
X024376Y018305D01*
X024394Y018318D01*
X024410Y018334D01*
X024423Y018352D01*
X024434Y018372D01*
X024442Y018393D01*
X024446Y018415D01*
X024448Y018437D01*
X024449Y018437D02*
X024449Y019053D01*
X024448Y019053D02*
X024446Y019075D01*
X024442Y019097D01*
X024434Y019118D01*
X024423Y019138D01*
X024410Y019156D01*
X024394Y019172D01*
X024376Y019185D01*
X024356Y019196D01*
X024335Y019204D01*
X024313Y019208D01*
X024291Y019210D01*
X024291Y019211D02*
X022693Y019211D01*
X022693Y019210D02*
X022671Y019208D01*
X022649Y019204D01*
X022628Y019196D01*
X022608Y019185D01*
X022590Y019172D01*
X022574Y019156D01*
X022561Y019138D01*
X022550Y019118D01*
X022542Y019097D01*
X022538Y019075D01*
X022536Y019053D01*
X023319Y019597D02*
X025869Y019597D01*
X026496Y019211D02*
X024898Y019211D01*
X024898Y019210D02*
X024876Y019208D01*
X024854Y019204D01*
X024833Y019196D01*
X024813Y019185D01*
X024795Y019172D01*
X024779Y019156D01*
X024766Y019138D01*
X024755Y019118D01*
X024747Y019097D01*
X024743Y019075D01*
X024741Y019053D01*
X024740Y019053D02*
X024740Y018437D01*
X024741Y018437D02*
X024743Y018415D01*
X024747Y018393D01*
X024755Y018372D01*
X024766Y018352D01*
X024779Y018334D01*
X024795Y018318D01*
X024813Y018305D01*
X024833Y018294D01*
X024854Y018286D01*
X024876Y018282D01*
X024898Y018280D01*
X026496Y018280D01*
X026518Y018282D01*
X026540Y018286D01*
X026561Y018294D01*
X026581Y018305D01*
X026599Y018318D01*
X026615Y018334D01*
X026628Y018352D01*
X026639Y018372D01*
X026647Y018393D01*
X026651Y018415D01*
X026653Y018437D01*
X026654Y018437D02*
X026654Y019053D01*
X026653Y019053D02*
X026651Y019075D01*
X026647Y019097D01*
X026639Y019118D01*
X026628Y019138D01*
X026615Y019156D01*
X026599Y019172D01*
X026581Y019185D01*
X026561Y019196D01*
X026540Y019204D01*
X026518Y019208D01*
X026496Y019210D01*
X025869Y019596D02*
X025923Y019598D01*
X025978Y019604D01*
X026031Y019613D01*
X026084Y019627D01*
X026136Y019644D01*
X026186Y019665D01*
X026235Y019689D01*
X026282Y019717D01*
X026326Y019748D01*
X026369Y019782D01*
X026409Y019819D01*
X026446Y019859D01*
X026480Y019902D01*
X026511Y019946D01*
X026539Y019993D01*
X026563Y020042D01*
X026584Y020092D01*
X026601Y020144D01*
X026615Y020197D01*
X026624Y020250D01*
X026630Y020305D01*
X026632Y020359D01*
X026630Y020413D01*
X026624Y020468D01*
X026615Y020521D01*
X026601Y020574D01*
X026584Y020626D01*
X026563Y020676D01*
X026539Y020725D01*
X026511Y020772D01*
X026480Y020816D01*
X026446Y020859D01*
X026409Y020899D01*
X026369Y020936D01*
X026326Y020970D01*
X026282Y021001D01*
X026235Y021029D01*
X026186Y021053D01*
X026136Y021074D01*
X026084Y021091D01*
X026031Y021105D01*
X025978Y021114D01*
X025923Y021120D01*
X025869Y021122D01*
X023319Y021122D01*
X023265Y021120D01*
X023210Y021114D01*
X023157Y021105D01*
X023104Y021091D01*
X023052Y021074D01*
X023002Y021053D01*
X022953Y021029D01*
X022906Y021001D01*
X022862Y020970D01*
X022819Y020936D01*
X022779Y020899D01*
X022742Y020859D01*
X022708Y020816D01*
X022677Y020772D01*
X022649Y020725D01*
X022625Y020676D01*
X022604Y020626D01*
X022587Y020574D01*
X022573Y020521D01*
X022564Y020468D01*
X022558Y020413D01*
X022556Y020359D01*
X022558Y020305D01*
X022564Y020250D01*
X022573Y020197D01*
X022587Y020144D01*
X022604Y020092D01*
X022625Y020042D01*
X022649Y019993D01*
X022677Y019946D01*
X022708Y019902D01*
X022742Y019859D01*
X022779Y019819D01*
X022819Y019782D01*
X022862Y019748D01*
X022906Y019717D01*
X022953Y019689D01*
X023002Y019665D01*
X023052Y019644D01*
X023104Y019627D01*
X023157Y019613D01*
X023210Y019604D01*
X023265Y019598D01*
X023319Y019596D01*
X027445Y017584D02*
X027445Y016686D01*
X027445Y016029D01*
X027406Y016027D01*
X027368Y016021D01*
X027331Y016012D01*
X027294Y015999D01*
X027259Y015982D01*
X027226Y015963D01*
X027195Y015940D01*
X027166Y015914D01*
X027140Y015885D01*
X027117Y015854D01*
X027098Y015821D01*
X027081Y015786D01*
X027068Y015749D01*
X027059Y015712D01*
X027053Y015674D01*
X027051Y015635D01*
X027053Y015596D01*
X027059Y015558D01*
X027068Y015521D01*
X027081Y015484D01*
X027098Y015449D01*
X027117Y015416D01*
X027140Y015385D01*
X027166Y015356D01*
X027195Y015330D01*
X027226Y015307D01*
X027259Y015288D01*
X027294Y015271D01*
X027331Y015258D01*
X027368Y015249D01*
X027406Y015243D01*
X027445Y015241D01*
X027445Y014584D01*
X013555Y014584D01*
X013555Y016686D01*
X013555Y017584D01*
X027445Y017584D01*
X027445Y016686D02*
X013555Y016686D01*
X012134Y017997D02*
X011071Y017997D01*
X011054Y017998D01*
X011037Y018003D01*
X011022Y018010D01*
X011008Y018020D01*
X010996Y018032D01*
X010986Y018046D01*
X010979Y018061D01*
X010974Y018078D01*
X010973Y018095D01*
X010972Y018095D02*
X010972Y018529D01*
X010973Y018529D02*
X010974Y018546D01*
X010979Y018563D01*
X010986Y018578D01*
X010996Y018592D01*
X011008Y018604D01*
X011022Y018614D01*
X011037Y018621D01*
X011054Y018626D01*
X011071Y018627D01*
X012134Y018627D01*
X012151Y018626D01*
X012168Y018621D01*
X012183Y018614D01*
X012197Y018604D01*
X012209Y018592D01*
X012219Y018578D01*
X012226Y018563D01*
X012231Y018546D01*
X012232Y018529D01*
X012232Y018095D01*
X012231Y018078D01*
X012226Y018061D01*
X012219Y018046D01*
X012209Y018032D01*
X012197Y018020D01*
X012183Y018010D01*
X012168Y018003D01*
X012151Y017998D01*
X012134Y017997D01*
X015131Y017943D02*
X017681Y017943D01*
X017735Y017945D01*
X017790Y017951D01*
X017843Y017960D01*
X017896Y017974D01*
X017948Y017991D01*
X017998Y018012D01*
X018047Y018036D01*
X018094Y018064D01*
X018138Y018095D01*
X018181Y018129D01*
X018221Y018166D01*
X018258Y018206D01*
X018292Y018249D01*
X018323Y018293D01*
X018351Y018340D01*
X018375Y018389D01*
X018396Y018439D01*
X018413Y018491D01*
X018427Y018544D01*
X018436Y018597D01*
X018442Y018652D01*
X018444Y018706D01*
X018442Y018760D01*
X018436Y018815D01*
X018427Y018868D01*
X018413Y018921D01*
X018396Y018973D01*
X018375Y019023D01*
X018351Y019072D01*
X018323Y019119D01*
X018292Y019163D01*
X018258Y019206D01*
X018221Y019246D01*
X018181Y019283D01*
X018138Y019317D01*
X018094Y019348D01*
X018047Y019376D01*
X017998Y019400D01*
X017948Y019421D01*
X017896Y019438D01*
X017843Y019452D01*
X017790Y019461D01*
X017735Y019467D01*
X017681Y019469D01*
X015131Y019469D02*
X015077Y019467D01*
X015022Y019461D01*
X014969Y019452D01*
X014916Y019438D01*
X014864Y019421D01*
X014814Y019400D01*
X014765Y019376D01*
X014718Y019348D01*
X014674Y019317D01*
X014631Y019283D01*
X014591Y019246D01*
X014554Y019206D01*
X014520Y019163D01*
X014489Y019119D01*
X014461Y019072D01*
X014437Y019023D01*
X014416Y018973D01*
X014399Y018921D01*
X014385Y018868D01*
X014376Y018815D01*
X014370Y018760D01*
X014368Y018706D01*
X014370Y018652D01*
X014376Y018597D01*
X014385Y018544D01*
X014399Y018491D01*
X014416Y018439D01*
X014437Y018389D01*
X014461Y018340D01*
X014489Y018293D01*
X014520Y018249D01*
X014554Y018206D01*
X014591Y018166D01*
X014631Y018129D01*
X014674Y018095D01*
X014718Y018064D01*
X014765Y018036D01*
X014814Y018012D01*
X014864Y017991D01*
X014916Y017974D01*
X014969Y017960D01*
X015022Y017951D01*
X015077Y017945D01*
X015131Y017943D01*
X013555Y014584D02*
X013555Y013686D01*
X027445Y013686D01*
X027445Y014584D01*
X025756Y013076D02*
X025756Y012682D01*
X025752Y012659D01*
X025745Y012637D01*
X025735Y012616D01*
X025722Y012597D01*
X025705Y012581D01*
X025687Y012567D01*
X025666Y012556D01*
X025644Y012549D01*
X025621Y012545D01*
X025598Y012544D01*
X024772Y012544D01*
X024749Y012545D01*
X024726Y012549D01*
X024704Y012556D01*
X024683Y012567D01*
X024665Y012581D01*
X024648Y012597D01*
X024635Y012616D01*
X024625Y012637D01*
X024618Y012659D01*
X024614Y012682D01*
X024614Y013076D01*
X024618Y013099D01*
X024625Y013121D01*
X024635Y013142D01*
X024648Y013161D01*
X024665Y013177D01*
X024683Y013191D01*
X024704Y013202D01*
X024726Y013209D01*
X024749Y013213D01*
X024772Y013214D01*
X025598Y013214D01*
X025621Y013213D01*
X025644Y013209D01*
X025666Y013202D01*
X025687Y013191D01*
X025705Y013177D01*
X025722Y013161D01*
X025735Y013142D01*
X025745Y013121D01*
X025752Y013099D01*
X025756Y013076D01*
X025598Y012151D02*
X024772Y012151D01*
X024749Y012150D01*
X024726Y012146D01*
X024704Y012139D01*
X024683Y012128D01*
X024665Y012114D01*
X024648Y012098D01*
X024635Y012079D01*
X024625Y012058D01*
X024618Y012036D01*
X024614Y012013D01*
X024614Y011619D01*
X024618Y011596D01*
X024625Y011574D01*
X024635Y011553D01*
X024648Y011534D01*
X024665Y011518D01*
X024683Y011504D01*
X024704Y011493D01*
X024726Y011486D01*
X024749Y011482D01*
X024772Y011481D01*
X025598Y011481D01*
X025621Y011482D01*
X025644Y011486D01*
X025666Y011493D01*
X025687Y011504D01*
X025705Y011518D01*
X025722Y011534D01*
X025735Y011553D01*
X025745Y011574D01*
X025752Y011596D01*
X025756Y011619D01*
X025756Y012013D01*
X025752Y012036D01*
X025745Y012058D01*
X025735Y012079D01*
X025722Y012098D01*
X025705Y012114D01*
X025687Y012128D01*
X025666Y012139D01*
X025644Y012146D01*
X025621Y012150D01*
X025598Y012151D01*
X026681Y011186D02*
X023689Y011186D01*
X023667Y011184D01*
X023645Y011180D01*
X023624Y011172D01*
X023604Y011161D01*
X023586Y011148D01*
X023570Y011132D01*
X023557Y011114D01*
X023546Y011094D01*
X023538Y011073D01*
X023534Y011051D01*
X023532Y011029D01*
X023531Y011029D02*
X023531Y010162D01*
X023532Y010162D02*
X023534Y010140D01*
X023538Y010118D01*
X023546Y010097D01*
X023557Y010077D01*
X023570Y010059D01*
X023586Y010043D01*
X023604Y010030D01*
X023624Y010019D01*
X023645Y010011D01*
X023667Y010007D01*
X023689Y010005D01*
X026681Y010005D01*
X026703Y010007D01*
X026725Y010011D01*
X026746Y010019D01*
X026766Y010030D01*
X026784Y010043D01*
X026800Y010059D01*
X026813Y010077D01*
X026824Y010097D01*
X026832Y010118D01*
X026836Y010140D01*
X026838Y010162D01*
X026839Y010162D02*
X026839Y011029D01*
X026838Y011029D02*
X026836Y011051D01*
X026832Y011073D01*
X026824Y011094D01*
X026813Y011114D01*
X026800Y011132D01*
X026784Y011148D01*
X026766Y011161D01*
X026746Y011172D01*
X026725Y011180D01*
X026703Y011184D01*
X026681Y011186D01*
X022559Y012335D02*
X022559Y012951D01*
X022557Y012973D01*
X022553Y012995D01*
X022545Y013016D01*
X022534Y013036D01*
X022521Y013054D01*
X022505Y013070D01*
X022487Y013083D01*
X022467Y013094D01*
X022446Y013102D01*
X022424Y013106D01*
X022402Y013108D01*
X020803Y013108D01*
X020781Y013106D01*
X020759Y013102D01*
X020738Y013094D01*
X020718Y013083D01*
X020700Y013070D01*
X020684Y013054D01*
X020671Y013036D01*
X020660Y013016D01*
X020652Y012995D01*
X020648Y012973D01*
X020646Y012951D01*
X020646Y012335D01*
X020648Y012313D01*
X020652Y012291D01*
X020660Y012270D01*
X020671Y012250D01*
X020684Y012232D01*
X020700Y012216D01*
X020718Y012203D01*
X020738Y012192D01*
X020759Y012184D01*
X020781Y012180D01*
X020803Y012178D01*
X020803Y012177D02*
X022402Y012177D01*
X022402Y012178D02*
X022424Y012180D01*
X022446Y012184D01*
X022467Y012192D01*
X022487Y012203D01*
X022505Y012216D01*
X022521Y012232D01*
X022534Y012250D01*
X022545Y012270D01*
X022553Y012291D01*
X022557Y012313D01*
X022559Y012335D01*
X021996Y011186D02*
X019004Y011186D01*
X018982Y011184D01*
X018960Y011180D01*
X018939Y011172D01*
X018919Y011161D01*
X018901Y011148D01*
X018885Y011132D01*
X018872Y011114D01*
X018861Y011094D01*
X018853Y011073D01*
X018849Y011051D01*
X018847Y011029D01*
X018846Y011029D02*
X018846Y010162D01*
X018847Y010162D02*
X018849Y010140D01*
X018853Y010118D01*
X018861Y010097D01*
X018872Y010077D01*
X018885Y010059D01*
X018901Y010043D01*
X018919Y010030D01*
X018939Y010019D01*
X018960Y010011D01*
X018982Y010007D01*
X019004Y010005D01*
X021996Y010005D01*
X022018Y010007D01*
X022040Y010011D01*
X022061Y010019D01*
X022081Y010030D01*
X022099Y010043D01*
X022115Y010059D01*
X022128Y010077D01*
X022139Y010097D01*
X022147Y010118D01*
X022151Y010140D01*
X022153Y010162D01*
X022154Y010162D02*
X022154Y011029D01*
X022153Y011029D02*
X022151Y011051D01*
X022147Y011073D01*
X022139Y011094D01*
X022128Y011114D01*
X022115Y011132D01*
X022099Y011148D01*
X022081Y011161D01*
X022061Y011172D01*
X022040Y011180D01*
X022018Y011184D01*
X021996Y011186D01*
X020354Y012335D02*
X020354Y012951D01*
X020352Y012973D01*
X020348Y012995D01*
X020340Y013016D01*
X020329Y013036D01*
X020316Y013054D01*
X020300Y013070D01*
X020282Y013083D01*
X020262Y013094D01*
X020241Y013102D01*
X020219Y013106D01*
X020197Y013108D01*
X018598Y013108D01*
X018576Y013106D01*
X018554Y013102D01*
X018533Y013094D01*
X018513Y013083D01*
X018495Y013070D01*
X018479Y013054D01*
X018466Y013036D01*
X018455Y013016D01*
X018447Y012995D01*
X018443Y012973D01*
X018441Y012951D01*
X018441Y012335D01*
X018443Y012313D01*
X018447Y012291D01*
X018455Y012270D01*
X018466Y012250D01*
X018479Y012232D01*
X018495Y012216D01*
X018513Y012203D01*
X018533Y012192D01*
X018554Y012184D01*
X018576Y012180D01*
X018598Y012178D01*
X018598Y012177D02*
X020197Y012177D01*
X020197Y012178D02*
X020219Y012180D01*
X020241Y012184D01*
X020262Y012192D01*
X020282Y012203D01*
X020300Y012216D01*
X020316Y012232D01*
X020329Y012250D01*
X020340Y012270D01*
X020348Y012291D01*
X020352Y012313D01*
X020354Y012335D01*
X017469Y011029D02*
X017469Y010162D01*
X017468Y010162D02*
X017466Y010140D01*
X017462Y010118D01*
X017454Y010097D01*
X017443Y010077D01*
X017430Y010059D01*
X017414Y010043D01*
X017396Y010030D01*
X017376Y010019D01*
X017355Y010011D01*
X017333Y010007D01*
X017311Y010005D01*
X014319Y010005D01*
X014297Y010007D01*
X014275Y010011D01*
X014254Y010019D01*
X014234Y010030D01*
X014216Y010043D01*
X014200Y010059D01*
X014187Y010077D01*
X014176Y010097D01*
X014168Y010118D01*
X014164Y010140D01*
X014162Y010162D01*
X014161Y010162D02*
X014161Y011029D01*
X014162Y011029D02*
X014164Y011051D01*
X014168Y011073D01*
X014176Y011094D01*
X014187Y011114D01*
X014200Y011132D01*
X014216Y011148D01*
X014234Y011161D01*
X014254Y011172D01*
X014275Y011180D01*
X014297Y011184D01*
X014319Y011186D01*
X017311Y011186D01*
X017333Y011184D01*
X017355Y011180D01*
X017376Y011172D01*
X017396Y011161D01*
X017414Y011148D01*
X017430Y011132D01*
X017443Y011114D01*
X017454Y011094D01*
X017462Y011073D01*
X017466Y011051D01*
X017468Y011029D01*
X016386Y011619D02*
X016386Y012013D01*
X016382Y012036D01*
X016375Y012058D01*
X016365Y012079D01*
X016352Y012098D01*
X016335Y012114D01*
X016317Y012128D01*
X016296Y012139D01*
X016274Y012146D01*
X016251Y012150D01*
X016228Y012151D01*
X015402Y012151D01*
X015379Y012150D01*
X015356Y012146D01*
X015334Y012139D01*
X015313Y012128D01*
X015295Y012114D01*
X015278Y012098D01*
X015265Y012079D01*
X015255Y012058D01*
X015248Y012036D01*
X015244Y012013D01*
X015244Y011619D01*
X015248Y011596D01*
X015255Y011574D01*
X015265Y011553D01*
X015278Y011534D01*
X015295Y011518D01*
X015313Y011504D01*
X015334Y011493D01*
X015356Y011486D01*
X015379Y011482D01*
X015402Y011481D01*
X016228Y011481D01*
X016251Y011482D01*
X016274Y011486D01*
X016296Y011493D01*
X016317Y011504D01*
X016335Y011518D01*
X016352Y011534D01*
X016365Y011553D01*
X016375Y011574D01*
X016382Y011596D01*
X016386Y011619D01*
X016228Y012544D02*
X015402Y012544D01*
X015379Y012545D01*
X015356Y012549D01*
X015334Y012556D01*
X015313Y012567D01*
X015295Y012581D01*
X015278Y012597D01*
X015265Y012616D01*
X015255Y012637D01*
X015248Y012659D01*
X015244Y012682D01*
X015244Y013076D01*
X015248Y013099D01*
X015255Y013121D01*
X015265Y013142D01*
X015278Y013161D01*
X015295Y013177D01*
X015313Y013191D01*
X015334Y013202D01*
X015356Y013209D01*
X015379Y013213D01*
X015402Y013214D01*
X016228Y013214D01*
X016251Y013213D01*
X016274Y013209D01*
X016296Y013202D01*
X016317Y013191D01*
X016335Y013177D01*
X016352Y013161D01*
X016365Y013142D01*
X016375Y013121D01*
X016382Y013099D01*
X016386Y013076D01*
X016386Y012682D01*
X016382Y012659D01*
X016375Y012637D01*
X016365Y012616D01*
X016352Y012597D01*
X016335Y012581D01*
X016317Y012567D01*
X016296Y012556D01*
X016274Y012549D01*
X016251Y012545D01*
X016228Y012544D01*
X013118Y011678D02*
X013118Y009237D01*
X013116Y009215D01*
X013112Y009193D01*
X013104Y009172D01*
X013093Y009152D01*
X013080Y009134D01*
X013064Y009118D01*
X013046Y009105D01*
X013026Y009094D01*
X013005Y009086D01*
X012983Y009082D01*
X012961Y009080D01*
X008394Y009080D01*
X008372Y009082D01*
X008350Y009086D01*
X008329Y009094D01*
X008309Y009105D01*
X008291Y009118D01*
X008275Y009134D01*
X008262Y009152D01*
X008251Y009172D01*
X008243Y009193D01*
X008239Y009215D01*
X008237Y009237D01*
X008236Y009237D02*
X008236Y011678D01*
X008237Y011678D02*
X008239Y011700D01*
X008243Y011722D01*
X008251Y011743D01*
X008262Y011763D01*
X008275Y011781D01*
X008291Y011797D01*
X008309Y011810D01*
X008329Y011821D01*
X008350Y011829D01*
X008372Y011833D01*
X008394Y011835D01*
X008394Y011836D02*
X012961Y011836D01*
X012961Y011835D02*
X012983Y011833D01*
X013005Y011829D01*
X013026Y011821D01*
X013046Y011810D01*
X013064Y011797D01*
X013080Y011781D01*
X013093Y011763D01*
X013104Y011743D01*
X013112Y011722D01*
X013116Y011700D01*
X013118Y011678D01*
X011051Y013666D02*
X011051Y013764D01*
X011051Y013763D02*
X011078Y013765D01*
X011104Y013771D01*
X011129Y013780D01*
X011153Y013793D01*
X011174Y013809D01*
X011193Y013828D01*
X011209Y013849D01*
X011222Y013873D01*
X011231Y013898D01*
X011237Y013924D01*
X011239Y013951D01*
X011237Y013978D01*
X011231Y014004D01*
X011222Y014029D01*
X011209Y014053D01*
X011193Y014074D01*
X011174Y014093D01*
X011153Y014109D01*
X011129Y014122D01*
X011104Y014131D01*
X011078Y014137D01*
X011051Y014139D01*
X009476Y014139D02*
X009478Y014218D01*
X009484Y014297D01*
X009494Y014376D01*
X009508Y014454D01*
X009525Y014531D01*
X009547Y014607D01*
X009572Y014682D01*
X009602Y014755D01*
X009634Y014827D01*
X009671Y014898D01*
X009711Y014966D01*
X009754Y015032D01*
X009800Y015096D01*
X009850Y015158D01*
X009903Y015217D01*
X009958Y015273D01*
X010017Y015327D01*
X010078Y015377D01*
X010141Y015425D01*
X010207Y015469D01*
X010275Y015510D01*
X010345Y015547D01*
X010416Y015581D01*
X010490Y015611D01*
X010564Y015637D01*
X010640Y015659D01*
X010717Y015678D01*
X010795Y015693D01*
X010873Y015704D01*
X010952Y015711D01*
X011031Y015714D01*
X011110Y015713D01*
X011189Y015708D01*
X011268Y015699D01*
X011346Y015686D01*
X011423Y015669D01*
X011500Y015649D01*
X011575Y015624D01*
X011649Y015596D01*
X011722Y015564D01*
X011792Y015529D01*
X011861Y015490D01*
X011928Y015447D01*
X011993Y015401D01*
X012055Y015353D01*
X012115Y015301D01*
X012172Y015246D01*
X012226Y015188D01*
X012277Y015128D01*
X012325Y015065D01*
X012370Y015000D01*
X012412Y014932D01*
X012450Y014863D01*
X012484Y014792D01*
X012515Y014719D01*
X012543Y014644D01*
X012566Y014569D01*
X012586Y014492D01*
X012602Y014415D01*
X012614Y014336D01*
X012622Y014258D01*
X012626Y014179D01*
X012626Y014099D01*
X012622Y014020D01*
X012614Y013942D01*
X012602Y013863D01*
X012586Y013786D01*
X012566Y013709D01*
X012543Y013634D01*
X012515Y013559D01*
X012484Y013486D01*
X012450Y013415D01*
X012412Y013346D01*
X012370Y013278D01*
X012325Y013213D01*
X012277Y013150D01*
X012226Y013090D01*
X012172Y013032D01*
X012115Y012977D01*
X012055Y012925D01*
X011993Y012877D01*
X011928Y012831D01*
X011861Y012788D01*
X011792Y012749D01*
X011722Y012714D01*
X011649Y012682D01*
X011575Y012654D01*
X011500Y012629D01*
X011423Y012609D01*
X011346Y012592D01*
X011268Y012579D01*
X011189Y012570D01*
X011110Y012565D01*
X011031Y012564D01*
X010952Y012567D01*
X010873Y012574D01*
X010795Y012585D01*
X010717Y012600D01*
X010640Y012619D01*
X010564Y012641D01*
X010490Y012667D01*
X010416Y012697D01*
X010345Y012731D01*
X010275Y012768D01*
X010207Y012809D01*
X010141Y012853D01*
X010078Y012901D01*
X010017Y012951D01*
X009958Y013005D01*
X009903Y013061D01*
X009850Y013120D01*
X009800Y013182D01*
X009754Y013246D01*
X009711Y013312D01*
X009671Y013380D01*
X009634Y013451D01*
X009602Y013523D01*
X009572Y013596D01*
X009547Y013671D01*
X009525Y013747D01*
X009508Y013824D01*
X009494Y013902D01*
X009484Y013981D01*
X009478Y014060D01*
X009476Y014139D01*
X011051Y014138D02*
X011078Y014140D01*
X011104Y014146D01*
X011129Y014155D01*
X011153Y014168D01*
X011174Y014184D01*
X011193Y014203D01*
X011209Y014224D01*
X011222Y014248D01*
X011231Y014273D01*
X011237Y014299D01*
X011239Y014326D01*
X011237Y014353D01*
X011231Y014379D01*
X011222Y014404D01*
X011209Y014428D01*
X011193Y014449D01*
X011174Y014468D01*
X011153Y014484D01*
X011129Y014497D01*
X011104Y014506D01*
X011078Y014512D01*
X011051Y014514D01*
X011051Y014611D01*
X007764Y014690D02*
X007764Y014296D01*
X007760Y014273D01*
X007753Y014251D01*
X007743Y014230D01*
X007730Y014211D01*
X007713Y014195D01*
X007695Y014181D01*
X007674Y014170D01*
X007652Y014163D01*
X007629Y014159D01*
X007606Y014158D01*
X006780Y014158D01*
X006757Y014159D01*
X006734Y014163D01*
X006712Y014170D01*
X006691Y014181D01*
X006673Y014195D01*
X006656Y014211D01*
X006643Y014230D01*
X006633Y014251D01*
X006626Y014273D01*
X006622Y014296D01*
X006622Y014690D01*
X006626Y014713D01*
X006633Y014735D01*
X006643Y014756D01*
X006656Y014775D01*
X006673Y014791D01*
X006691Y014805D01*
X006712Y014816D01*
X006734Y014823D01*
X006757Y014827D01*
X006780Y014828D01*
X007606Y014828D01*
X007629Y014827D01*
X007652Y014823D01*
X007674Y014816D01*
X007695Y014805D01*
X007713Y014791D01*
X007730Y014775D01*
X007743Y014756D01*
X007753Y014735D01*
X007760Y014713D01*
X007764Y014690D01*
X007809Y015231D02*
X006577Y015231D01*
X006553Y015236D01*
X006529Y015243D01*
X006507Y015254D01*
X006486Y015268D01*
X006467Y015285D01*
X006451Y015304D01*
X006438Y015325D01*
X006427Y015348D01*
X006420Y015372D01*
X006416Y015396D01*
X006465Y016166D02*
X006469Y016178D01*
X006476Y016189D01*
X006486Y016198D01*
X006498Y016203D01*
X006511Y016206D01*
X006524Y016205D01*
X006524Y016206D02*
X007862Y016206D01*
X007862Y016205D02*
X007875Y016206D01*
X007888Y016203D01*
X007900Y016198D01*
X007910Y016189D01*
X007917Y016178D01*
X007921Y016166D01*
X007606Y016757D02*
X006780Y016757D01*
X006757Y016758D01*
X006734Y016762D01*
X006712Y016769D01*
X006691Y016780D01*
X006673Y016794D01*
X006656Y016810D01*
X006643Y016829D01*
X006633Y016850D01*
X006626Y016872D01*
X006622Y016895D01*
X006622Y017288D01*
X006622Y017289D02*
X006626Y017312D01*
X006633Y017334D01*
X006643Y017355D01*
X006656Y017374D01*
X006673Y017390D01*
X006691Y017404D01*
X006712Y017415D01*
X006734Y017422D01*
X006757Y017426D01*
X006780Y017427D01*
X006780Y017426D02*
X007606Y017426D01*
X007606Y017427D02*
X007629Y017426D01*
X007652Y017422D01*
X007674Y017415D01*
X007695Y017404D01*
X007713Y017390D01*
X007730Y017374D01*
X007743Y017355D01*
X007753Y017334D01*
X007760Y017312D01*
X007764Y017289D01*
X007764Y017288D02*
X007764Y016895D01*
X007760Y016872D01*
X007753Y016850D01*
X007743Y016829D01*
X007730Y016810D01*
X007713Y016794D01*
X007695Y016780D01*
X007674Y016769D01*
X007652Y016762D01*
X007629Y016758D01*
X007606Y016757D01*
X007843Y017977D02*
X008669Y017977D01*
X008692Y017978D01*
X008715Y017982D01*
X008737Y017989D01*
X008758Y018000D01*
X008776Y018014D01*
X008793Y018030D01*
X008806Y018049D01*
X008816Y018070D01*
X008823Y018092D01*
X008827Y018115D01*
X008827Y018509D01*
X008823Y018532D01*
X008816Y018554D01*
X008806Y018575D01*
X008793Y018594D01*
X008776Y018610D01*
X008758Y018624D01*
X008737Y018635D01*
X008715Y018642D01*
X008692Y018646D01*
X008669Y018647D01*
X007843Y018647D01*
X007820Y018646D01*
X007797Y018642D01*
X007775Y018635D01*
X007754Y018624D01*
X007736Y018610D01*
X007719Y018594D01*
X007706Y018575D01*
X007696Y018554D01*
X007689Y018532D01*
X007685Y018509D01*
X007685Y018115D01*
X007689Y018092D01*
X007696Y018070D01*
X007706Y018049D01*
X007719Y018030D01*
X007736Y018014D01*
X007754Y018000D01*
X007775Y017989D01*
X007797Y017982D01*
X007820Y017978D01*
X007843Y017977D01*
X006215Y017969D02*
X006215Y018048D01*
X006215Y017969D02*
X006096Y017851D01*
X005467Y017851D01*
X005348Y017969D01*
X005348Y018048D01*
X005348Y018737D02*
X005348Y019052D01*
X005348Y019737D02*
X005348Y020052D01*
X005348Y020741D02*
X005348Y020820D01*
X005467Y020938D01*
X006096Y020938D01*
X006215Y020820D01*
X006215Y020741D01*
X006215Y020052D02*
X006215Y019737D01*
X006215Y019052D02*
X006215Y018737D01*
X007640Y019601D02*
X008872Y019601D01*
X008896Y019606D01*
X008920Y019613D01*
X008942Y019624D01*
X008963Y019638D01*
X008982Y019655D01*
X008998Y019674D01*
X009011Y019695D01*
X009022Y019718D01*
X009029Y019742D01*
X009033Y019766D01*
X008984Y020537D02*
X008980Y020549D01*
X008973Y020560D01*
X008963Y020569D01*
X008951Y020574D01*
X008938Y020577D01*
X008925Y020576D01*
X007587Y020576D01*
X007574Y020577D01*
X007561Y020574D01*
X007549Y020569D01*
X007539Y020560D01*
X007532Y020549D01*
X007528Y020537D01*
X007479Y019766D02*
X007483Y019742D01*
X007490Y019718D01*
X007501Y019695D01*
X007514Y019674D01*
X007530Y019655D01*
X007549Y019638D01*
X007570Y019624D01*
X007592Y019613D01*
X007616Y019606D01*
X007640Y019601D01*
X007331Y021619D02*
X008394Y021619D01*
X008394Y021620D02*
X008411Y021621D01*
X008428Y021626D01*
X008443Y021633D01*
X008457Y021643D01*
X008469Y021655D01*
X008479Y021669D01*
X008486Y021684D01*
X008491Y021701D01*
X008492Y021718D01*
X008492Y022151D01*
X008491Y022168D01*
X008486Y022185D01*
X008479Y022200D01*
X008469Y022214D01*
X008457Y022226D01*
X008443Y022236D01*
X008428Y022243D01*
X008411Y022248D01*
X008394Y022249D01*
X007331Y022249D01*
X007314Y022248D01*
X007297Y022243D01*
X007282Y022236D01*
X007268Y022226D01*
X007256Y022214D01*
X007246Y022200D01*
X007239Y022185D01*
X007234Y022168D01*
X007233Y022151D01*
X007232Y022151D02*
X007232Y021718D01*
X007233Y021718D02*
X007234Y021701D01*
X007239Y021684D01*
X007246Y021669D01*
X007256Y021655D01*
X007268Y021643D01*
X007282Y021633D01*
X007297Y021626D01*
X007314Y021621D01*
X007331Y021620D01*
X007252Y024178D02*
X007254Y024247D01*
X007260Y024316D01*
X007270Y024385D01*
X007284Y024452D01*
X007302Y024519D01*
X007323Y024585D01*
X007348Y024650D01*
X007377Y024712D01*
X007410Y024773D01*
X007446Y024833D01*
X007485Y024890D01*
X007528Y024944D01*
X007574Y024996D01*
X007622Y025045D01*
X007674Y025092D01*
X007728Y025135D01*
X007784Y025175D01*
X007843Y025212D01*
X007903Y025246D01*
X007966Y025276D01*
X008030Y025302D01*
X008095Y025324D01*
X008162Y025343D01*
X008229Y025358D01*
X008298Y025369D01*
X008367Y025376D01*
X008436Y025379D01*
X008505Y025378D01*
X008574Y025373D01*
X008643Y025364D01*
X008711Y025351D01*
X008778Y025334D01*
X008844Y025314D01*
X008909Y025289D01*
X008972Y025261D01*
X009033Y025229D01*
X009093Y025194D01*
X009151Y025156D01*
X009206Y025114D01*
X009258Y025069D01*
X009308Y025021D01*
X009355Y024970D01*
X009400Y024917D01*
X009441Y024861D01*
X009478Y024803D01*
X009513Y024743D01*
X009543Y024681D01*
X009571Y024618D01*
X009594Y024552D01*
X009614Y024486D01*
X009630Y024419D01*
X009642Y024350D01*
X009650Y024282D01*
X009654Y024213D01*
X009654Y024143D01*
X009650Y024074D01*
X009642Y024006D01*
X009630Y023937D01*
X009614Y023870D01*
X009594Y023804D01*
X009571Y023738D01*
X009543Y023675D01*
X009513Y023613D01*
X009478Y023553D01*
X009441Y023495D01*
X009400Y023439D01*
X009355Y023386D01*
X009308Y023335D01*
X009258Y023287D01*
X009206Y023242D01*
X009151Y023200D01*
X009093Y023162D01*
X009033Y023127D01*
X008972Y023095D01*
X008909Y023067D01*
X008844Y023042D01*
X008778Y023022D01*
X008711Y023005D01*
X008643Y022992D01*
X008574Y022983D01*
X008505Y022978D01*
X008436Y022977D01*
X008367Y022980D01*
X008298Y022987D01*
X008229Y022998D01*
X008162Y023013D01*
X008095Y023032D01*
X008030Y023054D01*
X007966Y023080D01*
X007903Y023110D01*
X007843Y023144D01*
X007784Y023181D01*
X007728Y023221D01*
X007674Y023264D01*
X007622Y023311D01*
X007574Y023360D01*
X007528Y023412D01*
X007485Y023466D01*
X007446Y023523D01*
X007410Y023583D01*
X007377Y023644D01*
X007348Y023706D01*
X007323Y023771D01*
X007302Y023837D01*
X007284Y023904D01*
X007270Y023971D01*
X007260Y024040D01*
X007254Y024109D01*
X007252Y024178D01*
X007783Y024572D02*
X007783Y024887D01*
X007626Y024729D02*
X007941Y024729D01*
X007567Y026127D02*
X006740Y026127D01*
X006717Y026128D01*
X006694Y026132D01*
X006672Y026139D01*
X006651Y026150D01*
X006633Y026164D01*
X006616Y026180D01*
X006603Y026199D01*
X006593Y026220D01*
X006586Y026242D01*
X006582Y026265D01*
X006583Y026265D02*
X006583Y026658D01*
X006582Y026659D02*
X006586Y026682D01*
X006593Y026704D01*
X006603Y026725D01*
X006616Y026744D01*
X006633Y026760D01*
X006651Y026774D01*
X006672Y026785D01*
X006694Y026792D01*
X006717Y026796D01*
X006740Y026797D01*
X006740Y026796D02*
X007567Y026796D01*
X007567Y026797D02*
X007590Y026796D01*
X007613Y026792D01*
X007635Y026785D01*
X007656Y026774D01*
X007674Y026760D01*
X007691Y026744D01*
X007704Y026725D01*
X007714Y026704D01*
X007721Y026682D01*
X007725Y026659D01*
X007724Y026658D02*
X007724Y026265D01*
X007725Y026265D02*
X007721Y026242D01*
X007714Y026220D01*
X007704Y026199D01*
X007691Y026180D01*
X007674Y026164D01*
X007656Y026150D01*
X007635Y026139D01*
X007613Y026132D01*
X007590Y026128D01*
X007567Y026127D01*
X008810Y027531D02*
X009161Y027531D01*
X008810Y027532D02*
X008788Y027534D01*
X008766Y027538D01*
X008745Y027546D01*
X008725Y027557D01*
X008707Y027570D01*
X008691Y027586D01*
X008678Y027604D01*
X008667Y027624D01*
X008659Y027645D01*
X008655Y027667D01*
X008653Y027689D01*
X008652Y027689D02*
X008652Y029959D01*
X008653Y029959D02*
X008655Y029981D01*
X008659Y030003D01*
X008667Y030024D01*
X008678Y030044D01*
X008691Y030062D01*
X008707Y030078D01*
X008725Y030091D01*
X008745Y030102D01*
X008766Y030110D01*
X008788Y030114D01*
X008810Y030116D01*
X009161Y030116D01*
X008717Y030622D02*
X010315Y030622D01*
X010315Y030623D02*
X010337Y030625D01*
X010359Y030629D01*
X010380Y030637D01*
X010400Y030648D01*
X010418Y030661D01*
X010434Y030677D01*
X010447Y030695D01*
X010458Y030715D01*
X010466Y030736D01*
X010470Y030758D01*
X010472Y030780D01*
X010472Y031396D01*
X010470Y031418D01*
X010466Y031440D01*
X010458Y031461D01*
X010447Y031481D01*
X010434Y031499D01*
X010418Y031515D01*
X010400Y031528D01*
X010380Y031539D01*
X010359Y031547D01*
X010337Y031551D01*
X010315Y031553D01*
X008717Y031553D01*
X008695Y031551D01*
X008673Y031547D01*
X008652Y031539D01*
X008632Y031528D01*
X008614Y031515D01*
X008598Y031499D01*
X008585Y031481D01*
X008574Y031461D01*
X008566Y031440D01*
X008562Y031418D01*
X008560Y031396D01*
X008559Y031396D02*
X008559Y030780D01*
X008560Y030780D02*
X008562Y030758D01*
X008566Y030736D01*
X008574Y030715D01*
X008585Y030695D01*
X008598Y030677D01*
X008614Y030661D01*
X008632Y030648D01*
X008652Y030637D01*
X008673Y030629D01*
X008695Y030625D01*
X008717Y030623D01*
X009870Y030116D02*
X010222Y030116D01*
X010244Y030114D01*
X010266Y030110D01*
X010287Y030102D01*
X010307Y030091D01*
X010325Y030078D01*
X010341Y030062D01*
X010354Y030044D01*
X010365Y030024D01*
X010373Y030003D01*
X010377Y029981D01*
X010379Y029959D01*
X010379Y027689D01*
X010377Y027667D01*
X010373Y027645D01*
X010365Y027624D01*
X010354Y027604D01*
X010341Y027586D01*
X010325Y027570D01*
X010307Y027557D01*
X010287Y027546D01*
X010266Y027538D01*
X010244Y027534D01*
X010222Y027532D01*
X010222Y027531D02*
X009870Y027531D01*
X010756Y026658D02*
X010756Y026265D01*
X010760Y026242D01*
X010767Y026220D01*
X010777Y026199D01*
X010790Y026180D01*
X010807Y026164D01*
X010825Y026150D01*
X010846Y026139D01*
X010868Y026132D01*
X010891Y026128D01*
X010914Y026127D01*
X010913Y026127D02*
X011740Y026127D01*
X011763Y026128D01*
X011786Y026132D01*
X011808Y026139D01*
X011829Y026150D01*
X011847Y026164D01*
X011864Y026180D01*
X011877Y026199D01*
X011887Y026220D01*
X011894Y026242D01*
X011898Y026265D01*
X011898Y026658D01*
X011898Y026659D02*
X011894Y026682D01*
X011887Y026704D01*
X011877Y026725D01*
X011864Y026744D01*
X011847Y026760D01*
X011829Y026774D01*
X011808Y026785D01*
X011786Y026792D01*
X011763Y026796D01*
X011740Y026797D01*
X011740Y026796D02*
X010913Y026796D01*
X010914Y026797D02*
X010891Y026796D01*
X010868Y026792D01*
X010846Y026785D01*
X010825Y026774D01*
X010807Y026760D01*
X010790Y026744D01*
X010777Y026725D01*
X010767Y026704D01*
X010760Y026682D01*
X010756Y026659D01*
X011173Y027466D02*
X011173Y028363D01*
X011173Y029021D01*
X011173Y029020D02*
X011212Y029022D01*
X011250Y029028D01*
X011287Y029037D01*
X011324Y029050D01*
X011359Y029067D01*
X011392Y029086D01*
X011423Y029109D01*
X011452Y029135D01*
X011478Y029164D01*
X011501Y029195D01*
X011520Y029228D01*
X011537Y029263D01*
X011550Y029300D01*
X011559Y029337D01*
X011565Y029375D01*
X011567Y029414D01*
X011565Y029453D01*
X011559Y029491D01*
X011550Y029528D01*
X011537Y029565D01*
X011520Y029600D01*
X011501Y029633D01*
X011478Y029664D01*
X011452Y029693D01*
X011423Y029719D01*
X011392Y029742D01*
X011359Y029761D01*
X011324Y029778D01*
X011287Y029791D01*
X011250Y029800D01*
X011212Y029806D01*
X011173Y029808D01*
X011173Y030466D01*
X015063Y030466D01*
X015063Y028363D01*
X015063Y027466D01*
X011173Y027466D01*
X011173Y028363D02*
X015063Y028363D01*
X016366Y028922D02*
X016583Y028922D01*
X020008Y028922D01*
X020224Y028922D01*
X020224Y028962D02*
X020224Y029139D01*
X020224Y030536D01*
X020225Y030536D02*
X020223Y030567D01*
X020218Y030597D01*
X020210Y030627D01*
X020198Y030656D01*
X020183Y030683D01*
X020165Y030708D01*
X020144Y030731D01*
X020121Y030752D01*
X020096Y030770D01*
X020069Y030785D01*
X020040Y030797D01*
X020010Y030805D01*
X019980Y030810D01*
X019949Y030812D01*
X016642Y030812D01*
X016611Y030810D01*
X016581Y030805D01*
X016551Y030797D01*
X016522Y030785D01*
X016495Y030770D01*
X016470Y030752D01*
X016447Y030731D01*
X016426Y030708D01*
X016408Y030683D01*
X016393Y030656D01*
X016381Y030627D01*
X016373Y030597D01*
X016368Y030567D01*
X016366Y030536D01*
X016366Y029139D01*
X016366Y028962D01*
X016425Y028903D02*
X016583Y028745D01*
X017449Y028745D01*
X017449Y028903D01*
X016425Y028903D01*
X016488Y028839D02*
X017449Y028839D01*
X017449Y028761D02*
X016567Y028761D01*
X016642Y028686D02*
X017508Y028686D01*
X017508Y028922D01*
X017508Y028686D02*
X017508Y028292D01*
X019083Y028292D01*
X019083Y028686D01*
X019083Y028922D01*
X019142Y028903D02*
X019142Y028745D01*
X020008Y028745D01*
X020165Y028903D01*
X019142Y028903D01*
X019142Y028839D02*
X020102Y028839D01*
X020024Y028761D02*
X019142Y028761D01*
X019083Y028686D02*
X019949Y028686D01*
X019980Y028688D01*
X020010Y028693D01*
X020040Y028701D01*
X020069Y028713D01*
X020096Y028728D01*
X020121Y028746D01*
X020144Y028767D01*
X020165Y028790D01*
X020183Y028815D01*
X020198Y028842D01*
X020210Y028871D01*
X020218Y028901D01*
X020223Y028931D01*
X020225Y028962D01*
X020225Y029139D02*
X020223Y029111D01*
X020218Y029083D01*
X020208Y029056D01*
X020196Y029031D01*
X020180Y029007D01*
X020161Y028986D01*
X020140Y028967D01*
X020117Y028951D01*
X020091Y028939D01*
X020064Y028929D01*
X020036Y028924D01*
X020008Y028922D01*
X019840Y030447D02*
X019842Y030467D01*
X019848Y030485D01*
X019857Y030503D01*
X019869Y030518D01*
X019884Y030530D01*
X019902Y030539D01*
X019920Y030545D01*
X019940Y030547D01*
X019960Y030545D01*
X019978Y030539D01*
X019996Y030530D01*
X020011Y030518D01*
X020023Y030503D01*
X020032Y030485D01*
X020038Y030467D01*
X020040Y030447D01*
X020038Y030427D01*
X020032Y030409D01*
X020023Y030391D01*
X020011Y030376D01*
X019996Y030364D01*
X019978Y030355D01*
X019960Y030349D01*
X019940Y030347D01*
X019920Y030349D01*
X019902Y030355D01*
X019884Y030364D01*
X019869Y030376D01*
X019857Y030391D01*
X019848Y030409D01*
X019842Y030427D01*
X019840Y030447D01*
X018754Y031993D02*
X018669Y032111D01*
X018669Y032446D01*
X018669Y032781D01*
X018596Y032899D01*
X018669Y032446D02*
X018256Y032446D01*
X018669Y032446D02*
X019226Y032859D01*
X019226Y032446D01*
X019575Y032446D01*
X019226Y032446D02*
X019226Y032032D01*
X018669Y032446D01*
X016405Y032446D02*
X016407Y032506D01*
X016413Y032565D01*
X016423Y032625D01*
X016437Y032683D01*
X016454Y032740D01*
X016475Y032796D01*
X016500Y032851D01*
X016529Y032903D01*
X016561Y032954D01*
X016596Y033002D01*
X016634Y033049D01*
X016676Y033092D01*
X016720Y033132D01*
X016766Y033170D01*
X016815Y033204D01*
X016867Y033236D01*
X016920Y033263D01*
X016975Y033287D01*
X017031Y033308D01*
X017089Y033324D01*
X017147Y033337D01*
X017206Y033346D01*
X017266Y033351D01*
X017326Y033352D01*
X017386Y033349D01*
X017445Y033342D01*
X017504Y033331D01*
X017562Y033316D01*
X017619Y033298D01*
X017675Y033276D01*
X017729Y033250D01*
X017781Y033220D01*
X017831Y033188D01*
X017879Y033152D01*
X017925Y033113D01*
X017967Y033071D01*
X018007Y033026D01*
X018044Y032979D01*
X018078Y032929D01*
X018108Y032877D01*
X018135Y032824D01*
X018158Y032768D01*
X018177Y032712D01*
X018193Y032654D01*
X018205Y032595D01*
X018213Y032536D01*
X018217Y032476D01*
X018217Y032416D01*
X018213Y032356D01*
X018205Y032297D01*
X018193Y032238D01*
X018177Y032180D01*
X018158Y032124D01*
X018135Y032068D01*
X018108Y032015D01*
X018078Y031963D01*
X018044Y031913D01*
X018007Y031866D01*
X017967Y031821D01*
X017925Y031779D01*
X017879Y031740D01*
X017831Y031704D01*
X017781Y031672D01*
X017729Y031642D01*
X017675Y031616D01*
X017619Y031594D01*
X017562Y031576D01*
X017504Y031561D01*
X017445Y031550D01*
X017386Y031543D01*
X017326Y031540D01*
X017266Y031541D01*
X017206Y031546D01*
X017147Y031555D01*
X017089Y031568D01*
X017031Y031584D01*
X016975Y031605D01*
X016920Y031629D01*
X016867Y031656D01*
X016815Y031688D01*
X016766Y031722D01*
X016720Y031760D01*
X016676Y031800D01*
X016634Y031843D01*
X016596Y031890D01*
X016561Y031938D01*
X016529Y031989D01*
X016500Y032041D01*
X016475Y032096D01*
X016454Y032152D01*
X016437Y032209D01*
X016423Y032267D01*
X016413Y032327D01*
X016407Y032386D01*
X016405Y032446D01*
X014988Y032682D02*
X014988Y032210D01*
X014987Y032210D02*
X014982Y032180D01*
X014974Y032151D01*
X014963Y032124D01*
X014948Y032097D01*
X014931Y032073D01*
X014911Y032050D01*
X014889Y032031D01*
X014864Y032013D01*
X014838Y031999D01*
X014811Y031987D01*
X014782Y031979D01*
X014752Y031974D01*
X014722Y031972D01*
X014693Y031974D01*
X014693Y031973D02*
X013394Y031973D01*
X013393Y031974D02*
X013364Y031972D01*
X013334Y031974D01*
X013304Y031979D01*
X013275Y031987D01*
X013248Y031999D01*
X013222Y032013D01*
X013197Y032031D01*
X013175Y032050D01*
X013155Y032073D01*
X013138Y032097D01*
X013123Y032124D01*
X013112Y032151D01*
X013104Y032180D01*
X013099Y032210D01*
X013098Y032210D02*
X013098Y032682D01*
X013099Y032682D02*
X013104Y032712D01*
X013112Y032741D01*
X013123Y032768D01*
X013138Y032795D01*
X013155Y032819D01*
X013175Y032842D01*
X013197Y032861D01*
X013222Y032879D01*
X013248Y032893D01*
X013275Y032905D01*
X013304Y032913D01*
X013334Y032918D01*
X013364Y032920D01*
X013393Y032918D01*
X013394Y032918D02*
X014693Y032918D01*
X014722Y032920D01*
X014752Y032918D01*
X014782Y032913D01*
X014811Y032905D01*
X014838Y032893D01*
X014864Y032879D01*
X014889Y032861D01*
X014911Y032842D01*
X014931Y032819D01*
X014948Y032795D01*
X014963Y032768D01*
X014974Y032741D01*
X014982Y032712D01*
X014987Y032682D01*
X015063Y031363D02*
X015063Y030466D01*
X015063Y031363D02*
X011173Y031363D01*
X011173Y030466D01*
X011189Y031985D02*
X011335Y031985D01*
X011335Y032131D01*
X011335Y032761D02*
X011335Y032906D01*
X011189Y032906D01*
X010441Y032906D02*
X009220Y032906D01*
X008472Y032906D02*
X008327Y032906D01*
X008327Y032761D01*
X008327Y032131D02*
X008327Y031985D01*
X008472Y031985D01*
X009220Y031985D02*
X010441Y031985D01*
X010026Y035210D02*
X009526Y035210D01*
X009526Y035438D01*
X009026Y035438D01*
X009026Y035210D01*
X008799Y035210D01*
X008799Y036371D01*
X009409Y036371D01*
X009409Y038969D01*
X009410Y038970D02*
X009414Y038998D01*
X009422Y039025D01*
X009434Y039051D01*
X009449Y039075D01*
X009467Y039097D01*
X009487Y039117D01*
X009510Y039133D01*
X009535Y039147D01*
X009561Y039157D01*
X009589Y039164D01*
X009617Y039167D01*
X009646Y039166D01*
X011906Y039166D01*
X011905Y039166D02*
X011934Y039167D01*
X011962Y039164D01*
X011990Y039157D01*
X012016Y039147D01*
X012041Y039133D01*
X012064Y039117D01*
X012084Y039097D01*
X012102Y039075D01*
X012117Y039051D01*
X012129Y039025D01*
X012137Y038998D01*
X012141Y038970D01*
X012142Y038969D02*
X012142Y036371D01*
X009409Y036371D01*
X010026Y035438D02*
X011526Y035438D01*
X011526Y035210D01*
X012026Y035210D01*
X012026Y035438D01*
X012526Y035438D01*
X012526Y035210D01*
X012752Y035210D01*
X012752Y036371D01*
X012142Y036371D01*
X013327Y036371D02*
X013327Y035210D01*
X013553Y035210D01*
X013553Y035438D01*
X014053Y035438D01*
X014053Y035210D01*
X014553Y035210D01*
X014553Y035438D01*
X016053Y035438D01*
X016053Y035210D01*
X016553Y035210D01*
X016553Y035438D01*
X017053Y035438D01*
X017053Y035210D01*
X017280Y035210D01*
X017280Y036371D01*
X016669Y036371D01*
X016669Y038969D01*
X016669Y038970D02*
X016665Y038998D01*
X016657Y039025D01*
X016645Y039051D01*
X016630Y039075D01*
X016612Y039097D01*
X016592Y039117D01*
X016569Y039133D01*
X016544Y039147D01*
X016518Y039157D01*
X016490Y039164D01*
X016462Y039167D01*
X016433Y039166D01*
X014173Y039166D01*
X014174Y039166D02*
X014145Y039167D01*
X014117Y039164D01*
X014089Y039157D01*
X014063Y039147D01*
X014038Y039133D01*
X014015Y039117D01*
X013995Y039097D01*
X013977Y039075D01*
X013962Y039051D01*
X013950Y039025D01*
X013942Y038998D01*
X013938Y038970D01*
X013937Y038969D02*
X013937Y036371D01*
X013327Y036371D01*
X013937Y036371D02*
X016669Y036371D01*
X017854Y036371D02*
X017854Y035210D01*
X018081Y035210D01*
X018081Y035438D01*
X018581Y035438D01*
X018581Y035210D01*
X019081Y035210D01*
X019081Y035438D01*
X020581Y035438D01*
X020581Y035210D01*
X021081Y035210D01*
X021081Y035438D01*
X021581Y035438D01*
X021581Y035210D01*
X021807Y035210D01*
X021807Y036371D01*
X021197Y036371D01*
X021197Y038969D01*
X021196Y038970D02*
X021192Y038998D01*
X021184Y039025D01*
X021172Y039051D01*
X021157Y039075D01*
X021139Y039097D01*
X021119Y039117D01*
X021096Y039133D01*
X021071Y039147D01*
X021045Y039157D01*
X021017Y039164D01*
X020989Y039167D01*
X020960Y039166D01*
X020961Y039166D02*
X018701Y039166D01*
X018672Y039167D01*
X018644Y039164D01*
X018616Y039157D01*
X018590Y039147D01*
X018565Y039133D01*
X018542Y039117D01*
X018522Y039097D01*
X018504Y039075D01*
X018489Y039051D01*
X018477Y039025D01*
X018469Y038998D01*
X018465Y038970D01*
X018465Y038969D02*
X018465Y036371D01*
X017854Y036371D01*
X018465Y036371D02*
X021197Y036371D01*
X022382Y036371D02*
X022382Y035210D01*
X022608Y035210D01*
X022608Y035438D01*
X023108Y035438D01*
X023108Y035210D01*
X023608Y035210D01*
X023608Y035438D01*
X025108Y035438D01*
X025108Y035210D01*
X025608Y035210D01*
X025608Y035438D01*
X026108Y035438D01*
X026108Y035210D01*
X026335Y035210D01*
X026335Y036371D01*
X025724Y036371D01*
X025724Y038969D01*
X025724Y038970D02*
X025720Y038998D01*
X025712Y039025D01*
X025700Y039051D01*
X025685Y039075D01*
X025667Y039097D01*
X025647Y039117D01*
X025624Y039133D01*
X025599Y039147D01*
X025573Y039157D01*
X025545Y039164D01*
X025517Y039167D01*
X025488Y039166D01*
X023228Y039166D01*
X023229Y039166D02*
X023200Y039167D01*
X023172Y039164D01*
X023144Y039157D01*
X023118Y039147D01*
X023093Y039133D01*
X023070Y039117D01*
X023050Y039097D01*
X023032Y039075D01*
X023017Y039051D01*
X023005Y039025D01*
X022997Y038998D01*
X022993Y038970D01*
X022992Y038969D02*
X022992Y036371D01*
X022382Y036371D01*
X022992Y036371D02*
X025724Y036371D01*
X026909Y036371D02*
X026909Y035210D01*
X027136Y035210D01*
X027136Y035438D01*
X027636Y035438D01*
X027636Y035210D01*
X028136Y035210D01*
X028136Y035438D01*
X029636Y035438D01*
X029636Y035210D01*
X030136Y035210D01*
X030136Y035438D01*
X030636Y035438D01*
X030636Y035210D01*
X030862Y035210D01*
X030862Y036371D01*
X030252Y036371D01*
X030252Y038969D01*
X030251Y038970D02*
X030247Y038998D01*
X030239Y039025D01*
X030227Y039051D01*
X030212Y039075D01*
X030194Y039097D01*
X030174Y039117D01*
X030151Y039133D01*
X030126Y039147D01*
X030100Y039157D01*
X030072Y039164D01*
X030044Y039167D01*
X030015Y039166D01*
X030016Y039166D02*
X027756Y039166D01*
X027727Y039167D01*
X027699Y039164D01*
X027671Y039157D01*
X027645Y039147D01*
X027620Y039133D01*
X027597Y039117D01*
X027577Y039097D01*
X027559Y039075D01*
X027544Y039051D01*
X027532Y039025D01*
X027524Y038998D01*
X027520Y038970D01*
X027520Y038969D02*
X027520Y036371D01*
X026909Y036371D01*
X027520Y036371D02*
X030252Y036371D01*
X032606Y035332D02*
X036189Y035332D01*
X036189Y039194D01*
X032606Y039194D01*
X032606Y035332D01*
X036610Y034330D02*
X036894Y034330D01*
X036752Y034188D02*
X036752Y034471D01*
X037685Y034664D02*
X037902Y034664D01*
X037902Y034487D01*
X037902Y034664D02*
X038118Y034664D01*
X037902Y034172D02*
X037902Y033995D01*
X037685Y033995D01*
X037902Y033995D02*
X038118Y033995D01*
X038118Y032672D02*
X037902Y032672D01*
X037902Y032495D01*
X037902Y032672D02*
X037685Y032672D01*
X037902Y032180D02*
X037902Y032003D01*
X037685Y032003D01*
X037902Y032003D02*
X038118Y032003D01*
X036894Y032338D02*
X036610Y032338D01*
X036752Y032196D02*
X036752Y032479D01*
X030539Y026225D02*
X030224Y026225D01*
X030382Y026068D02*
X030382Y026383D01*
X029878Y025477D02*
X029835Y025477D01*
X028237Y025477D02*
X028239Y025554D01*
X028245Y025630D01*
X028255Y025706D01*
X028269Y025781D01*
X028286Y025856D01*
X028308Y025929D01*
X028333Y026002D01*
X028363Y026073D01*
X028395Y026142D01*
X028432Y026209D01*
X028471Y026275D01*
X028514Y026338D01*
X028561Y026399D01*
X028610Y026458D01*
X028663Y026514D01*
X028718Y026567D01*
X028776Y026617D01*
X028836Y026664D01*
X028899Y026708D01*
X028964Y026749D01*
X029031Y026786D01*
X029100Y026820D01*
X029170Y026850D01*
X029242Y026876D01*
X029316Y026898D01*
X029390Y026917D01*
X029465Y026932D01*
X029541Y026943D01*
X029617Y026950D01*
X029694Y026953D01*
X029770Y026952D01*
X029847Y026947D01*
X029923Y026938D01*
X029999Y026925D01*
X030073Y026908D01*
X030147Y026888D01*
X030220Y026863D01*
X030291Y026835D01*
X030361Y026803D01*
X030429Y026768D01*
X030495Y026729D01*
X030559Y026687D01*
X030620Y026641D01*
X030680Y026592D01*
X030736Y026541D01*
X030790Y026486D01*
X030841Y026429D01*
X030889Y026369D01*
X030934Y026307D01*
X030975Y026242D01*
X031013Y026176D01*
X031048Y026108D01*
X031078Y026037D01*
X031106Y025966D01*
X031129Y025893D01*
X031149Y025819D01*
X031165Y025744D01*
X031177Y025668D01*
X031185Y025592D01*
X031189Y025515D01*
X031189Y025439D01*
X031185Y025362D01*
X031177Y025286D01*
X031165Y025210D01*
X031149Y025135D01*
X031129Y025061D01*
X031106Y024988D01*
X031078Y024917D01*
X031048Y024846D01*
X031013Y024778D01*
X030975Y024712D01*
X030934Y024647D01*
X030889Y024585D01*
X030841Y024525D01*
X030790Y024468D01*
X030736Y024413D01*
X030680Y024362D01*
X030620Y024313D01*
X030559Y024267D01*
X030495Y024225D01*
X030429Y024186D01*
X030361Y024151D01*
X030291Y024119D01*
X030220Y024091D01*
X030147Y024066D01*
X030073Y024046D01*
X029999Y024029D01*
X029923Y024016D01*
X029847Y024007D01*
X029770Y024002D01*
X029694Y024001D01*
X029617Y024004D01*
X029541Y024011D01*
X029465Y024022D01*
X029390Y024037D01*
X029316Y024056D01*
X029242Y024078D01*
X029170Y024104D01*
X029100Y024134D01*
X029031Y024168D01*
X028964Y024205D01*
X028899Y024246D01*
X028836Y024290D01*
X028776Y024337D01*
X028718Y024387D01*
X028663Y024440D01*
X028610Y024496D01*
X028561Y024555D01*
X028514Y024616D01*
X028471Y024679D01*
X028432Y024745D01*
X028395Y024812D01*
X028363Y024881D01*
X028333Y024952D01*
X028308Y025025D01*
X028286Y025098D01*
X028269Y025173D01*
X028255Y025248D01*
X028245Y025324D01*
X028239Y025400D01*
X028237Y025477D01*
X027445Y025379D02*
X027445Y024481D01*
X027445Y025379D02*
X013555Y025379D01*
X013555Y024481D01*
X014594Y026127D02*
X015421Y026127D01*
X015444Y026128D01*
X015467Y026132D01*
X015489Y026139D01*
X015510Y026150D01*
X015528Y026164D01*
X015545Y026180D01*
X015558Y026199D01*
X015568Y026220D01*
X015575Y026242D01*
X015579Y026265D01*
X015579Y026658D01*
X015579Y026659D02*
X015575Y026682D01*
X015568Y026704D01*
X015558Y026725D01*
X015545Y026744D01*
X015528Y026760D01*
X015510Y026774D01*
X015489Y026785D01*
X015467Y026792D01*
X015444Y026796D01*
X015421Y026797D01*
X015421Y026796D02*
X014594Y026796D01*
X014595Y026797D02*
X014572Y026796D01*
X014549Y026792D01*
X014527Y026785D01*
X014506Y026774D01*
X014488Y026760D01*
X014471Y026744D01*
X014458Y026725D01*
X014448Y026704D01*
X014441Y026682D01*
X014437Y026659D01*
X014437Y026658D02*
X014437Y026265D01*
X014441Y026242D01*
X014448Y026220D01*
X014458Y026199D01*
X014471Y026180D01*
X014488Y026164D01*
X014506Y026150D01*
X014527Y026139D01*
X014549Y026132D01*
X014572Y026128D01*
X014595Y026127D01*
X016823Y026147D02*
X016941Y026029D01*
X017020Y026029D01*
X016823Y026147D02*
X016823Y026777D01*
X016941Y026895D01*
X017020Y026895D01*
X017709Y026895D02*
X018024Y026895D01*
X018709Y026895D02*
X019024Y026895D01*
X019709Y026895D02*
X020024Y026895D01*
X020713Y026895D02*
X020791Y026895D01*
X020909Y026777D01*
X020909Y026147D01*
X020791Y026029D01*
X020713Y026029D01*
X020024Y026029D02*
X019709Y026029D01*
X019024Y026029D02*
X018709Y026029D01*
X018024Y026029D02*
X017709Y026029D01*
X016642Y028686D02*
X016611Y028688D01*
X016581Y028693D01*
X016551Y028701D01*
X016522Y028713D01*
X016495Y028728D01*
X016470Y028746D01*
X016447Y028767D01*
X016426Y028790D01*
X016408Y028815D01*
X016393Y028842D01*
X016381Y028871D01*
X016373Y028901D01*
X016368Y028931D01*
X016366Y028962D01*
X016366Y029139D02*
X016368Y029111D01*
X016373Y029083D01*
X016383Y029056D01*
X016395Y029031D01*
X016411Y029007D01*
X016430Y028986D01*
X016451Y028967D01*
X016475Y028951D01*
X016500Y028939D01*
X016527Y028929D01*
X016555Y028924D01*
X016583Y028922D01*
X019594Y032446D02*
X019596Y032496D01*
X019602Y032546D01*
X019612Y032595D01*
X019626Y032643D01*
X019643Y032690D01*
X019664Y032735D01*
X019689Y032779D01*
X019717Y032820D01*
X019749Y032859D01*
X019783Y032896D01*
X019820Y032930D01*
X019860Y032960D01*
X019902Y032987D01*
X019946Y033011D01*
X019992Y033032D01*
X020039Y033048D01*
X020087Y033061D01*
X020137Y033070D01*
X020186Y033075D01*
X020237Y033076D01*
X020287Y033073D01*
X020336Y033066D01*
X020385Y033055D01*
X020433Y033040D01*
X020479Y033022D01*
X020524Y033000D01*
X020567Y032974D01*
X020608Y032945D01*
X020647Y032913D01*
X020683Y032878D01*
X020715Y032840D01*
X020745Y032800D01*
X020772Y032757D01*
X020795Y032713D01*
X020814Y032667D01*
X020830Y032619D01*
X020842Y032570D01*
X020850Y032521D01*
X020854Y032471D01*
X020854Y032421D01*
X020850Y032371D01*
X020842Y032322D01*
X020830Y032273D01*
X020814Y032225D01*
X020795Y032179D01*
X020772Y032135D01*
X020745Y032092D01*
X020715Y032052D01*
X020683Y032014D01*
X020647Y031979D01*
X020608Y031947D01*
X020567Y031918D01*
X020524Y031892D01*
X020479Y031870D01*
X020433Y031852D01*
X020385Y031837D01*
X020336Y031826D01*
X020287Y031819D01*
X020237Y031816D01*
X020186Y031817D01*
X020137Y031822D01*
X020087Y031831D01*
X020039Y031844D01*
X019992Y031860D01*
X019946Y031881D01*
X019902Y031905D01*
X019860Y031932D01*
X019820Y031962D01*
X019783Y031996D01*
X019749Y032033D01*
X019717Y032072D01*
X019689Y032113D01*
X019664Y032157D01*
X019643Y032202D01*
X019626Y032249D01*
X019612Y032297D01*
X019602Y032346D01*
X019596Y032396D01*
X019594Y032446D01*
X021476Y032761D02*
X021476Y032906D01*
X021622Y032906D01*
X022370Y032906D02*
X023591Y032906D01*
X024339Y032906D02*
X024484Y032906D01*
X024484Y032761D01*
X024484Y032131D02*
X024484Y031985D01*
X024339Y031985D01*
X024185Y031363D02*
X024185Y030466D01*
X024185Y029808D01*
X024224Y029806D01*
X024262Y029800D01*
X024299Y029791D01*
X024336Y029778D01*
X024371Y029761D01*
X024404Y029742D01*
X024435Y029719D01*
X024464Y029693D01*
X024490Y029664D01*
X024513Y029633D01*
X024532Y029600D01*
X024549Y029565D01*
X024562Y029528D01*
X024571Y029491D01*
X024577Y029453D01*
X024579Y029414D01*
X024577Y029375D01*
X024571Y029337D01*
X024562Y029300D01*
X024549Y029263D01*
X024532Y029228D01*
X024513Y029195D01*
X024490Y029164D01*
X024464Y029135D01*
X024435Y029109D01*
X024404Y029086D01*
X024371Y029067D01*
X024336Y029050D01*
X024299Y029037D01*
X024262Y029028D01*
X024224Y029022D01*
X024185Y029020D01*
X024185Y029021D02*
X024185Y028363D01*
X028075Y028363D01*
X028075Y027466D01*
X024185Y027466D01*
X024185Y028363D01*
X023450Y027689D02*
X023450Y029959D01*
X023448Y029981D01*
X023444Y030003D01*
X023436Y030024D01*
X023425Y030044D01*
X023412Y030062D01*
X023396Y030078D01*
X023378Y030091D01*
X023358Y030102D01*
X023337Y030110D01*
X023315Y030114D01*
X023293Y030116D01*
X022941Y030116D01*
X022232Y030116D02*
X021880Y030116D01*
X021858Y030114D01*
X021836Y030110D01*
X021815Y030102D01*
X021795Y030091D01*
X021777Y030078D01*
X021761Y030062D01*
X021748Y030044D01*
X021737Y030024D01*
X021729Y030003D01*
X021725Y029981D01*
X021723Y029959D01*
X021723Y027689D01*
X021725Y027667D01*
X021729Y027645D01*
X021737Y027624D01*
X021748Y027604D01*
X021761Y027586D01*
X021777Y027570D01*
X021795Y027557D01*
X021815Y027546D01*
X021836Y027538D01*
X021858Y027534D01*
X021880Y027532D01*
X021880Y027531D02*
X022232Y027531D01*
X022941Y027531D02*
X023293Y027531D01*
X023293Y027532D02*
X023315Y027534D01*
X023337Y027538D01*
X023358Y027546D01*
X023378Y027557D01*
X023396Y027570D01*
X023412Y027586D01*
X023425Y027604D01*
X023436Y027624D01*
X023444Y027645D01*
X023448Y027667D01*
X023450Y027689D01*
X023386Y026809D02*
X021787Y026809D01*
X021765Y026807D01*
X021743Y026803D01*
X021722Y026795D01*
X021702Y026784D01*
X021684Y026771D01*
X021668Y026755D01*
X021655Y026737D01*
X021644Y026717D01*
X021636Y026696D01*
X021632Y026674D01*
X021630Y026652D01*
X021630Y026035D01*
X021632Y026013D01*
X021636Y025991D01*
X021644Y025970D01*
X021655Y025950D01*
X021668Y025932D01*
X021684Y025916D01*
X021702Y025903D01*
X021722Y025892D01*
X021743Y025884D01*
X021765Y025880D01*
X021787Y025878D01*
X023386Y025878D01*
X023408Y025880D01*
X023430Y025884D01*
X023451Y025892D01*
X023471Y025903D01*
X023489Y025916D01*
X023505Y025932D01*
X023518Y025950D01*
X023529Y025970D01*
X023537Y025991D01*
X023541Y026013D01*
X023543Y026035D01*
X023543Y026652D01*
X023541Y026674D01*
X023537Y026696D01*
X023529Y026717D01*
X023518Y026737D01*
X023505Y026755D01*
X023489Y026771D01*
X023471Y026784D01*
X023451Y026795D01*
X023430Y026803D01*
X023408Y026807D01*
X023386Y026809D01*
X024189Y026652D02*
X024189Y026035D01*
X024191Y026013D01*
X024195Y025991D01*
X024203Y025970D01*
X024214Y025950D01*
X024227Y025932D01*
X024243Y025916D01*
X024261Y025903D01*
X024281Y025892D01*
X024302Y025884D01*
X024324Y025880D01*
X024346Y025878D01*
X025945Y025878D01*
X025967Y025880D01*
X025989Y025884D01*
X026010Y025892D01*
X026030Y025903D01*
X026048Y025916D01*
X026064Y025932D01*
X026077Y025950D01*
X026088Y025970D01*
X026096Y025991D01*
X026100Y026013D01*
X026102Y026035D01*
X026102Y026652D01*
X026100Y026674D01*
X026096Y026696D01*
X026088Y026717D01*
X026077Y026737D01*
X026064Y026755D01*
X026048Y026771D01*
X026030Y026784D01*
X026010Y026795D01*
X025989Y026803D01*
X025967Y026807D01*
X025945Y026809D01*
X024346Y026809D01*
X024324Y026807D01*
X024302Y026803D01*
X024281Y026795D01*
X024261Y026784D01*
X024243Y026771D01*
X024227Y026755D01*
X024214Y026737D01*
X024203Y026717D01*
X024195Y026696D01*
X024191Y026674D01*
X024189Y026652D01*
X028075Y028363D02*
X028075Y030466D01*
X024185Y030466D01*
X023543Y030780D02*
X023543Y031396D01*
X023541Y031418D01*
X023537Y031440D01*
X023529Y031461D01*
X023518Y031481D01*
X023505Y031499D01*
X023489Y031515D01*
X023471Y031528D01*
X023451Y031539D01*
X023430Y031547D01*
X023408Y031551D01*
X023386Y031553D01*
X021787Y031553D01*
X021765Y031551D01*
X021743Y031547D01*
X021722Y031539D01*
X021702Y031528D01*
X021684Y031515D01*
X021668Y031499D01*
X021655Y031481D01*
X021644Y031461D01*
X021636Y031440D01*
X021632Y031418D01*
X021630Y031396D01*
X021630Y030780D01*
X021632Y030758D01*
X021636Y030736D01*
X021644Y030715D01*
X021655Y030695D01*
X021668Y030677D01*
X021684Y030661D01*
X021702Y030648D01*
X021722Y030637D01*
X021743Y030629D01*
X021765Y030625D01*
X021787Y030623D01*
X021787Y030622D02*
X023386Y030622D01*
X023386Y030623D02*
X023408Y030625D01*
X023430Y030629D01*
X023451Y030637D01*
X023471Y030648D01*
X023489Y030661D01*
X023505Y030677D01*
X023518Y030695D01*
X023529Y030715D01*
X023537Y030736D01*
X023541Y030758D01*
X023543Y030780D01*
X024185Y031363D02*
X028075Y031363D01*
X028075Y030466D01*
X027843Y031973D02*
X026543Y031973D01*
X026543Y031974D02*
X026514Y031972D01*
X026484Y031974D01*
X026454Y031979D01*
X026425Y031987D01*
X026398Y031999D01*
X026372Y032013D01*
X026347Y032031D01*
X026325Y032050D01*
X026305Y032073D01*
X026288Y032097D01*
X026273Y032124D01*
X026262Y032151D01*
X026254Y032180D01*
X026249Y032210D01*
X026248Y032210D02*
X026248Y032682D01*
X026249Y032682D02*
X026254Y032712D01*
X026262Y032741D01*
X026273Y032768D01*
X026288Y032795D01*
X026305Y032819D01*
X026325Y032842D01*
X026347Y032861D01*
X026372Y032879D01*
X026398Y032893D01*
X026425Y032905D01*
X026454Y032913D01*
X026484Y032918D01*
X026514Y032920D01*
X026543Y032918D01*
X027843Y032918D01*
X027872Y032920D01*
X027902Y032918D01*
X027932Y032913D01*
X027961Y032905D01*
X027988Y032893D01*
X028014Y032879D01*
X028039Y032861D01*
X028061Y032842D01*
X028081Y032819D01*
X028098Y032795D01*
X028113Y032768D01*
X028124Y032741D01*
X028132Y032712D01*
X028137Y032682D01*
X028138Y032682D02*
X028138Y032210D01*
X028137Y032210D02*
X028132Y032180D01*
X028124Y032151D01*
X028113Y032124D01*
X028098Y032097D01*
X028081Y032073D01*
X028061Y032050D01*
X028039Y032031D01*
X028014Y032013D01*
X027988Y031999D01*
X027961Y031987D01*
X027932Y031979D01*
X027902Y031974D01*
X027872Y031972D01*
X027843Y031974D01*
X023591Y031985D02*
X022370Y031985D01*
X021622Y031985D02*
X021476Y031985D01*
X021476Y032131D01*
X029547Y025477D02*
X029591Y025477D01*
X030185Y022328D02*
X030185Y022230D01*
X030185Y022231D02*
X030212Y022229D01*
X030238Y022223D01*
X030263Y022214D01*
X030287Y022201D01*
X030308Y022185D01*
X030327Y022166D01*
X030343Y022145D01*
X030356Y022121D01*
X030365Y022096D01*
X030371Y022070D01*
X030373Y022043D01*
X030371Y022016D01*
X030365Y021990D01*
X030356Y021965D01*
X030343Y021941D01*
X030327Y021920D01*
X030308Y021901D01*
X030287Y021885D01*
X030263Y021872D01*
X030238Y021863D01*
X030212Y021857D01*
X030185Y021855D01*
X010401Y024178D02*
X010403Y024247D01*
X010409Y024316D01*
X010419Y024385D01*
X010433Y024452D01*
X010451Y024519D01*
X010472Y024585D01*
X010497Y024650D01*
X010526Y024712D01*
X010559Y024773D01*
X010595Y024833D01*
X010634Y024890D01*
X010677Y024944D01*
X010723Y024996D01*
X010771Y025045D01*
X010823Y025092D01*
X010877Y025135D01*
X010933Y025175D01*
X010992Y025212D01*
X011052Y025246D01*
X011115Y025276D01*
X011179Y025302D01*
X011244Y025324D01*
X011311Y025343D01*
X011378Y025358D01*
X011447Y025369D01*
X011516Y025376D01*
X011585Y025379D01*
X011654Y025378D01*
X011723Y025373D01*
X011792Y025364D01*
X011860Y025351D01*
X011927Y025334D01*
X011993Y025314D01*
X012058Y025289D01*
X012121Y025261D01*
X012182Y025229D01*
X012242Y025194D01*
X012300Y025156D01*
X012355Y025114D01*
X012407Y025069D01*
X012457Y025021D01*
X012504Y024970D01*
X012549Y024917D01*
X012590Y024861D01*
X012627Y024803D01*
X012662Y024743D01*
X012692Y024681D01*
X012720Y024618D01*
X012743Y024552D01*
X012763Y024486D01*
X012779Y024419D01*
X012791Y024350D01*
X012799Y024282D01*
X012803Y024213D01*
X012803Y024143D01*
X012799Y024074D01*
X012791Y024006D01*
X012779Y023937D01*
X012763Y023870D01*
X012743Y023804D01*
X012720Y023738D01*
X012692Y023675D01*
X012662Y023613D01*
X012627Y023553D01*
X012590Y023495D01*
X012549Y023439D01*
X012504Y023386D01*
X012457Y023335D01*
X012407Y023287D01*
X012355Y023242D01*
X012300Y023200D01*
X012242Y023162D01*
X012182Y023127D01*
X012121Y023095D01*
X012058Y023067D01*
X011993Y023042D01*
X011927Y023022D01*
X011860Y023005D01*
X011792Y022992D01*
X011723Y022983D01*
X011654Y022978D01*
X011585Y022977D01*
X011516Y022980D01*
X011447Y022987D01*
X011378Y022998D01*
X011311Y023013D01*
X011244Y023032D01*
X011179Y023054D01*
X011115Y023080D01*
X011052Y023110D01*
X010992Y023144D01*
X010933Y023181D01*
X010877Y023221D01*
X010823Y023264D01*
X010771Y023311D01*
X010723Y023360D01*
X010677Y023412D01*
X010634Y023466D01*
X010595Y023523D01*
X010559Y023583D01*
X010526Y023644D01*
X010497Y023706D01*
X010472Y023771D01*
X010451Y023837D01*
X010433Y023904D01*
X010419Y023971D01*
X010409Y024040D01*
X010403Y024109D01*
X010401Y024178D01*
X010776Y024729D02*
X011091Y024729D01*
X010933Y024572D02*
X010933Y024887D01*
X007114Y028922D02*
X006898Y028922D01*
X003472Y028922D01*
X003256Y028922D01*
X003256Y028962D02*
X003256Y029139D01*
X003256Y030536D01*
X003255Y030536D02*
X003257Y030567D01*
X003262Y030597D01*
X003270Y030627D01*
X003282Y030656D01*
X003297Y030683D01*
X003315Y030708D01*
X003336Y030731D01*
X003359Y030752D01*
X003384Y030770D01*
X003411Y030785D01*
X003440Y030797D01*
X003470Y030805D01*
X003500Y030810D01*
X003531Y030812D01*
X006839Y030812D01*
X006870Y030810D01*
X006900Y030805D01*
X006930Y030797D01*
X006959Y030785D01*
X006986Y030770D01*
X007011Y030752D01*
X007034Y030731D01*
X007055Y030708D01*
X007073Y030683D01*
X007088Y030656D01*
X007100Y030627D01*
X007108Y030597D01*
X007113Y030567D01*
X007115Y030536D01*
X007114Y030536D02*
X007114Y029139D01*
X007114Y028962D01*
X007055Y028903D02*
X006898Y028745D01*
X006031Y028745D01*
X006031Y028903D01*
X007055Y028903D01*
X006992Y028839D02*
X006031Y028839D01*
X006031Y028761D02*
X006914Y028761D01*
X006839Y028686D02*
X005972Y028686D01*
X005972Y028922D01*
X005972Y028686D02*
X005972Y028292D01*
X004398Y028292D01*
X004398Y028686D01*
X004398Y028922D01*
X004339Y028903D02*
X004339Y028745D01*
X003472Y028745D01*
X003315Y028903D01*
X004339Y028903D01*
X004339Y028839D02*
X003378Y028839D01*
X003457Y028761D02*
X004339Y028761D01*
X004398Y028686D02*
X003531Y028686D01*
X003500Y028688D01*
X003470Y028693D01*
X003440Y028701D01*
X003411Y028713D01*
X003384Y028728D01*
X003359Y028746D01*
X003336Y028767D01*
X003315Y028790D01*
X003297Y028815D01*
X003282Y028842D01*
X003270Y028871D01*
X003262Y028901D01*
X003257Y028931D01*
X003255Y028962D01*
X003255Y029139D02*
X003257Y029111D01*
X003262Y029083D01*
X003272Y029056D01*
X003284Y029031D01*
X003300Y029007D01*
X003319Y028986D01*
X003340Y028967D01*
X003363Y028951D01*
X003389Y028939D01*
X003416Y028929D01*
X003444Y028924D01*
X003472Y028922D01*
X003630Y027190D02*
X002803Y027190D01*
X002780Y027189D01*
X002757Y027185D01*
X002735Y027178D01*
X002714Y027167D01*
X002696Y027153D01*
X002679Y027137D01*
X002666Y027118D01*
X002656Y027097D01*
X002649Y027075D01*
X002645Y027052D01*
X002646Y027052D02*
X002646Y026658D01*
X002645Y026658D02*
X002649Y026635D01*
X002656Y026613D01*
X002666Y026592D01*
X002679Y026573D01*
X002696Y026557D01*
X002714Y026543D01*
X002735Y026532D01*
X002757Y026525D01*
X002780Y026521D01*
X002803Y026520D01*
X002803Y026521D02*
X003630Y026521D01*
X003630Y026520D02*
X003653Y026521D01*
X003676Y026525D01*
X003698Y026532D01*
X003719Y026543D01*
X003737Y026557D01*
X003754Y026573D01*
X003767Y026592D01*
X003777Y026613D01*
X003784Y026635D01*
X003788Y026658D01*
X003787Y026658D02*
X003787Y027052D01*
X003788Y027052D02*
X003784Y027075D01*
X003777Y027097D01*
X003767Y027118D01*
X003754Y027137D01*
X003737Y027153D01*
X003719Y027167D01*
X003698Y027178D01*
X003676Y027185D01*
X003653Y027189D01*
X003630Y027190D01*
X004587Y025910D02*
X004587Y022446D01*
X001819Y022446D01*
X001819Y025910D01*
X004587Y025910D01*
X006839Y028686D02*
X006870Y028688D01*
X006900Y028693D01*
X006930Y028701D01*
X006959Y028713D01*
X006986Y028728D01*
X007011Y028746D01*
X007034Y028767D01*
X007055Y028790D01*
X007073Y028815D01*
X007088Y028842D01*
X007100Y028871D01*
X007108Y028901D01*
X007113Y028931D01*
X007115Y028962D01*
X007115Y029139D02*
X007113Y029111D01*
X007108Y029083D01*
X007098Y029056D01*
X007086Y029031D01*
X007070Y029007D01*
X007051Y028986D01*
X007030Y028967D01*
X007007Y028951D01*
X006981Y028939D01*
X006954Y028929D01*
X006926Y028924D01*
X006898Y028922D01*
X006730Y030447D02*
X006732Y030467D01*
X006738Y030485D01*
X006747Y030503D01*
X006759Y030518D01*
X006774Y030530D01*
X006792Y030539D01*
X006810Y030545D01*
X006830Y030547D01*
X006850Y030545D01*
X006868Y030539D01*
X006886Y030530D01*
X006901Y030518D01*
X006913Y030503D01*
X006922Y030485D01*
X006928Y030467D01*
X006930Y030447D01*
X006928Y030427D01*
X006922Y030409D01*
X006913Y030391D01*
X006901Y030376D01*
X006886Y030364D01*
X006868Y030355D01*
X006850Y030349D01*
X006830Y030347D01*
X006810Y030349D01*
X006792Y030355D01*
X006774Y030364D01*
X006759Y030376D01*
X006747Y030391D01*
X006738Y030409D01*
X006732Y030427D01*
X006730Y030447D01*
X005565Y031993D02*
X005480Y032111D01*
X005480Y032446D01*
X005480Y032781D01*
X005407Y032899D01*
X005480Y032446D02*
X005067Y032446D01*
X005480Y032446D02*
X006037Y032859D01*
X006037Y032446D01*
X006386Y032446D01*
X006037Y032446D02*
X006037Y032032D01*
X005480Y032446D01*
X003216Y032446D02*
X003218Y032506D01*
X003224Y032565D01*
X003234Y032625D01*
X003248Y032683D01*
X003265Y032740D01*
X003286Y032796D01*
X003311Y032851D01*
X003340Y032903D01*
X003372Y032954D01*
X003407Y033002D01*
X003445Y033049D01*
X003487Y033092D01*
X003531Y033132D01*
X003577Y033170D01*
X003626Y033204D01*
X003678Y033236D01*
X003731Y033263D01*
X003786Y033287D01*
X003842Y033308D01*
X003900Y033324D01*
X003958Y033337D01*
X004017Y033346D01*
X004077Y033351D01*
X004137Y033352D01*
X004197Y033349D01*
X004256Y033342D01*
X004315Y033331D01*
X004373Y033316D01*
X004430Y033298D01*
X004486Y033276D01*
X004540Y033250D01*
X004592Y033220D01*
X004642Y033188D01*
X004690Y033152D01*
X004736Y033113D01*
X004778Y033071D01*
X004818Y033026D01*
X004855Y032979D01*
X004889Y032929D01*
X004919Y032877D01*
X004946Y032824D01*
X004969Y032768D01*
X004988Y032712D01*
X005004Y032654D01*
X005016Y032595D01*
X005024Y032536D01*
X005028Y032476D01*
X005028Y032416D01*
X005024Y032356D01*
X005016Y032297D01*
X005004Y032238D01*
X004988Y032180D01*
X004969Y032124D01*
X004946Y032068D01*
X004919Y032015D01*
X004889Y031963D01*
X004855Y031913D01*
X004818Y031866D01*
X004778Y031821D01*
X004736Y031779D01*
X004690Y031740D01*
X004642Y031704D01*
X004592Y031672D01*
X004540Y031642D01*
X004486Y031616D01*
X004430Y031594D01*
X004373Y031576D01*
X004315Y031561D01*
X004256Y031550D01*
X004197Y031543D01*
X004137Y031540D01*
X004077Y031541D01*
X004017Y031546D01*
X003958Y031555D01*
X003900Y031568D01*
X003842Y031584D01*
X003786Y031605D01*
X003731Y031629D01*
X003678Y031656D01*
X003626Y031688D01*
X003577Y031722D01*
X003531Y031760D01*
X003487Y031800D01*
X003445Y031843D01*
X003407Y031890D01*
X003372Y031938D01*
X003340Y031989D01*
X003311Y032041D01*
X003286Y032096D01*
X003265Y032152D01*
X003248Y032209D01*
X003234Y032267D01*
X003224Y032327D01*
X003218Y032386D01*
X003216Y032446D01*
X004272Y035210D02*
X004498Y035210D01*
X004498Y035438D01*
X004998Y035438D01*
X004998Y035210D01*
X005498Y035210D01*
X005498Y035438D01*
X006998Y035438D01*
X006998Y035210D01*
X007498Y035210D01*
X007498Y035438D01*
X007998Y035438D01*
X007998Y035210D01*
X008224Y035210D01*
X008224Y036371D01*
X007614Y036371D01*
X007614Y038969D01*
X007614Y038970D02*
X007610Y038998D01*
X007602Y039025D01*
X007590Y039051D01*
X007575Y039075D01*
X007557Y039097D01*
X007537Y039117D01*
X007514Y039133D01*
X007489Y039147D01*
X007463Y039157D01*
X007435Y039164D01*
X007407Y039167D01*
X007378Y039166D01*
X005118Y039166D01*
X005089Y039167D01*
X005061Y039164D01*
X005033Y039157D01*
X005007Y039147D01*
X004982Y039133D01*
X004959Y039117D01*
X004939Y039097D01*
X004921Y039075D01*
X004906Y039051D01*
X004894Y039025D01*
X004886Y038998D01*
X004882Y038970D01*
X004882Y038969D02*
X004882Y036371D01*
X004272Y036371D01*
X004272Y035210D01*
X004882Y036371D02*
X007614Y036371D01*
X010026Y035438D02*
X010026Y035210D01*
X006405Y032446D02*
X006407Y032496D01*
X006413Y032546D01*
X006423Y032595D01*
X006437Y032643D01*
X006454Y032690D01*
X006475Y032735D01*
X006500Y032779D01*
X006528Y032820D01*
X006560Y032859D01*
X006594Y032896D01*
X006631Y032930D01*
X006671Y032960D01*
X006713Y032987D01*
X006757Y033011D01*
X006803Y033032D01*
X006850Y033048D01*
X006898Y033061D01*
X006948Y033070D01*
X006997Y033075D01*
X007048Y033076D01*
X007098Y033073D01*
X007147Y033066D01*
X007196Y033055D01*
X007244Y033040D01*
X007290Y033022D01*
X007335Y033000D01*
X007378Y032974D01*
X007419Y032945D01*
X007458Y032913D01*
X007494Y032878D01*
X007526Y032840D01*
X007556Y032800D01*
X007583Y032757D01*
X007606Y032713D01*
X007625Y032667D01*
X007641Y032619D01*
X007653Y032570D01*
X007661Y032521D01*
X007665Y032471D01*
X007665Y032421D01*
X007661Y032371D01*
X007653Y032322D01*
X007641Y032273D01*
X007625Y032225D01*
X007606Y032179D01*
X007583Y032135D01*
X007556Y032092D01*
X007526Y032052D01*
X007494Y032014D01*
X007458Y031979D01*
X007419Y031947D01*
X007378Y031918D01*
X007335Y031892D01*
X007290Y031870D01*
X007244Y031852D01*
X007196Y031837D01*
X007147Y031826D01*
X007098Y031819D01*
X007048Y031816D01*
X006997Y031817D01*
X006948Y031822D01*
X006898Y031831D01*
X006850Y031844D01*
X006803Y031860D01*
X006757Y031881D01*
X006713Y031905D01*
X006671Y031932D01*
X006631Y031962D01*
X006594Y031996D01*
X006560Y032033D01*
X006528Y032072D01*
X006500Y032113D01*
X006475Y032157D01*
X006454Y032202D01*
X006437Y032249D01*
X006423Y032297D01*
X006413Y032346D01*
X006407Y032396D01*
X006405Y032446D01*
X003630Y021836D02*
X002803Y021836D01*
X002780Y021835D01*
X002757Y021831D01*
X002735Y021824D01*
X002714Y021813D01*
X002696Y021799D01*
X002679Y021783D01*
X002666Y021764D01*
X002656Y021743D01*
X002649Y021721D01*
X002645Y021698D01*
X002646Y021698D02*
X002646Y021304D01*
X002645Y021304D02*
X002649Y021281D01*
X002656Y021259D01*
X002666Y021238D01*
X002679Y021219D01*
X002696Y021203D01*
X002714Y021189D01*
X002735Y021178D01*
X002757Y021171D01*
X002780Y021167D01*
X002803Y021166D01*
X003630Y021166D01*
X003653Y021167D01*
X003676Y021171D01*
X003698Y021178D01*
X003719Y021189D01*
X003737Y021203D01*
X003754Y021219D01*
X003767Y021238D01*
X003777Y021259D01*
X003784Y021281D01*
X003788Y021304D01*
X003787Y021304D02*
X003787Y021698D01*
X003788Y021698D02*
X003784Y021721D01*
X003777Y021743D01*
X003767Y021764D01*
X003754Y021783D01*
X003737Y021799D01*
X003719Y021813D01*
X003698Y021824D01*
X003676Y021831D01*
X003653Y021835D01*
X003630Y021836D01*
X003728Y020706D02*
X003728Y020422D01*
X003587Y020564D02*
X003870Y020564D01*
X003433Y020261D02*
X003217Y020261D01*
X003217Y020084D01*
X003217Y020261D02*
X003000Y020261D01*
X003217Y019769D02*
X003217Y019592D01*
X003000Y019592D01*
X003217Y019592D02*
X003433Y019592D01*
X003728Y019131D02*
X003728Y018847D01*
X003587Y018989D02*
X003870Y018989D01*
X003433Y018686D02*
X003217Y018686D01*
X003217Y018509D01*
X003217Y018686D02*
X003000Y018686D01*
X003217Y018194D02*
X003217Y018017D01*
X003000Y018017D01*
X003217Y018017D02*
X003433Y018017D01*
X003630Y017111D02*
X002803Y017111D01*
X002803Y017112D02*
X002780Y017111D01*
X002757Y017107D01*
X002735Y017100D01*
X002714Y017089D01*
X002696Y017075D01*
X002679Y017059D01*
X002666Y017040D01*
X002656Y017019D01*
X002649Y016997D01*
X002645Y016974D01*
X002646Y016973D02*
X002646Y016580D01*
X002645Y016580D02*
X002649Y016557D01*
X002656Y016535D01*
X002666Y016514D01*
X002679Y016495D01*
X002696Y016479D01*
X002714Y016465D01*
X002735Y016454D01*
X002757Y016447D01*
X002780Y016443D01*
X002803Y016442D01*
X003630Y016442D01*
X003653Y016443D01*
X003676Y016447D01*
X003698Y016454D01*
X003719Y016465D01*
X003737Y016479D01*
X003754Y016495D01*
X003767Y016514D01*
X003777Y016535D01*
X003784Y016557D01*
X003788Y016580D01*
X003787Y016580D02*
X003787Y016973D01*
X003788Y016974D02*
X003784Y016997D01*
X003777Y017019D01*
X003767Y017040D01*
X003754Y017059D01*
X003737Y017075D01*
X003719Y017089D01*
X003698Y017100D01*
X003676Y017107D01*
X003653Y017111D01*
X003630Y017112D01*
X004645Y015891D02*
X004645Y012308D01*
X001441Y012308D01*
X001441Y015891D01*
X004645Y015891D01*
X006780Y013548D02*
X007606Y013548D01*
X007606Y013549D02*
X007629Y013548D01*
X007652Y013544D01*
X007674Y013537D01*
X007695Y013526D01*
X007713Y013512D01*
X007730Y013496D01*
X007743Y013477D01*
X007753Y013456D01*
X007760Y013434D01*
X007764Y013411D01*
X007764Y013410D02*
X007764Y013017D01*
X007760Y012994D01*
X007753Y012972D01*
X007743Y012951D01*
X007730Y012932D01*
X007713Y012916D01*
X007695Y012902D01*
X007674Y012891D01*
X007652Y012884D01*
X007629Y012880D01*
X007606Y012879D01*
X006780Y012879D01*
X006757Y012880D01*
X006734Y012884D01*
X006712Y012891D01*
X006691Y012902D01*
X006673Y012916D01*
X006656Y012932D01*
X006643Y012951D01*
X006633Y012972D01*
X006626Y012994D01*
X006622Y013017D01*
X006622Y013410D01*
X006622Y013411D02*
X006626Y013434D01*
X006633Y013456D01*
X006643Y013477D01*
X006656Y013496D01*
X006673Y013512D01*
X006691Y013526D01*
X006712Y013537D01*
X006734Y013544D01*
X006757Y013548D01*
X006780Y013549D01*
X006709Y011658D02*
X006394Y011658D01*
X005709Y011658D02*
X005394Y011658D01*
X004705Y011658D02*
X004626Y011658D01*
X004508Y011540D01*
X004508Y010910D01*
X004626Y010792D01*
X004705Y010792D01*
X005394Y010792D02*
X005709Y010792D01*
X005382Y010418D02*
X006720Y010418D01*
X006738Y010419D01*
X006755Y010415D01*
X006771Y010409D01*
X006786Y010399D01*
X006798Y010387D01*
X006808Y010373D01*
X006815Y010357D01*
X006818Y010340D01*
X006709Y010792D02*
X006394Y010792D01*
X006828Y009648D02*
X006814Y009597D01*
X006795Y009547D01*
X006773Y009499D01*
X006748Y009453D01*
X006720Y009408D01*
X006689Y009365D01*
X006655Y009324D01*
X006619Y009286D01*
X006580Y009251D01*
X006538Y009218D01*
X006494Y009188D01*
X006449Y009161D01*
X006402Y009137D01*
X006353Y009117D01*
X006303Y009100D01*
X006252Y009086D01*
X006200Y009076D01*
X006147Y009070D01*
X006094Y009067D01*
X006041Y009068D01*
X006061Y009068D02*
X006008Y009067D01*
X005955Y009070D01*
X005902Y009076D01*
X005850Y009086D01*
X005799Y009100D01*
X005749Y009117D01*
X005700Y009137D01*
X005653Y009161D01*
X005608Y009188D01*
X005564Y009218D01*
X005522Y009251D01*
X005483Y009286D01*
X005447Y009324D01*
X005413Y009365D01*
X005382Y009408D01*
X005354Y009453D01*
X005329Y009499D01*
X005307Y009547D01*
X005288Y009597D01*
X005274Y009648D01*
X005284Y010340D02*
X005287Y010357D01*
X005294Y010373D01*
X005304Y010387D01*
X005316Y010399D01*
X005331Y010409D01*
X005347Y010415D01*
X005364Y010419D01*
X005382Y010418D01*
X007398Y010792D02*
X007476Y010792D01*
X007594Y010910D01*
X007594Y011540D01*
X007476Y011658D01*
X007398Y011658D01*
X007809Y015231D02*
X007833Y015236D01*
X007857Y015243D01*
X007879Y015254D01*
X007900Y015268D01*
X007919Y015285D01*
X007935Y015304D01*
X007948Y015325D01*
X007959Y015348D01*
X007966Y015372D01*
X007970Y015396D01*
D12*
X010388Y010047D02*
X010568Y010047D01*
X010628Y009987D01*
X010628Y009867D01*
X010568Y009807D01*
X010388Y009807D01*
X010388Y009687D02*
X010388Y010047D01*
X010756Y009927D02*
X010876Y010047D01*
X010876Y009687D01*
X010756Y009687D02*
X010996Y009687D01*
X020029Y015455D02*
X020149Y015455D01*
X020089Y015455D02*
X020089Y015815D01*
X020029Y015815D02*
X020149Y015815D01*
X020274Y015755D02*
X020274Y015515D01*
X020335Y015455D01*
X020455Y015455D01*
X020515Y015515D01*
X020643Y015455D02*
X020883Y015695D01*
X020883Y015755D01*
X020823Y015815D01*
X020703Y015815D01*
X020643Y015755D01*
X020515Y015755D02*
X020455Y015815D01*
X020335Y015815D01*
X020274Y015755D01*
X020643Y015455D02*
X020883Y015455D01*
X020895Y022812D02*
X020895Y023093D01*
X021035Y023093D01*
X021081Y023046D01*
X021081Y022952D01*
X021035Y022906D01*
X020895Y022906D01*
X020988Y022906D02*
X021081Y022812D01*
X021189Y022859D02*
X021236Y022812D01*
X021329Y022812D01*
X021376Y022859D01*
X021376Y023046D01*
X021329Y023093D01*
X021236Y023093D01*
X021189Y023046D01*
X021189Y022859D01*
X021484Y022812D02*
X021671Y022812D01*
X021779Y022812D02*
X021779Y023093D01*
X021779Y022812D02*
X021965Y022812D01*
X022073Y022812D02*
X022260Y022812D01*
X022368Y022812D02*
X022368Y023093D01*
X022508Y023093D01*
X022555Y023046D01*
X022555Y022952D01*
X022508Y022906D01*
X022368Y022906D01*
X022461Y022906D02*
X022555Y022812D01*
X022260Y023093D02*
X022073Y023093D01*
X022073Y022812D01*
X022073Y022952D02*
X022167Y022952D01*
X021795Y023580D02*
X021795Y023940D01*
X021975Y023940D01*
X022035Y023880D01*
X022035Y023760D01*
X021975Y023700D01*
X021795Y023700D01*
X021667Y023640D02*
X021607Y023580D01*
X021486Y023580D01*
X021426Y023640D01*
X021426Y023880D01*
X021486Y023940D01*
X021607Y023940D01*
X021667Y023880D01*
X021667Y023640D01*
X021298Y023580D02*
X021178Y023700D01*
X021238Y023700D02*
X021058Y023700D01*
X021058Y023580D02*
X021058Y023940D01*
X021238Y023940D01*
X021298Y023880D01*
X021298Y023760D01*
X021238Y023700D01*
X021484Y023093D02*
X021484Y022812D01*
X020787Y023093D02*
X020600Y023093D01*
X020693Y023093D02*
X020693Y022812D01*
X020492Y022812D02*
X020492Y023093D01*
X020305Y023093D02*
X020492Y022812D01*
X020305Y022812D02*
X020305Y023093D01*
X020198Y023046D02*
X020151Y023093D01*
X020057Y023093D01*
X020011Y023046D01*
X020011Y022859D01*
X020057Y022812D01*
X020151Y022812D01*
X020198Y022859D01*
X020198Y023046D01*
X019903Y023046D02*
X019856Y023093D01*
X019763Y023093D01*
X019716Y023046D01*
X019716Y022859D01*
X019763Y022812D01*
X019856Y022812D01*
X019903Y022859D01*
X019358Y022812D02*
X019358Y023093D01*
X019171Y023093D02*
X019171Y022812D01*
X019063Y022812D02*
X019063Y022999D01*
X018970Y023093D01*
X018877Y022999D01*
X018877Y022812D01*
X018877Y022952D02*
X019063Y022952D01*
X019171Y023093D02*
X019358Y022812D01*
X018769Y023093D02*
X018582Y023093D01*
X018582Y022812D01*
X018582Y022952D02*
X018675Y022952D01*
X019448Y023580D02*
X019448Y023940D01*
X019688Y023940D01*
X019816Y023820D02*
X019816Y023580D01*
X019688Y023580D02*
X019448Y023580D01*
X019448Y023760D02*
X019568Y023760D01*
X019816Y023760D02*
X020056Y023760D01*
X020056Y023820D02*
X020056Y023580D01*
X020184Y023580D02*
X020184Y023940D01*
X020365Y023940D01*
X020425Y023880D01*
X020425Y023760D01*
X020365Y023700D01*
X020184Y023700D01*
X020305Y023700D02*
X020425Y023580D01*
X020056Y023820D02*
X019936Y023940D01*
X019816Y023820D01*
X025659Y029234D02*
X025779Y029234D01*
X025719Y029234D02*
X025719Y029595D01*
X025659Y029595D02*
X025779Y029595D01*
X025904Y029535D02*
X025904Y029294D01*
X025964Y029234D01*
X026085Y029234D01*
X026145Y029294D01*
X026273Y029415D02*
X026513Y029415D01*
X026453Y029595D02*
X026273Y029415D01*
X026145Y029535D02*
X026085Y029595D01*
X025964Y029595D01*
X025904Y029535D01*
X026453Y029595D02*
X026453Y029234D01*
X024539Y033565D02*
X024419Y033685D01*
X024419Y033925D01*
X024291Y033925D02*
X024051Y033685D01*
X024051Y033625D01*
X024111Y033565D01*
X024231Y033565D01*
X024291Y033625D01*
X024419Y033745D02*
X024659Y033745D01*
X024659Y033685D02*
X024539Y033565D01*
X024659Y033685D02*
X024659Y033925D01*
X024291Y033925D02*
X024051Y033925D01*
X024059Y035718D02*
X024059Y036079D01*
X024299Y035718D01*
X024299Y036079D01*
X024427Y036079D02*
X024427Y035838D01*
X024547Y035718D01*
X024667Y035838D01*
X024667Y036079D01*
X024667Y035898D02*
X024427Y035898D01*
X024795Y035718D02*
X025036Y035718D01*
X025036Y036079D01*
X025036Y035898D02*
X024915Y035898D01*
X023931Y035778D02*
X023871Y035718D01*
X023750Y035718D01*
X023690Y035778D01*
X023690Y035838D01*
X023931Y036079D01*
X023690Y036079D01*
X020508Y036079D02*
X020508Y035718D01*
X020268Y035718D01*
X020140Y035838D02*
X020140Y036079D01*
X020140Y035898D02*
X019899Y035898D01*
X019899Y035838D02*
X019899Y036079D01*
X019771Y036079D02*
X019771Y035718D01*
X019531Y036079D01*
X019531Y035718D01*
X019403Y035778D02*
X019343Y035718D01*
X019223Y035718D01*
X019163Y035778D01*
X019163Y035838D01*
X019223Y035898D01*
X019163Y035959D01*
X019163Y036019D01*
X019223Y036079D01*
X019343Y036079D01*
X019403Y036019D01*
X019283Y035898D02*
X019223Y035898D01*
X019899Y035838D02*
X020020Y035718D01*
X020140Y035838D01*
X020388Y035898D02*
X020508Y035898D01*
X020132Y033925D02*
X020132Y033685D01*
X020012Y033565D01*
X019892Y033685D01*
X019892Y033925D01*
X019763Y033865D02*
X019703Y033925D01*
X019583Y033925D01*
X019523Y033865D01*
X019523Y033805D01*
X019583Y033745D01*
X019643Y033745D01*
X019583Y033745D02*
X019523Y033685D01*
X019523Y033625D01*
X019583Y033565D01*
X019703Y033565D01*
X019763Y033625D01*
X019892Y033745D02*
X020132Y033745D01*
X015980Y035718D02*
X015740Y035718D01*
X015612Y035838D02*
X015612Y036079D01*
X015612Y035898D02*
X015372Y035898D01*
X015372Y035838D02*
X015372Y036079D01*
X015244Y036079D02*
X015244Y035718D01*
X015004Y036079D01*
X015004Y035718D01*
X014875Y035898D02*
X014635Y035898D01*
X014695Y035718D02*
X014875Y035898D01*
X014695Y035718D02*
X014695Y036079D01*
X015372Y035838D02*
X015492Y035718D01*
X015612Y035838D01*
X015860Y035898D02*
X015980Y035898D01*
X015980Y035718D02*
X015980Y036079D01*
X015604Y033925D02*
X015604Y033685D01*
X015484Y033565D01*
X015364Y033685D01*
X015364Y033925D01*
X015364Y033745D02*
X015604Y033745D01*
X015236Y033745D02*
X015056Y033565D01*
X015056Y033925D01*
X014996Y033745D02*
X015236Y033745D01*
X011453Y035718D02*
X011213Y035718D01*
X011085Y035838D02*
X010964Y035718D01*
X010844Y035838D01*
X010844Y036079D01*
X010716Y036079D02*
X010716Y035718D01*
X010476Y036079D01*
X010476Y035718D01*
X010348Y035718D02*
X010348Y035898D01*
X010228Y035838D01*
X010168Y035838D01*
X010108Y035898D01*
X010108Y036019D01*
X010168Y036079D01*
X010288Y036079D01*
X010348Y036019D01*
X010348Y035718D02*
X010108Y035718D01*
X010844Y035898D02*
X011085Y035898D01*
X011085Y035838D02*
X011085Y036079D01*
X011333Y035898D02*
X011453Y035898D01*
X011453Y035718D02*
X011453Y036079D01*
X011077Y033925D02*
X010897Y033925D01*
X010836Y033865D01*
X010836Y033805D01*
X010897Y033745D01*
X011077Y033745D01*
X011077Y033925D02*
X011077Y033565D01*
X010897Y033565D01*
X010836Y033625D01*
X010836Y033685D01*
X010897Y033745D01*
X010708Y033685D02*
X010588Y033565D01*
X010588Y033925D01*
X010708Y033925D02*
X010468Y033925D01*
X006925Y035718D02*
X006685Y035718D01*
X006557Y035838D02*
X006437Y035718D01*
X006317Y035838D01*
X006317Y036079D01*
X006189Y036079D02*
X006189Y035718D01*
X005948Y036079D01*
X005948Y035718D01*
X005820Y035898D02*
X005640Y035898D01*
X005580Y035959D01*
X005580Y036019D01*
X005640Y036079D01*
X005760Y036079D01*
X005820Y036019D01*
X005820Y035898D01*
X005700Y035778D01*
X005580Y035718D01*
X006317Y035898D02*
X006557Y035898D01*
X006557Y035838D02*
X006557Y036079D01*
X006805Y035898D02*
X006925Y035898D01*
X006925Y035718D02*
X006925Y036079D01*
X006549Y033925D02*
X006369Y033925D01*
X006309Y033865D01*
X006309Y033805D01*
X006369Y033745D01*
X006549Y033745D01*
X006369Y033745D02*
X006309Y033685D01*
X006309Y033625D01*
X006369Y033565D01*
X006549Y033565D01*
X006549Y033925D01*
X006181Y033925D02*
X005941Y033685D01*
X005941Y033625D01*
X006001Y033565D01*
X006121Y033565D01*
X006181Y033625D01*
X006181Y033925D02*
X005941Y033925D01*
X012647Y029595D02*
X012767Y029595D01*
X012707Y029595D02*
X012707Y029234D01*
X012647Y029234D02*
X012767Y029234D01*
X012893Y029294D02*
X012953Y029234D01*
X013073Y029234D01*
X013133Y029294D01*
X013261Y029294D02*
X013321Y029234D01*
X013441Y029234D01*
X013501Y029294D01*
X013501Y029354D01*
X013441Y029415D01*
X013381Y029415D01*
X013441Y029415D02*
X013501Y029475D01*
X013501Y029535D01*
X013441Y029595D01*
X013321Y029595D01*
X013261Y029535D01*
X013133Y029535D02*
X013073Y029595D01*
X012953Y029595D01*
X012893Y029535D01*
X012893Y029294D01*
X012392Y024662D02*
X012452Y024602D01*
X012452Y024482D01*
X012392Y024422D01*
X012151Y024662D01*
X012392Y024662D01*
X012392Y024422D02*
X012151Y024422D01*
X012091Y024482D01*
X012091Y024602D01*
X012151Y024662D01*
X012151Y024294D02*
X012091Y024234D01*
X012091Y024113D01*
X012151Y024053D01*
X012151Y023925D02*
X012091Y023865D01*
X012091Y023745D01*
X012151Y023685D01*
X012392Y023685D01*
X012452Y023745D01*
X012452Y023865D01*
X012392Y023925D01*
X012452Y024053D02*
X012211Y024294D01*
X012151Y024294D01*
X012452Y024294D02*
X012452Y024053D01*
X009302Y024053D02*
X009302Y024294D01*
X009302Y024173D02*
X008942Y024173D01*
X009062Y024053D01*
X009002Y023925D02*
X008942Y023865D01*
X008942Y023745D01*
X009002Y023685D01*
X009242Y023685D01*
X009302Y023745D01*
X009302Y023865D01*
X009242Y023925D01*
X009242Y024422D02*
X009302Y024482D01*
X009302Y024602D01*
X009242Y024662D01*
X009002Y024662D01*
X008942Y024602D01*
X008942Y024482D01*
X009002Y024422D01*
X009062Y024422D01*
X009122Y024482D01*
X009122Y024662D01*
X003810Y024671D02*
X003810Y024431D01*
X003810Y024551D02*
X003450Y024551D01*
X003450Y024183D02*
X003810Y024183D01*
X003810Y024303D02*
X003810Y024063D01*
X003810Y023935D02*
X003450Y023935D01*
X003450Y023694D01*
X028578Y033925D02*
X028819Y033925D01*
X028698Y033925D02*
X028698Y033565D01*
X028819Y033685D01*
X028947Y033685D02*
X028947Y033925D01*
X028947Y033745D02*
X029187Y033745D01*
X029187Y033685D02*
X029067Y033565D01*
X028947Y033685D01*
X029187Y033685D02*
X029187Y033925D01*
X029075Y035718D02*
X028955Y035838D01*
X028955Y036079D01*
X028826Y036079D02*
X028826Y035718D01*
X028586Y036079D01*
X028586Y035718D01*
X028458Y035838D02*
X028338Y035718D01*
X028338Y036079D01*
X028458Y036079D02*
X028218Y036079D01*
X028955Y035898D02*
X029195Y035898D01*
X029195Y035838D02*
X029075Y035718D01*
X029195Y035838D02*
X029195Y036079D01*
X029443Y035898D02*
X029563Y035898D01*
X029563Y035718D02*
X029323Y035718D01*
X029563Y035718D02*
X029563Y036079D01*
X033914Y036885D02*
X033974Y036825D01*
X034154Y036825D01*
X034154Y037185D01*
X034154Y037065D02*
X033974Y037065D01*
X033914Y037005D01*
X033914Y036885D01*
X034034Y037065D02*
X033914Y037185D01*
X034282Y037185D02*
X034282Y036825D01*
X034522Y036825D02*
X034522Y037185D01*
X034402Y037065D01*
X034282Y037185D01*
X034651Y037005D02*
X034711Y037065D01*
X034891Y037065D01*
X034891Y037185D02*
X034891Y036825D01*
X034711Y036825D01*
X034651Y036885D01*
X034651Y037005D01*
X030076Y024811D02*
X030076Y024451D01*
X029956Y024451D02*
X030196Y024451D01*
X029956Y024691D02*
X030076Y024811D01*
X029828Y024751D02*
X029768Y024811D01*
X029648Y024811D01*
X029588Y024751D01*
X029460Y024751D02*
X029400Y024811D01*
X029280Y024811D01*
X029219Y024751D01*
X029219Y024511D01*
X029280Y024451D01*
X029400Y024451D01*
X029460Y024511D01*
X029588Y024451D02*
X029828Y024691D01*
X029828Y024751D01*
X029828Y024451D02*
X029588Y024451D01*
X030034Y010047D02*
X030214Y010047D01*
X030274Y009987D01*
X030274Y009867D01*
X030214Y009807D01*
X030034Y009807D01*
X030034Y009687D02*
X030034Y010047D01*
X030402Y009987D02*
X030462Y010047D01*
X030582Y010047D01*
X030642Y009987D01*
X030642Y009927D01*
X030402Y009687D01*
X030642Y009687D01*
D13*
X029005Y012670D02*
X029005Y013010D01*
X028835Y012840D01*
X029062Y012840D01*
X028721Y012670D02*
X028494Y012670D01*
X028608Y012670D02*
X028608Y013010D01*
X028494Y012896D01*
X028380Y012953D02*
X028324Y013010D01*
X028210Y013010D01*
X028154Y012953D01*
X028154Y012726D01*
X028210Y012670D01*
X028324Y012670D01*
X028380Y012726D01*
X029772Y014269D02*
X029917Y014269D01*
X029965Y014318D01*
X029965Y014511D01*
X029917Y014560D01*
X029772Y014560D01*
X029772Y014269D01*
X030066Y014414D02*
X030260Y014414D01*
X030211Y014269D02*
X030211Y014560D01*
X030066Y014414D01*
X030112Y015765D02*
X030305Y015959D01*
X030305Y016007D01*
X030257Y016056D01*
X030160Y016056D01*
X030112Y016007D01*
X030011Y016007D02*
X030011Y015911D01*
X029962Y015862D01*
X029817Y015862D01*
X029817Y015765D02*
X029817Y016056D01*
X029962Y016056D01*
X030011Y016007D01*
X029914Y015862D02*
X030011Y015765D01*
X030112Y015765D02*
X030305Y015765D01*
X030406Y015765D02*
X030600Y015959D01*
X030600Y016007D01*
X030552Y016056D01*
X030455Y016056D01*
X030406Y016007D01*
X030406Y015765D02*
X030600Y015765D01*
X030600Y017261D02*
X030406Y017261D01*
X030503Y017261D02*
X030503Y017552D01*
X030406Y017455D01*
X030305Y017261D02*
X030112Y017261D01*
X030209Y017261D02*
X030209Y017552D01*
X030112Y017455D01*
X030011Y017503D02*
X030011Y017407D01*
X029962Y017358D01*
X029817Y017358D01*
X029817Y017261D02*
X029817Y017552D01*
X029962Y017552D01*
X030011Y017503D01*
X029914Y017358D02*
X030011Y017261D01*
X030011Y018758D02*
X029914Y018854D01*
X029962Y018854D02*
X029817Y018854D01*
X029817Y018758D02*
X029817Y019048D01*
X029962Y019048D01*
X030011Y018999D01*
X030011Y018903D01*
X029962Y018854D01*
X030112Y018758D02*
X030305Y018758D01*
X030209Y018758D02*
X030209Y019048D01*
X030112Y018951D01*
X030406Y018999D02*
X030406Y018806D01*
X030600Y018999D01*
X030600Y018806D01*
X030552Y018758D01*
X030455Y018758D01*
X030406Y018806D01*
X030406Y018999D02*
X030455Y019048D01*
X030552Y019048D01*
X030600Y018999D01*
X029587Y021569D02*
X029247Y021569D01*
X029587Y021569D02*
X029587Y021796D01*
X029587Y021910D02*
X029360Y022137D01*
X029304Y022137D01*
X029247Y022080D01*
X029247Y021966D01*
X029304Y021910D01*
X029587Y021910D02*
X029587Y022137D01*
X032520Y022461D02*
X032520Y022607D01*
X032568Y022655D01*
X032762Y022655D01*
X032810Y022607D01*
X032810Y022461D01*
X032520Y022461D01*
X032568Y022756D02*
X032520Y022805D01*
X032520Y022901D01*
X032568Y022950D01*
X032617Y022950D01*
X032810Y022756D01*
X032810Y022950D01*
X032895Y025012D02*
X033009Y025012D01*
X033065Y025069D01*
X033179Y025012D02*
X033406Y025012D01*
X033293Y025012D02*
X033293Y025352D01*
X033179Y025239D01*
X033065Y025296D02*
X033009Y025352D01*
X032895Y025352D01*
X032839Y025296D01*
X032839Y025069D01*
X032895Y025012D01*
X033520Y025069D02*
X033577Y025012D01*
X033690Y025012D01*
X033747Y025069D01*
X033747Y025182D01*
X033690Y025239D01*
X033633Y025239D01*
X033520Y025182D01*
X033520Y025352D01*
X033747Y025352D01*
X033577Y026488D02*
X033350Y026488D01*
X033463Y026488D02*
X033463Y026829D01*
X033350Y026715D01*
X033236Y026772D02*
X033179Y026829D01*
X033009Y026829D01*
X033009Y026488D01*
X033179Y026488D01*
X033236Y026545D01*
X033236Y026772D01*
X037307Y026804D02*
X037500Y026804D01*
X037602Y026755D02*
X037650Y026804D01*
X037747Y026804D01*
X037795Y026755D01*
X037795Y026707D01*
X037602Y026513D01*
X037795Y026513D01*
X037404Y026659D02*
X037307Y026659D01*
X037307Y026804D02*
X037307Y026513D01*
X038665Y025296D02*
X038665Y025069D01*
X038722Y025012D01*
X038836Y025012D01*
X038892Y025069D01*
X039006Y025012D02*
X039233Y025012D01*
X039120Y025012D02*
X039120Y025352D01*
X039006Y025239D01*
X038892Y025296D02*
X038836Y025352D01*
X038722Y025352D01*
X038665Y025296D01*
X039347Y025182D02*
X039517Y025182D01*
X039574Y025126D01*
X039574Y025069D01*
X039517Y025012D01*
X039403Y025012D01*
X039347Y025069D01*
X039347Y025182D01*
X039460Y025296D01*
X039574Y025352D01*
X036145Y022222D02*
X036145Y021882D01*
X036032Y021882D02*
X036259Y021882D01*
X036032Y022109D02*
X036145Y022222D01*
X035918Y022222D02*
X035918Y021996D01*
X035804Y021882D01*
X035691Y021996D01*
X035691Y022222D01*
X037061Y020386D02*
X037206Y020386D01*
X037255Y020338D01*
X037255Y020241D01*
X037206Y020193D01*
X037061Y020193D01*
X037061Y020096D02*
X037061Y020386D01*
X037158Y020193D02*
X037255Y020096D01*
X037356Y020096D02*
X037549Y020096D01*
X037453Y020096D02*
X037453Y020386D01*
X037356Y020290D01*
X037651Y020338D02*
X037699Y020386D01*
X037796Y020386D01*
X037844Y020338D01*
X037844Y020290D01*
X037796Y020241D01*
X037844Y020193D01*
X037844Y020145D01*
X037796Y020096D01*
X037699Y020096D01*
X037651Y020145D01*
X037747Y020241D02*
X037796Y020241D01*
X037617Y018207D02*
X037617Y017866D01*
X037730Y017866D02*
X037503Y017866D01*
X037389Y017866D02*
X037389Y018207D01*
X037276Y018093D01*
X037162Y018207D01*
X037162Y017866D01*
X037503Y018093D02*
X037617Y018207D01*
X034425Y017440D02*
X034134Y017440D01*
X034231Y017343D01*
X034134Y017247D01*
X034425Y017247D01*
X034376Y017145D02*
X034425Y017097D01*
X034425Y017000D01*
X034376Y016952D01*
X034279Y017000D02*
X034279Y017097D01*
X034328Y017145D01*
X034376Y017145D01*
X034279Y017000D02*
X034231Y016952D01*
X034183Y016952D01*
X034134Y017000D01*
X034134Y017097D01*
X034183Y017145D01*
X033850Y017073D02*
X033850Y016977D01*
X033801Y016928D01*
X033705Y016977D02*
X033705Y017073D01*
X033753Y017122D01*
X033801Y017122D01*
X033850Y017073D01*
X033850Y017223D02*
X033559Y017223D01*
X033656Y017320D01*
X033559Y017416D01*
X033850Y017416D01*
X033705Y017518D02*
X033705Y017711D01*
X033801Y017614D02*
X033608Y017614D01*
X033608Y017122D02*
X033559Y017073D01*
X033559Y016977D01*
X033608Y016928D01*
X033656Y016928D01*
X033705Y016977D01*
X033705Y016711D02*
X033705Y016518D01*
X033801Y016614D02*
X033608Y016614D01*
X033850Y016416D02*
X033850Y016223D01*
X033559Y016223D01*
X033608Y016122D02*
X033559Y016073D01*
X033559Y015977D01*
X033608Y015928D01*
X033656Y015928D01*
X033705Y015977D01*
X033705Y016073D01*
X033753Y016122D01*
X033801Y016122D01*
X033850Y016073D01*
X033850Y015977D01*
X033801Y015928D01*
X033850Y015735D02*
X033850Y015541D01*
X033850Y015638D02*
X033559Y015638D01*
X033656Y015541D01*
X033559Y015440D02*
X033850Y015440D01*
X033559Y015247D01*
X033850Y015247D01*
X033850Y015145D02*
X033656Y015145D01*
X033559Y015049D01*
X033656Y014952D01*
X033850Y014952D01*
X033705Y014952D02*
X033705Y015145D01*
X034134Y015099D02*
X034134Y015293D01*
X034134Y015394D02*
X034328Y015394D01*
X034425Y015491D01*
X034328Y015587D01*
X034134Y015587D01*
X034279Y015293D02*
X034231Y015244D01*
X034231Y015196D01*
X034279Y015099D01*
X034134Y015099D01*
X034376Y015099D02*
X034425Y015148D01*
X034425Y015244D01*
X034376Y015293D01*
X034279Y015293D01*
X034231Y015952D02*
X034279Y016000D01*
X034279Y016097D01*
X034328Y016145D01*
X034376Y016145D01*
X034425Y016097D01*
X034425Y016000D01*
X034376Y015952D01*
X034231Y015952D02*
X034183Y015952D01*
X034134Y016000D01*
X034134Y016097D01*
X034183Y016145D01*
X034134Y016247D02*
X034425Y016247D01*
X034425Y016440D01*
X034279Y016541D02*
X034279Y016735D01*
X034279Y017541D02*
X034279Y017735D01*
X034084Y018758D02*
X033891Y018758D01*
X034084Y018951D01*
X034084Y018999D01*
X034036Y019048D01*
X033939Y019048D01*
X033891Y018999D01*
X033693Y019048D02*
X033693Y018758D01*
X033596Y018758D02*
X033790Y018758D01*
X033596Y018951D02*
X033693Y019048D01*
X033495Y018999D02*
X033495Y018903D01*
X033446Y018854D01*
X033301Y018854D01*
X033301Y018758D02*
X033301Y019048D01*
X033446Y019048D01*
X033495Y018999D01*
X033398Y018854D02*
X033495Y018758D01*
X033227Y017223D02*
X033033Y017223D01*
X032985Y017175D01*
X032985Y017029D01*
X033275Y017029D01*
X033275Y017175D01*
X033227Y017223D01*
X033178Y016928D02*
X032985Y016928D01*
X033178Y016928D02*
X033275Y016832D01*
X033178Y016735D01*
X032985Y016735D01*
X033033Y016634D02*
X032985Y016585D01*
X032985Y016489D01*
X033033Y016440D01*
X033227Y016440D01*
X033275Y016489D01*
X033275Y016585D01*
X033227Y016634D01*
X033033Y016634D01*
X033033Y015378D02*
X033130Y015378D01*
X033178Y015330D01*
X033178Y015185D01*
X033275Y015185D02*
X032985Y015185D01*
X032985Y015330D01*
X033033Y015378D01*
X032985Y015083D02*
X033275Y015083D01*
X033275Y014890D02*
X032985Y014890D01*
X033081Y014987D01*
X032985Y015083D01*
X032985Y014789D02*
X032985Y014595D01*
X033275Y014595D01*
X033275Y014789D01*
X033130Y014692D02*
X033130Y014595D01*
X032985Y014494D02*
X032985Y014301D01*
X032985Y014397D02*
X033275Y014397D01*
X033559Y014420D02*
X033850Y014420D01*
X033559Y014227D01*
X033850Y014227D01*
X033850Y014126D02*
X033656Y014126D01*
X033559Y014029D01*
X033656Y013932D01*
X033850Y013932D01*
X033705Y013932D02*
X033705Y014126D01*
X033608Y014522D02*
X033559Y014570D01*
X033559Y014667D01*
X033608Y014715D01*
X033656Y014715D01*
X033850Y014522D01*
X033850Y014715D01*
X034134Y014572D02*
X034328Y014572D01*
X034425Y014475D01*
X034328Y014378D01*
X034134Y014378D01*
X034134Y014277D02*
X034134Y014084D01*
X034279Y014084D01*
X034231Y014180D01*
X034231Y014229D01*
X034279Y014277D01*
X034376Y014277D01*
X034425Y014229D01*
X034425Y014132D01*
X034376Y014084D01*
X034345Y013103D02*
X034490Y013103D01*
X034538Y013055D01*
X034538Y012958D01*
X034490Y012909D01*
X034345Y012909D01*
X034345Y012813D02*
X034345Y013103D01*
X034441Y012909D02*
X034538Y012813D01*
X034639Y012813D02*
X034833Y013006D01*
X034833Y013055D01*
X034784Y013103D01*
X034688Y013103D01*
X034639Y013055D01*
X034639Y012813D02*
X034833Y012813D01*
X034934Y012861D02*
X034982Y012813D01*
X035079Y012813D01*
X035127Y012861D01*
X035127Y012909D01*
X035079Y012958D01*
X035031Y012958D01*
X035079Y012958D02*
X035127Y013006D01*
X035127Y013055D01*
X035079Y013103D01*
X034982Y013103D01*
X034934Y013055D01*
X035079Y011863D02*
X034934Y011718D01*
X035127Y011718D01*
X035079Y011573D02*
X035079Y011863D01*
X034833Y011814D02*
X034784Y011863D01*
X034688Y011863D01*
X034639Y011814D01*
X034538Y011814D02*
X034538Y011718D01*
X034490Y011669D01*
X034345Y011669D01*
X034441Y011669D02*
X034538Y011573D01*
X034639Y011573D02*
X034833Y011766D01*
X034833Y011814D01*
X034833Y011573D02*
X034639Y011573D01*
X034538Y011814D02*
X034490Y011863D01*
X034345Y011863D01*
X034345Y011573D01*
X034345Y010623D02*
X034490Y010623D01*
X034538Y010574D01*
X034538Y010477D01*
X034490Y010429D01*
X034345Y010429D01*
X034441Y010429D02*
X034538Y010332D01*
X034639Y010332D02*
X034833Y010526D01*
X034833Y010574D01*
X034784Y010623D01*
X034688Y010623D01*
X034639Y010574D01*
X034639Y010332D02*
X034833Y010332D01*
X034934Y010381D02*
X034982Y010332D01*
X035079Y010332D01*
X035127Y010381D01*
X035127Y010477D01*
X035079Y010526D01*
X035031Y010526D01*
X034934Y010477D01*
X034934Y010623D01*
X035127Y010623D01*
X034345Y010623D02*
X034345Y010332D01*
X037612Y012813D02*
X037612Y013103D01*
X037758Y013103D01*
X037806Y013055D01*
X037806Y012958D01*
X037758Y012909D01*
X037612Y012909D01*
X037709Y012909D02*
X037806Y012813D01*
X037907Y012813D02*
X038101Y013006D01*
X038101Y013055D01*
X038052Y013103D01*
X037955Y013103D01*
X037907Y013055D01*
X037907Y012813D02*
X038101Y012813D01*
X038202Y012861D02*
X038250Y012813D01*
X038347Y012813D01*
X038395Y012861D01*
X038395Y012909D01*
X038347Y012958D01*
X038202Y012958D01*
X038202Y012861D01*
X038202Y012958D02*
X038298Y013055D01*
X038395Y013103D01*
X033891Y020096D02*
X033891Y020145D01*
X034084Y020338D01*
X034084Y020386D01*
X033891Y020386D01*
X033790Y020338D02*
X033741Y020386D01*
X033644Y020386D01*
X033596Y020338D01*
X033495Y020338D02*
X033495Y020241D01*
X033446Y020193D01*
X033301Y020193D01*
X033301Y020096D02*
X033301Y020386D01*
X033446Y020386D01*
X033495Y020338D01*
X033398Y020193D02*
X033495Y020096D01*
X033596Y020096D02*
X033790Y020290D01*
X033790Y020338D01*
X033790Y020096D02*
X033596Y020096D01*
X027172Y026173D02*
X026945Y026173D01*
X027059Y026173D02*
X027059Y026514D01*
X026945Y026400D01*
X026831Y026173D02*
X026604Y026173D01*
X026718Y026173D02*
X026718Y026514D01*
X026604Y026400D01*
X026491Y026457D02*
X026434Y026514D01*
X026321Y026514D01*
X026264Y026457D01*
X026264Y026230D01*
X026321Y026173D01*
X026434Y026173D01*
X026491Y026230D01*
X023038Y027018D02*
X022981Y026961D01*
X022868Y026961D01*
X022811Y027018D01*
X023038Y027244D01*
X023038Y027018D01*
X023038Y027244D02*
X022981Y027301D01*
X022868Y027301D01*
X022811Y027244D01*
X022811Y027018D01*
X022697Y026961D02*
X022471Y026961D01*
X022584Y026961D02*
X022584Y027301D01*
X022471Y027188D01*
X022357Y027244D02*
X022300Y027301D01*
X022187Y027301D01*
X022130Y027244D01*
X022130Y027018D01*
X022187Y026961D01*
X022300Y026961D01*
X022357Y027018D01*
X022473Y028367D02*
X022700Y028367D01*
X022757Y028424D01*
X022757Y028537D01*
X022700Y028594D01*
X022757Y028708D02*
X022757Y028935D01*
X022757Y028821D02*
X022416Y028821D01*
X022530Y028708D01*
X022473Y028594D02*
X022416Y028537D01*
X022416Y028424D01*
X022473Y028367D01*
X022473Y029049D02*
X022530Y029049D01*
X022586Y029105D01*
X022586Y029219D01*
X022643Y029275D01*
X022700Y029275D01*
X022757Y029219D01*
X022757Y029105D01*
X022700Y029049D01*
X022643Y029049D01*
X022586Y029105D01*
X022586Y029219D02*
X022530Y029275D01*
X022473Y029275D01*
X022416Y029219D01*
X022416Y029105D01*
X022473Y029049D01*
X020622Y027670D02*
X020622Y027476D01*
X020525Y027380D01*
X020428Y027476D01*
X020428Y027670D01*
X020327Y027670D02*
X020134Y027670D01*
X020134Y027525D01*
X020230Y027573D01*
X020279Y027573D01*
X020327Y027525D01*
X020327Y027428D01*
X020279Y027380D01*
X020182Y027380D01*
X020134Y027428D01*
X019753Y027380D02*
X019753Y027573D01*
X019657Y027670D01*
X019560Y027573D01*
X019560Y027380D01*
X019459Y027428D02*
X019459Y027621D01*
X019410Y027670D01*
X019265Y027670D01*
X019265Y027380D01*
X019410Y027380D01*
X019459Y027428D01*
X019560Y027525D02*
X019753Y027525D01*
X019164Y027476D02*
X019164Y027428D01*
X019116Y027380D01*
X019019Y027380D01*
X018971Y027428D01*
X019019Y027525D02*
X019116Y027525D01*
X019164Y027476D01*
X019164Y027621D02*
X019116Y027670D01*
X019019Y027670D01*
X018971Y027621D01*
X018971Y027573D01*
X019019Y027525D01*
X018769Y027380D02*
X018576Y027380D01*
X018576Y027670D01*
X018475Y027621D02*
X018426Y027670D01*
X018329Y027670D01*
X018281Y027621D01*
X018281Y027428D01*
X018329Y027380D01*
X018426Y027380D01*
X018475Y027428D01*
X018180Y027428D02*
X018132Y027380D01*
X018035Y027380D01*
X017986Y027428D01*
X018035Y027525D02*
X018132Y027525D01*
X018180Y027476D01*
X018180Y027428D01*
X018035Y027525D02*
X017986Y027573D01*
X017986Y027621D01*
X018035Y027670D01*
X018132Y027670D01*
X018180Y027621D01*
X017753Y027621D02*
X017705Y027670D01*
X017560Y027670D01*
X017560Y027380D01*
X017705Y027380D01*
X017753Y027428D01*
X017753Y027621D01*
X017459Y027670D02*
X017459Y027380D01*
X017265Y027670D01*
X017265Y027380D01*
X017164Y027428D02*
X017164Y027525D01*
X017067Y027525D01*
X016971Y027621D02*
X016971Y027428D01*
X017019Y027380D01*
X017116Y027380D01*
X017164Y027428D01*
X017164Y027621D02*
X017116Y027670D01*
X017019Y027670D01*
X016971Y027621D01*
X018009Y028494D02*
X018066Y028437D01*
X018179Y028437D01*
X018236Y028494D01*
X018236Y028721D01*
X018179Y028778D01*
X018066Y028778D01*
X018009Y028721D01*
X018009Y028494D01*
X018122Y028551D02*
X018236Y028437D01*
X018350Y028437D02*
X018577Y028664D01*
X018577Y028721D01*
X018520Y028778D01*
X018406Y028778D01*
X018350Y028721D01*
X018350Y028437D02*
X018577Y028437D01*
X020861Y030918D02*
X020974Y030918D01*
X021031Y030974D01*
X021145Y030974D02*
X021202Y030918D01*
X021315Y030918D01*
X021372Y030974D01*
X021372Y031031D01*
X021315Y031088D01*
X021145Y031088D01*
X021145Y030974D01*
X021145Y031088D02*
X021258Y031201D01*
X021372Y031258D01*
X021031Y031201D02*
X020974Y031258D01*
X020861Y031258D01*
X020804Y031201D01*
X020804Y030974D01*
X020861Y030918D01*
X019377Y031466D02*
X019320Y031410D01*
X019207Y031410D01*
X019150Y031466D01*
X019377Y031693D01*
X019377Y031466D01*
X019150Y031466D02*
X019150Y031693D01*
X019207Y031750D01*
X019320Y031750D01*
X019377Y031693D01*
X019036Y031410D02*
X018809Y031410D01*
X018923Y031410D02*
X018923Y031750D01*
X018809Y031637D01*
X018695Y031693D02*
X018639Y031750D01*
X018469Y031750D01*
X018469Y031410D01*
X018639Y031410D01*
X018695Y031466D01*
X018695Y031693D01*
X022682Y032276D02*
X022682Y032616D01*
X022852Y032616D01*
X022909Y032559D01*
X022909Y032446D01*
X022852Y032389D01*
X022682Y032389D01*
X022796Y032389D02*
X022909Y032276D01*
X023023Y032276D02*
X023250Y032503D01*
X023250Y032559D01*
X023193Y032616D01*
X023080Y032616D01*
X023023Y032559D01*
X023023Y032276D02*
X023250Y032276D01*
X027103Y032276D02*
X027274Y032276D01*
X027330Y032333D01*
X027330Y032559D01*
X027274Y032616D01*
X027103Y032616D01*
X027103Y032276D01*
X027444Y032333D02*
X027444Y032446D01*
X027614Y032446D01*
X027671Y032389D01*
X027671Y032333D01*
X027614Y032276D01*
X027501Y032276D01*
X027444Y032333D01*
X027444Y032446D02*
X027558Y032559D01*
X027671Y032616D01*
X031342Y032675D02*
X031390Y032626D01*
X031583Y032626D01*
X031632Y032675D01*
X031632Y032771D01*
X031583Y032820D01*
X031487Y032820D01*
X031487Y032723D01*
X031390Y032820D02*
X031342Y032771D01*
X031342Y032675D01*
X031342Y032921D02*
X031632Y033115D01*
X031342Y033115D01*
X031342Y033216D02*
X031342Y033361D01*
X031390Y033409D01*
X031583Y033409D01*
X031632Y033361D01*
X031632Y033216D01*
X031342Y033216D01*
X031342Y032921D02*
X031632Y032921D01*
X031918Y032921D02*
X032209Y033115D01*
X031918Y033115D01*
X031918Y033216D02*
X031918Y033361D01*
X031967Y033409D01*
X032160Y033409D01*
X032209Y033361D01*
X032209Y033216D01*
X031918Y033216D01*
X031918Y032921D02*
X032209Y032921D01*
X032160Y032820D02*
X032063Y032820D01*
X032063Y032723D01*
X031967Y032626D02*
X032160Y032626D01*
X032209Y032675D01*
X032209Y032771D01*
X032160Y032820D01*
X031967Y032820D02*
X031918Y032771D01*
X031918Y032675D01*
X031967Y032626D01*
X031880Y032372D02*
X031783Y032275D01*
X031686Y032372D01*
X031686Y032081D01*
X031585Y032081D02*
X031440Y032081D01*
X031392Y032130D01*
X031392Y032226D01*
X031440Y032275D01*
X031585Y032275D01*
X031489Y032275D02*
X031392Y032372D01*
X031585Y032372D02*
X031585Y032081D01*
X031880Y032081D02*
X031880Y032372D01*
X031981Y032226D02*
X032029Y032275D01*
X032175Y032275D01*
X032175Y032372D02*
X032175Y032081D01*
X032029Y032081D01*
X031981Y032130D01*
X031981Y032226D01*
X032015Y033646D02*
X031918Y033743D01*
X032209Y033743D01*
X032209Y033646D02*
X032209Y033840D01*
X032209Y033941D02*
X032015Y034134D01*
X031967Y034134D01*
X031918Y034086D01*
X031918Y033989D01*
X031967Y033941D01*
X032209Y033941D02*
X032209Y034134D01*
X032112Y034235D02*
X032209Y034332D01*
X032112Y034429D01*
X031918Y034429D01*
X031918Y034235D02*
X032112Y034235D01*
X031632Y034332D02*
X031535Y034429D01*
X031342Y034429D01*
X031342Y034235D02*
X031535Y034235D01*
X031632Y034332D01*
X031632Y034134D02*
X031632Y033941D01*
X031438Y034134D01*
X031390Y034134D01*
X031342Y034086D01*
X031342Y033989D01*
X031390Y033941D01*
X031342Y033743D02*
X031632Y033743D01*
X031632Y033646D02*
X031632Y033840D01*
X031438Y033646D02*
X031342Y033743D01*
X037267Y035006D02*
X037267Y035346D01*
X037494Y035346D01*
X037607Y035346D02*
X037607Y035063D01*
X037664Y035006D01*
X037778Y035006D01*
X037834Y035063D01*
X037834Y035346D01*
X037948Y035290D02*
X037948Y035233D01*
X038005Y035176D01*
X038118Y035176D01*
X038175Y035120D01*
X038175Y035063D01*
X038118Y035006D01*
X038005Y035006D01*
X037948Y035063D01*
X037948Y035290D02*
X038005Y035346D01*
X038118Y035346D01*
X038175Y035290D01*
X038289Y035346D02*
X038289Y035006D01*
X038516Y035006D01*
X038402Y035176D02*
X038289Y035176D01*
X038289Y035346D02*
X038516Y035346D01*
X037380Y035176D02*
X037267Y035176D01*
X037437Y033354D02*
X037607Y033354D01*
X037664Y033298D01*
X037664Y033184D01*
X037607Y033127D01*
X037437Y033127D01*
X037437Y033014D02*
X037437Y033354D01*
X037778Y033354D02*
X037778Y033014D01*
X037891Y033127D01*
X038005Y033014D01*
X038005Y033354D01*
X038118Y033354D02*
X038289Y033354D01*
X038345Y033298D01*
X038345Y033184D01*
X038289Y033127D01*
X038118Y033127D01*
X038118Y033014D02*
X038118Y033354D01*
X038232Y033127D02*
X038345Y033014D01*
X024762Y020530D02*
X024762Y020189D01*
X024649Y020189D02*
X024876Y020189D01*
X024649Y020416D02*
X024762Y020530D01*
X024535Y020530D02*
X024308Y020530D01*
X024422Y020530D02*
X024422Y020189D01*
X023717Y018128D02*
X023773Y018071D01*
X023773Y018015D01*
X023717Y017958D01*
X023773Y017901D01*
X023773Y017844D01*
X023717Y017788D01*
X023603Y017788D01*
X023546Y017844D01*
X023433Y017844D02*
X023376Y017788D01*
X023263Y017788D01*
X023206Y017844D01*
X023206Y018071D01*
X023263Y018128D01*
X023376Y018128D01*
X023433Y018071D01*
X023546Y018071D02*
X023603Y018128D01*
X023717Y018128D01*
X023717Y017958D02*
X023660Y017958D01*
X025411Y018071D02*
X025411Y017844D01*
X025467Y017788D01*
X025581Y017788D01*
X025637Y017844D01*
X025751Y017958D02*
X025978Y017958D01*
X025921Y017788D02*
X025921Y018128D01*
X025751Y017958D01*
X025637Y018071D02*
X025581Y018128D01*
X025467Y018128D01*
X025411Y018071D01*
X021490Y018277D02*
X021490Y018504D01*
X021433Y018561D01*
X021320Y018561D01*
X021263Y018504D01*
X021263Y018448D01*
X021320Y018391D01*
X021490Y018391D01*
X021490Y018277D02*
X021433Y018221D01*
X021320Y018221D01*
X021263Y018277D01*
X021149Y018277D02*
X021092Y018221D01*
X020979Y018221D01*
X020922Y018277D01*
X020922Y018504D01*
X020979Y018561D01*
X021092Y018561D01*
X021149Y018504D01*
X020982Y019336D02*
X020789Y019336D01*
X020885Y019336D02*
X020885Y019626D01*
X020789Y019529D01*
X020688Y019529D02*
X020688Y019578D01*
X020639Y019626D01*
X020542Y019626D01*
X020494Y019578D01*
X020393Y019578D02*
X020393Y019481D01*
X020345Y019433D01*
X020199Y019433D01*
X020199Y019336D02*
X020199Y019626D01*
X020345Y019626D01*
X020393Y019578D01*
X020296Y019433D02*
X020393Y019336D01*
X020494Y019336D02*
X020688Y019529D01*
X020688Y019336D02*
X020494Y019336D01*
X019937Y020386D02*
X019824Y020386D01*
X019767Y020443D01*
X019767Y020500D01*
X019824Y020556D01*
X019937Y020556D01*
X019994Y020500D01*
X019994Y020443D01*
X019937Y020386D01*
X019937Y020556D02*
X019994Y020613D01*
X019994Y020670D01*
X019937Y020726D01*
X019824Y020726D01*
X019767Y020670D01*
X019767Y020613D01*
X019824Y020556D01*
X019653Y020443D02*
X019596Y020386D01*
X019483Y020386D01*
X019426Y020443D01*
X019426Y020670D01*
X019483Y020726D01*
X019596Y020726D01*
X019653Y020670D01*
X017789Y020937D02*
X017562Y020937D01*
X017789Y021164D01*
X017789Y021221D01*
X017732Y021278D01*
X017619Y021278D01*
X017562Y021221D01*
X017448Y021221D02*
X017392Y021278D01*
X017278Y021278D01*
X017222Y021221D01*
X017222Y020994D01*
X017278Y020937D01*
X017392Y020937D01*
X017448Y020994D01*
X015584Y020937D02*
X015358Y020937D01*
X015471Y020937D02*
X015471Y021278D01*
X015358Y021164D01*
X015244Y021221D02*
X015187Y021278D01*
X015074Y021278D01*
X015017Y021221D01*
X015017Y020994D01*
X015074Y020937D01*
X015187Y020937D01*
X015244Y020994D01*
X016119Y018876D02*
X016346Y018876D01*
X016233Y018876D02*
X016233Y018536D01*
X016460Y018536D02*
X016687Y018763D01*
X016687Y018819D01*
X016630Y018876D01*
X016517Y018876D01*
X016460Y018819D01*
X016460Y018536D02*
X016687Y018536D01*
X012439Y016625D02*
X012390Y016674D01*
X012245Y016674D01*
X012245Y016384D01*
X012390Y016384D01*
X012439Y016432D01*
X012439Y016625D01*
X012144Y016674D02*
X012144Y016384D01*
X011950Y016674D01*
X011950Y016384D01*
X011849Y016432D02*
X011801Y016384D01*
X011704Y016384D01*
X011656Y016432D01*
X011656Y016625D01*
X011704Y016674D01*
X011801Y016674D01*
X011849Y016625D01*
X011849Y016529D02*
X011752Y016529D01*
X011849Y016529D02*
X011849Y016432D01*
X011883Y016958D02*
X011690Y016958D01*
X011690Y017249D01*
X011883Y017249D01*
X011786Y017103D02*
X011690Y017103D01*
X011589Y017103D02*
X011540Y017055D01*
X011395Y017055D01*
X011395Y016958D02*
X011395Y017249D01*
X011540Y017249D01*
X011589Y017200D01*
X011589Y017103D01*
X011492Y017055D02*
X011589Y016958D01*
X011295Y016958D02*
X011199Y016958D01*
X011247Y016958D02*
X011247Y017249D01*
X011199Y017249D02*
X011295Y017249D01*
X011097Y017249D02*
X011097Y016958D01*
X011001Y017055D01*
X010904Y016958D01*
X010904Y017249D01*
X010774Y017103D02*
X010580Y017103D01*
X010506Y016958D02*
X010313Y016958D01*
X010409Y016958D02*
X010409Y017249D01*
X010313Y017152D01*
X010291Y016674D02*
X010291Y016480D01*
X010194Y016384D01*
X010098Y016480D01*
X010098Y016674D01*
X009997Y016674D02*
X009803Y016674D01*
X009803Y016529D01*
X009900Y016577D01*
X009948Y016577D01*
X009997Y016529D01*
X009997Y016432D01*
X009948Y016384D01*
X009851Y016384D01*
X009803Y016432D01*
X010819Y016384D02*
X010964Y016384D01*
X011012Y016432D01*
X011012Y016625D01*
X010964Y016674D01*
X010819Y016674D01*
X010819Y016384D01*
X011113Y016432D02*
X011162Y016384D01*
X011259Y016384D01*
X011307Y016432D01*
X011307Y016625D01*
X011259Y016674D01*
X011162Y016674D01*
X011113Y016625D01*
X011113Y016432D01*
X011210Y016480D02*
X011307Y016384D01*
X010453Y014420D02*
X010453Y014193D01*
X010453Y014307D02*
X010113Y014307D01*
X010227Y014193D01*
X010453Y014079D02*
X010453Y013852D01*
X010113Y013852D01*
X007608Y013310D02*
X007608Y013262D01*
X007559Y013214D01*
X007463Y013214D01*
X007414Y013262D01*
X007414Y013310D01*
X007463Y013359D01*
X007559Y013359D01*
X007608Y013310D01*
X007559Y013214D02*
X007608Y013165D01*
X007608Y013117D01*
X007559Y013069D01*
X007463Y013069D01*
X007414Y013117D01*
X007414Y013165D01*
X007463Y013214D01*
X007313Y013069D02*
X007120Y013069D01*
X007216Y013069D02*
X007216Y013359D01*
X007120Y013262D01*
X007018Y013214D02*
X006970Y013165D01*
X006825Y013165D01*
X006825Y013069D02*
X006825Y013359D01*
X006970Y013359D01*
X007018Y013310D01*
X007018Y013214D01*
X006922Y013165D02*
X007018Y013069D01*
X006972Y014348D02*
X006972Y014638D01*
X007117Y014638D01*
X007166Y014590D01*
X007166Y014493D01*
X007117Y014445D01*
X006972Y014445D01*
X007069Y014445D02*
X007166Y014348D01*
X007267Y014396D02*
X007267Y014493D01*
X007412Y014493D01*
X007460Y014445D01*
X007460Y014396D01*
X007412Y014348D01*
X007315Y014348D01*
X007267Y014396D01*
X007267Y014493D02*
X007364Y014590D01*
X007460Y014638D01*
X005663Y015622D02*
X005436Y015622D01*
X005663Y015849D01*
X005663Y015906D01*
X005606Y015963D01*
X005493Y015963D01*
X005436Y015906D01*
X005322Y015963D02*
X005322Y015622D01*
X005096Y015963D01*
X005096Y015622D01*
X003631Y016680D02*
X003631Y016728D01*
X003583Y016777D01*
X003438Y016777D01*
X003438Y016680D01*
X003486Y016632D01*
X003583Y016632D01*
X003631Y016680D01*
X003535Y016873D02*
X003438Y016777D01*
X003535Y016873D02*
X003631Y016922D01*
X003240Y016922D02*
X003240Y016632D01*
X003143Y016632D02*
X003337Y016632D01*
X003143Y016825D02*
X003240Y016922D01*
X003042Y016873D02*
X003042Y016777D01*
X002994Y016728D01*
X002849Y016728D01*
X002945Y016728D02*
X003042Y016632D01*
X002849Y016632D02*
X002849Y016922D01*
X002994Y016922D01*
X003042Y016873D01*
X002120Y018181D02*
X001893Y018522D01*
X001779Y018465D02*
X001779Y018352D01*
X001722Y018295D01*
X001552Y018295D01*
X001552Y018181D02*
X001552Y018522D01*
X001722Y018522D01*
X001779Y018465D01*
X001666Y018295D02*
X001779Y018181D01*
X001893Y018181D02*
X002120Y018522D01*
X002120Y019756D02*
X001893Y020096D01*
X001779Y020096D02*
X001552Y020096D01*
X001666Y020096D02*
X001666Y019756D01*
X001893Y019756D02*
X002120Y020096D01*
X002849Y021356D02*
X002849Y021646D01*
X002994Y021646D01*
X003042Y021598D01*
X003042Y021501D01*
X002994Y021453D01*
X002849Y021453D01*
X002945Y021453D02*
X003042Y021356D01*
X003143Y021356D02*
X003337Y021356D01*
X003240Y021356D02*
X003240Y021646D01*
X003143Y021549D01*
X003438Y021501D02*
X003438Y021646D01*
X003631Y021646D01*
X003583Y021549D02*
X003631Y021501D01*
X003631Y021404D01*
X003583Y021356D01*
X003486Y021356D01*
X003438Y021404D01*
X003438Y021501D02*
X003535Y021549D01*
X003583Y021549D01*
X004574Y020742D02*
X004622Y020790D01*
X004574Y020742D02*
X004574Y020645D01*
X004622Y020597D01*
X004670Y020597D01*
X004719Y020645D01*
X004719Y020742D01*
X004767Y020790D01*
X004815Y020790D01*
X004864Y020742D01*
X004864Y020645D01*
X004815Y020597D01*
X004864Y020496D02*
X004574Y020496D01*
X004574Y020350D01*
X004622Y020302D01*
X004815Y020302D01*
X004864Y020350D01*
X004864Y020496D01*
X004767Y020201D02*
X004864Y020104D01*
X004767Y020007D01*
X004574Y020007D01*
X004719Y020007D02*
X004719Y020201D01*
X004767Y020201D02*
X004574Y020201D01*
X004622Y019774D02*
X004574Y019726D01*
X004574Y019629D01*
X004622Y019581D01*
X004670Y019581D01*
X004719Y019629D01*
X004719Y019726D01*
X004767Y019774D01*
X004815Y019774D01*
X004864Y019726D01*
X004864Y019629D01*
X004815Y019581D01*
X004815Y019480D02*
X004622Y019480D01*
X004574Y019431D01*
X004574Y019335D01*
X004622Y019286D01*
X004574Y019185D02*
X004574Y018992D01*
X004574Y019185D02*
X004864Y019185D01*
X004815Y019286D02*
X004864Y019335D01*
X004864Y019431D01*
X004815Y019480D01*
X004815Y018790D02*
X004622Y018790D01*
X004574Y018742D01*
X004574Y018645D01*
X004622Y018597D01*
X004719Y018597D01*
X004719Y018693D01*
X004815Y018597D02*
X004864Y018645D01*
X004864Y018742D01*
X004815Y018790D01*
X004864Y018496D02*
X004574Y018496D01*
X004574Y018302D02*
X004864Y018302D01*
X004864Y018201D02*
X004864Y018056D01*
X004815Y018007D01*
X004622Y018007D01*
X004574Y018056D01*
X004574Y018201D01*
X004864Y018201D01*
X004864Y018496D02*
X004574Y018302D01*
X006825Y017237D02*
X006825Y016947D01*
X006825Y017043D02*
X006970Y017043D01*
X007018Y017092D01*
X007018Y017188D01*
X006970Y017237D01*
X006825Y017237D01*
X006922Y017043D02*
X007018Y016947D01*
X007120Y016947D02*
X007313Y016947D01*
X007216Y016947D02*
X007216Y017237D01*
X007120Y017140D01*
X007414Y017237D02*
X007608Y017237D01*
X007608Y017188D01*
X007414Y016995D01*
X007414Y016947D01*
X008035Y018167D02*
X008035Y018457D01*
X008180Y018457D01*
X008229Y018409D01*
X008229Y018312D01*
X008180Y018264D01*
X008035Y018264D01*
X008132Y018264D02*
X008229Y018167D01*
X008330Y018215D02*
X008378Y018167D01*
X008475Y018167D01*
X008523Y018215D01*
X008523Y018312D01*
X008475Y018360D01*
X008427Y018360D01*
X008330Y018312D01*
X008330Y018457D01*
X008523Y018457D01*
X008545Y019126D02*
X008318Y019126D01*
X008432Y019126D02*
X008432Y019467D01*
X008318Y019353D01*
X008204Y019467D02*
X008204Y019126D01*
X007977Y019467D01*
X007977Y019126D01*
X007739Y021789D02*
X007739Y021837D01*
X007933Y022031D01*
X007933Y022079D01*
X007739Y022079D01*
X007638Y022031D02*
X007638Y021837D01*
X007590Y021789D01*
X007445Y021789D01*
X007445Y022079D01*
X007590Y022079D01*
X007638Y022031D01*
X011500Y022079D02*
X011500Y021789D01*
X011645Y021789D01*
X011693Y021837D01*
X011693Y022031D01*
X011645Y022079D01*
X011500Y022079D01*
X011795Y022031D02*
X011795Y021983D01*
X011843Y021934D01*
X011940Y021934D01*
X011988Y021886D01*
X011988Y021837D01*
X011940Y021789D01*
X011843Y021789D01*
X011795Y021837D01*
X011795Y021886D01*
X011843Y021934D01*
X011940Y021934D02*
X011988Y021983D01*
X011988Y022031D01*
X011940Y022079D01*
X011843Y022079D01*
X011795Y022031D01*
X011676Y019506D02*
X011903Y019506D01*
X011903Y019449D01*
X011676Y019222D01*
X011676Y019166D01*
X011563Y019222D02*
X011506Y019166D01*
X011392Y019166D01*
X011336Y019222D01*
X011336Y019449D01*
X011392Y019506D01*
X011506Y019506D01*
X011563Y019449D01*
X011500Y018457D02*
X011645Y018457D01*
X011693Y018409D01*
X011693Y018215D01*
X011645Y018167D01*
X011500Y018167D01*
X011500Y018457D01*
X011795Y018409D02*
X011843Y018457D01*
X011940Y018457D01*
X011988Y018409D01*
X011988Y018360D01*
X011940Y018312D01*
X011988Y018264D01*
X011988Y018215D01*
X011940Y018167D01*
X011843Y018167D01*
X011795Y018215D01*
X011891Y018312D02*
X011940Y018312D01*
X015594Y013024D02*
X015739Y013024D01*
X015788Y012976D01*
X015788Y012879D01*
X015739Y012831D01*
X015594Y012831D01*
X015594Y012734D02*
X015594Y013024D01*
X015691Y012831D02*
X015788Y012734D01*
X015889Y012782D02*
X015937Y012734D01*
X016034Y012734D01*
X016083Y012782D01*
X016083Y012976D01*
X016034Y013024D01*
X015937Y013024D01*
X015889Y012976D01*
X015889Y012927D01*
X015937Y012879D01*
X016083Y012879D01*
X016085Y011961D02*
X016181Y011961D01*
X016230Y011913D01*
X016036Y011719D01*
X016085Y011671D01*
X016181Y011671D01*
X016230Y011719D01*
X016230Y011913D01*
X016085Y011961D02*
X016036Y011913D01*
X016036Y011719D01*
X015935Y011671D02*
X015742Y011671D01*
X015935Y011864D01*
X015935Y011913D01*
X015887Y011961D01*
X015790Y011961D01*
X015742Y011913D01*
X015641Y011913D02*
X015641Y011816D01*
X015592Y011768D01*
X015447Y011768D01*
X015544Y011768D02*
X015641Y011671D01*
X015447Y011671D02*
X015447Y011961D01*
X015592Y011961D01*
X015641Y011913D01*
X015481Y009570D02*
X015368Y009570D01*
X015311Y009513D01*
X015311Y009286D01*
X015368Y009230D01*
X015481Y009230D01*
X015538Y009286D01*
X015538Y009513D02*
X015481Y009570D01*
X015197Y009513D02*
X015141Y009570D01*
X015027Y009570D01*
X014971Y009513D01*
X014971Y009286D01*
X015027Y009230D01*
X015141Y009230D01*
X015197Y009286D01*
X014857Y009343D02*
X014857Y009570D01*
X014857Y009343D02*
X014743Y009230D01*
X014630Y009343D01*
X014630Y009570D01*
X016091Y009570D02*
X016261Y009570D01*
X016317Y009513D01*
X016317Y009400D01*
X016261Y009343D01*
X016091Y009343D01*
X016091Y009230D02*
X016091Y009570D01*
X016431Y009570D02*
X016431Y009230D01*
X016545Y009343D01*
X016658Y009230D01*
X016658Y009570D01*
X016772Y009570D02*
X016885Y009456D01*
X016999Y009570D01*
X016999Y009230D01*
X016772Y009230D02*
X016772Y009570D01*
X019228Y009570D02*
X019342Y009456D01*
X019455Y009570D01*
X019455Y009230D01*
X019569Y009230D02*
X019569Y009456D01*
X019682Y009570D01*
X019796Y009456D01*
X019796Y009230D01*
X019910Y009230D02*
X019910Y009570D01*
X020137Y009230D01*
X020137Y009570D01*
X019796Y009400D02*
X019569Y009400D01*
X019228Y009230D02*
X019228Y009570D01*
X020680Y009456D02*
X020794Y009570D01*
X020907Y009456D01*
X020907Y009230D01*
X021021Y009286D02*
X021077Y009230D01*
X021191Y009230D01*
X021248Y009286D01*
X021248Y009570D01*
X021361Y009570D02*
X021588Y009570D01*
X021475Y009570D02*
X021475Y009230D01*
X021702Y009286D02*
X021759Y009230D01*
X021872Y009230D01*
X021929Y009286D01*
X021929Y009513D01*
X021872Y009570D01*
X021759Y009570D01*
X021702Y009513D01*
X021702Y009286D01*
X021021Y009286D02*
X021021Y009570D01*
X020907Y009400D02*
X020680Y009400D01*
X020680Y009456D02*
X020680Y009230D01*
X021191Y011685D02*
X021304Y011685D01*
X021361Y011742D01*
X021475Y011685D02*
X021701Y011685D01*
X021588Y011685D02*
X021588Y012026D01*
X021475Y011912D01*
X021361Y011969D02*
X021304Y012026D01*
X021191Y012026D01*
X021134Y011969D01*
X021134Y011742D01*
X021191Y011685D01*
X021815Y011742D02*
X021872Y011685D01*
X021985Y011685D01*
X022042Y011742D01*
X022042Y011799D01*
X021985Y011855D01*
X021929Y011855D01*
X021985Y011855D02*
X022042Y011912D01*
X022042Y011969D01*
X021985Y012026D01*
X021872Y012026D01*
X021815Y011969D01*
X019837Y011969D02*
X019781Y012026D01*
X019667Y012026D01*
X019611Y011969D01*
X019837Y011969D02*
X019837Y011912D01*
X019611Y011685D01*
X019837Y011685D01*
X019497Y011685D02*
X019270Y011685D01*
X019383Y011685D02*
X019383Y012026D01*
X019270Y011912D01*
X019156Y011969D02*
X019099Y012026D01*
X018986Y012026D01*
X018929Y011969D01*
X018929Y011742D01*
X018986Y011685D01*
X019099Y011685D01*
X019156Y011742D01*
X024000Y009570D02*
X024000Y009343D01*
X024113Y009230D01*
X024227Y009343D01*
X024227Y009570D01*
X024341Y009513D02*
X024341Y009286D01*
X024397Y009230D01*
X024511Y009230D01*
X024568Y009286D01*
X024681Y009286D02*
X024738Y009230D01*
X024852Y009230D01*
X024908Y009286D01*
X024681Y009286D02*
X024681Y009513D01*
X024738Y009570D01*
X024852Y009570D01*
X024908Y009513D01*
X024568Y009513D02*
X024511Y009570D01*
X024397Y009570D01*
X024341Y009513D01*
X025461Y009570D02*
X025631Y009570D01*
X025688Y009513D01*
X025688Y009400D01*
X025631Y009343D01*
X025461Y009343D01*
X025461Y009230D02*
X025461Y009570D01*
X025801Y009570D02*
X025801Y009230D01*
X025915Y009343D01*
X026028Y009230D01*
X026028Y009570D01*
X026142Y009570D02*
X026255Y009456D01*
X026369Y009570D01*
X026369Y009230D01*
X026142Y009230D02*
X026142Y009570D01*
X025404Y011671D02*
X025404Y011961D01*
X025259Y011816D01*
X025453Y011816D01*
X025158Y011816D02*
X025110Y011768D01*
X024964Y011768D01*
X024964Y011671D02*
X024964Y011961D01*
X025110Y011961D01*
X025158Y011913D01*
X025158Y011816D01*
X025061Y011768D02*
X025158Y011671D01*
X025158Y012734D02*
X025061Y012831D01*
X025110Y012831D02*
X024964Y012831D01*
X024964Y012734D02*
X024964Y013024D01*
X025110Y013024D01*
X025158Y012976D01*
X025158Y012879D01*
X025110Y012831D01*
X025259Y012782D02*
X025307Y012734D01*
X025404Y012734D01*
X025453Y012782D01*
X025453Y012831D01*
X025404Y012879D01*
X025356Y012879D01*
X025404Y012879D02*
X025453Y012927D01*
X025453Y012976D01*
X025404Y013024D01*
X025307Y013024D01*
X025259Y012976D01*
X015227Y026317D02*
X015130Y026317D01*
X015082Y026365D01*
X015082Y026413D01*
X015130Y026462D01*
X015227Y026462D01*
X015275Y026413D01*
X015275Y026365D01*
X015227Y026317D01*
X015227Y026462D02*
X015275Y026510D01*
X015275Y026558D01*
X015227Y026607D01*
X015130Y026607D01*
X015082Y026558D01*
X015082Y026510D01*
X015130Y026462D01*
X014981Y026462D02*
X014932Y026413D01*
X014787Y026413D01*
X014787Y026317D02*
X014787Y026607D01*
X014932Y026607D01*
X014981Y026558D01*
X014981Y026462D01*
X014884Y026413D02*
X014981Y026317D01*
X011742Y026365D02*
X011742Y026558D01*
X011693Y026607D01*
X011597Y026607D01*
X011548Y026558D01*
X011548Y026510D01*
X011597Y026462D01*
X011742Y026462D01*
X011742Y026365D02*
X011693Y026317D01*
X011597Y026317D01*
X011548Y026365D01*
X011447Y026317D02*
X011254Y026317D01*
X011350Y026317D02*
X011350Y026607D01*
X011254Y026510D01*
X011152Y026462D02*
X011104Y026413D01*
X010959Y026413D01*
X010959Y026317D02*
X010959Y026607D01*
X011104Y026607D01*
X011152Y026558D01*
X011152Y026462D01*
X011056Y026413D02*
X011152Y026317D01*
X009629Y028367D02*
X009686Y028424D01*
X009686Y028537D01*
X009629Y028594D01*
X009686Y028708D02*
X009686Y028935D01*
X009686Y029049D02*
X009629Y029049D01*
X009402Y029275D01*
X009345Y029275D01*
X009345Y029049D01*
X009345Y028821D02*
X009686Y028821D01*
X009459Y028708D02*
X009345Y028821D01*
X009402Y028594D02*
X009345Y028537D01*
X009345Y028424D01*
X009402Y028367D01*
X009629Y028367D01*
X007421Y026607D02*
X007421Y026558D01*
X007228Y026365D01*
X007228Y026317D01*
X007126Y026317D02*
X007030Y026413D01*
X007078Y026413D02*
X006933Y026413D01*
X006933Y026317D02*
X006933Y026607D01*
X007078Y026607D01*
X007126Y026558D01*
X007126Y026462D01*
X007078Y026413D01*
X007228Y026607D02*
X007421Y026607D01*
X005466Y028437D02*
X005239Y028437D01*
X005126Y028437D02*
X005012Y028551D01*
X004899Y028494D02*
X004955Y028437D01*
X005069Y028437D01*
X005126Y028494D01*
X005126Y028721D01*
X005069Y028778D01*
X004955Y028778D01*
X004899Y028721D01*
X004899Y028494D01*
X005239Y028664D02*
X005353Y028778D01*
X005353Y028437D01*
X003631Y026855D02*
X003438Y026855D01*
X003583Y027001D01*
X003583Y026710D01*
X003337Y026710D02*
X003143Y026710D01*
X003240Y026710D02*
X003240Y027001D01*
X003143Y026904D01*
X003042Y026952D02*
X003042Y026855D01*
X002994Y026807D01*
X002849Y026807D01*
X002945Y026807D02*
X003042Y026710D01*
X002849Y026710D02*
X002849Y027001D01*
X002994Y027001D01*
X003042Y026952D01*
X005450Y031410D02*
X005620Y031410D01*
X005677Y031466D01*
X005677Y031693D01*
X005620Y031750D01*
X005450Y031750D01*
X005450Y031410D01*
X005791Y031466D02*
X005847Y031410D01*
X005961Y031410D01*
X006017Y031466D01*
X006017Y031693D01*
X005961Y031750D01*
X005847Y031750D01*
X005791Y031693D01*
X005791Y031637D01*
X005847Y031580D01*
X006017Y031580D01*
X007733Y031201D02*
X007733Y030974D01*
X007790Y030918D01*
X007904Y030918D01*
X007960Y030974D01*
X008074Y030974D02*
X008131Y030918D01*
X008244Y030918D01*
X008301Y030974D01*
X008301Y031088D01*
X008244Y031144D01*
X008187Y031144D01*
X008074Y031088D01*
X008074Y031258D01*
X008301Y031258D01*
X007960Y031201D02*
X007904Y031258D01*
X007790Y031258D01*
X007733Y031201D01*
X009533Y032276D02*
X009533Y032616D01*
X009703Y032616D01*
X009759Y032559D01*
X009759Y032446D01*
X009703Y032389D01*
X009533Y032389D01*
X009646Y032389D02*
X009759Y032276D01*
X009873Y032276D02*
X010100Y032276D01*
X009987Y032276D02*
X009987Y032616D01*
X009873Y032503D01*
X013954Y032616D02*
X013954Y032276D01*
X014124Y032276D01*
X014181Y032333D01*
X014181Y032559D01*
X014124Y032616D01*
X013954Y032616D01*
X014295Y032616D02*
X014295Y032446D01*
X014408Y032503D01*
X014465Y032503D01*
X014521Y032446D01*
X014521Y032333D01*
X014465Y032276D01*
X014351Y032276D01*
X014295Y032333D01*
X014295Y032616D02*
X014521Y032616D01*
X003346Y034764D02*
X003056Y034764D01*
X003056Y034570D01*
X002771Y034718D02*
X002481Y034911D01*
X002481Y035012D02*
X002578Y035109D01*
X002578Y035061D02*
X002578Y035206D01*
X002481Y035206D02*
X002771Y035206D01*
X002771Y035061D01*
X002723Y035012D01*
X002626Y035012D01*
X002578Y035061D01*
X002771Y034911D02*
X002481Y034718D01*
X002196Y034766D02*
X002196Y034863D01*
X002148Y034911D01*
X001955Y034911D01*
X001906Y034863D01*
X001906Y034766D01*
X001955Y034718D01*
X002148Y034718D02*
X002196Y034766D01*
X002196Y035012D02*
X001906Y035012D01*
X002196Y035206D01*
X001906Y035206D01*
X001955Y035570D02*
X002148Y035570D01*
X002196Y035619D01*
X002196Y035764D01*
X001906Y035764D01*
X001906Y035619D01*
X001955Y035570D01*
X001906Y035865D02*
X002196Y035865D01*
X002196Y036058D02*
X001906Y036058D01*
X001955Y036160D02*
X002051Y036160D01*
X002051Y036256D01*
X001955Y036160D02*
X001906Y036208D01*
X001906Y036305D01*
X001955Y036353D01*
X002148Y036353D01*
X002196Y036305D01*
X002196Y036208D01*
X002148Y036160D01*
X002196Y036058D02*
X001906Y035865D01*
X002481Y035905D02*
X002481Y036002D01*
X002529Y036051D01*
X002626Y036002D02*
X002674Y036051D01*
X002723Y036051D01*
X002771Y036002D01*
X002771Y035905D01*
X002723Y035857D01*
X002626Y035905D02*
X002578Y035857D01*
X002529Y035857D01*
X002481Y035905D01*
X002626Y035905D02*
X002626Y036002D01*
X002626Y036152D02*
X002578Y036200D01*
X002578Y036345D01*
X002578Y036249D02*
X002481Y036152D01*
X002626Y036152D02*
X002723Y036152D01*
X002771Y036200D01*
X002771Y036345D01*
X002481Y036345D01*
X002771Y035756D02*
X002771Y035562D01*
X002771Y035659D02*
X002481Y035659D01*
X003056Y035256D02*
X003346Y035256D01*
X003346Y035160D02*
X003346Y035353D01*
X003346Y035058D02*
X003346Y034865D01*
X003346Y034962D02*
X003056Y034962D01*
X002771Y034202D02*
X002771Y034008D01*
X002771Y034105D02*
X002481Y034105D01*
X002481Y033907D02*
X002771Y033714D01*
X002771Y033907D02*
X002481Y033714D01*
X002196Y033700D02*
X002196Y033603D01*
X002148Y033555D01*
X002051Y033603D02*
X002003Y033555D01*
X001955Y033555D01*
X001906Y033603D01*
X001906Y033700D01*
X001955Y033748D01*
X002051Y033700D02*
X002051Y033603D01*
X002051Y033700D02*
X002100Y033748D01*
X002148Y033748D01*
X002196Y033700D01*
X002196Y033849D02*
X002196Y034043D01*
X002196Y033946D02*
X001906Y033946D01*
X001955Y034144D02*
X001906Y034192D01*
X001906Y034289D01*
X001955Y034337D01*
X002148Y034337D01*
X002196Y034289D01*
X002196Y034192D01*
X002148Y034144D01*
X005811Y009560D02*
X005811Y009511D01*
X005908Y009414D01*
X005908Y009269D01*
X005908Y009414D02*
X006004Y009511D01*
X006004Y009560D01*
X006106Y009463D02*
X006202Y009560D01*
X006202Y009269D01*
X006106Y009269D02*
X006299Y009269D01*
D14*
X011287Y018312D03*
X011287Y021934D03*
X008177Y021934D03*
X030500Y014414D03*
D15*
X033984Y026658D03*
X026780Y032446D03*
X013630Y032446D03*
D16*
X016990Y027816D02*
X020742Y027816D01*
X020761Y027814D01*
X020780Y027810D01*
X020798Y027802D01*
X020815Y027792D01*
X020830Y027780D01*
X020842Y027765D01*
X020852Y027748D01*
X020860Y027730D01*
X020864Y027711D01*
X020866Y027692D01*
X020866Y027361D01*
X020864Y027342D01*
X020860Y027323D01*
X020852Y027305D01*
X020842Y027288D01*
X020830Y027273D01*
X020815Y027261D01*
X020798Y027251D01*
X020780Y027243D01*
X020761Y027239D01*
X020742Y027237D01*
X019866Y027237D01*
X019866Y027812D01*
X019866Y027237D02*
X018866Y027237D01*
X018866Y027812D01*
X018866Y027237D02*
X017866Y027237D01*
X017866Y027812D01*
X017866Y027237D02*
X016990Y027237D01*
X016971Y027239D01*
X016952Y027243D01*
X016934Y027251D01*
X016917Y027261D01*
X016902Y027273D01*
X016890Y027288D01*
X016880Y027305D01*
X016872Y027323D01*
X016868Y027342D01*
X016866Y027361D01*
X016866Y027692D01*
X016868Y027711D01*
X016872Y027730D01*
X016880Y027748D01*
X016890Y027765D01*
X016902Y027780D01*
X016917Y027792D01*
X016934Y027802D01*
X016952Y027810D01*
X016971Y027814D01*
X016990Y027816D01*
X019025Y024062D02*
X019340Y024062D01*
X019183Y024062D02*
X019183Y023590D01*
X020585Y023590D02*
X020820Y023590D01*
X020899Y023669D01*
X020899Y023983D01*
X020820Y024062D01*
X020585Y024062D01*
X020585Y023590D01*
X012551Y017267D02*
X012551Y016816D01*
X011551Y016816D01*
X011551Y016241D01*
X012427Y016241D01*
X012446Y016243D01*
X012465Y016247D01*
X012483Y016255D01*
X012500Y016265D01*
X012515Y016277D01*
X012527Y016292D01*
X012537Y016309D01*
X012545Y016327D01*
X012549Y016346D01*
X012551Y016365D01*
X012551Y016816D01*
X012551Y017267D02*
X012549Y017286D01*
X012545Y017305D01*
X012537Y017323D01*
X012527Y017340D01*
X012515Y017355D01*
X012500Y017367D01*
X012483Y017377D01*
X012465Y017385D01*
X012446Y017389D01*
X012427Y017391D01*
X009675Y017391D01*
X009656Y017389D01*
X009637Y017385D01*
X009619Y017377D01*
X009602Y017367D01*
X009587Y017355D01*
X009575Y017340D01*
X009565Y017323D01*
X009557Y017305D01*
X009553Y017286D01*
X009551Y017267D01*
X009551Y016816D01*
X010551Y016816D01*
X010551Y016241D01*
X011551Y016241D01*
X011551Y016816D02*
X010551Y016816D01*
X010551Y016241D02*
X009675Y016241D01*
X009656Y016243D01*
X009637Y016247D01*
X009619Y016255D01*
X009602Y016265D01*
X009587Y016277D01*
X009575Y016292D01*
X009565Y016309D01*
X009557Y016327D01*
X009553Y016346D01*
X009551Y016365D01*
X009551Y016816D01*
X005006Y018019D02*
X005006Y020771D01*
X005004Y020790D01*
X005000Y020809D01*
X004992Y020827D01*
X004982Y020844D01*
X004970Y020859D01*
X004955Y020871D01*
X004938Y020881D01*
X004920Y020889D01*
X004901Y020893D01*
X004882Y020895D01*
X004555Y020895D01*
X004536Y020893D01*
X004517Y020889D01*
X004499Y020881D01*
X004482Y020871D01*
X004467Y020859D01*
X004455Y020844D01*
X004445Y020827D01*
X004437Y020809D01*
X004433Y020790D01*
X004431Y020771D01*
X004431Y019895D01*
X005006Y019895D01*
X004431Y019895D02*
X004431Y018895D01*
X005006Y018895D01*
X004431Y018895D02*
X004431Y018019D01*
X004433Y018000D01*
X004437Y017981D01*
X004445Y017963D01*
X004455Y017946D01*
X004467Y017931D01*
X004482Y017919D01*
X004499Y017909D01*
X004517Y017901D01*
X004536Y017897D01*
X004555Y017895D01*
X004882Y017895D01*
X004901Y017897D01*
X004920Y017901D01*
X004938Y017909D01*
X004955Y017919D01*
X004970Y017931D01*
X004982Y017946D01*
X004992Y017963D01*
X005000Y017981D01*
X005004Y018000D01*
X005006Y018019D01*
X014197Y009602D02*
X014197Y009197D01*
X014199Y009178D01*
X014203Y009159D01*
X014211Y009141D01*
X014221Y009124D01*
X014233Y009109D01*
X014248Y009097D01*
X014265Y009087D01*
X014283Y009079D01*
X014302Y009075D01*
X014321Y009073D01*
X015815Y009073D01*
X015815Y009726D01*
X014321Y009726D01*
X014302Y009724D01*
X014283Y009720D01*
X014265Y009712D01*
X014248Y009702D01*
X014233Y009690D01*
X014221Y009675D01*
X014211Y009658D01*
X014203Y009640D01*
X014199Y009621D01*
X014197Y009602D01*
X015815Y009726D02*
X017309Y009726D01*
X017328Y009724D01*
X017347Y009720D01*
X017365Y009712D01*
X017382Y009702D01*
X017397Y009690D01*
X017409Y009675D01*
X017419Y009658D01*
X017427Y009640D01*
X017431Y009621D01*
X017433Y009602D01*
X017433Y009197D01*
X017431Y009178D01*
X017427Y009159D01*
X017419Y009141D01*
X017409Y009124D01*
X017397Y009109D01*
X017382Y009097D01*
X017365Y009087D01*
X017347Y009079D01*
X017328Y009075D01*
X017309Y009073D01*
X015815Y009073D01*
X018882Y009197D02*
X018882Y009602D01*
X018884Y009621D01*
X018888Y009640D01*
X018896Y009658D01*
X018906Y009675D01*
X018918Y009690D01*
X018933Y009702D01*
X018950Y009712D01*
X018968Y009720D01*
X018987Y009724D01*
X019006Y009726D01*
X020500Y009726D01*
X020500Y009073D01*
X019006Y009073D01*
X018987Y009075D01*
X018968Y009079D01*
X018950Y009087D01*
X018933Y009097D01*
X018918Y009109D01*
X018906Y009124D01*
X018896Y009141D01*
X018888Y009159D01*
X018884Y009178D01*
X018882Y009197D01*
X020500Y009073D02*
X021994Y009073D01*
X022013Y009075D01*
X022032Y009079D01*
X022050Y009087D01*
X022067Y009097D01*
X022082Y009109D01*
X022094Y009124D01*
X022104Y009141D01*
X022112Y009159D01*
X022116Y009178D01*
X022118Y009197D01*
X022118Y009602D01*
X022116Y009621D01*
X022112Y009640D01*
X022104Y009658D01*
X022094Y009675D01*
X022082Y009690D01*
X022067Y009702D01*
X022050Y009712D01*
X022032Y009720D01*
X022013Y009724D01*
X021994Y009726D01*
X020500Y009726D01*
X023567Y009602D02*
X023567Y009197D01*
X023569Y009178D01*
X023573Y009159D01*
X023581Y009141D01*
X023591Y009124D01*
X023603Y009109D01*
X023618Y009097D01*
X023635Y009087D01*
X023653Y009079D01*
X023672Y009075D01*
X023691Y009073D01*
X025185Y009073D01*
X025185Y009726D01*
X023691Y009726D01*
X023672Y009724D01*
X023653Y009720D01*
X023635Y009712D01*
X023618Y009702D01*
X023603Y009690D01*
X023591Y009675D01*
X023581Y009658D01*
X023573Y009640D01*
X023569Y009621D01*
X023567Y009602D01*
X025185Y009726D02*
X026679Y009726D01*
X026698Y009724D01*
X026717Y009720D01*
X026735Y009712D01*
X026752Y009702D01*
X026767Y009690D01*
X026779Y009675D01*
X026789Y009658D01*
X026797Y009640D01*
X026801Y009621D01*
X026803Y009602D01*
X026803Y009197D01*
X026801Y009178D01*
X026797Y009159D01*
X026789Y009141D01*
X026779Y009124D01*
X026767Y009109D01*
X026752Y009097D01*
X026735Y009087D01*
X026717Y009079D01*
X026698Y009075D01*
X026679Y009073D01*
X025185Y009073D01*
X032843Y013956D02*
X032843Y015832D01*
X034567Y015832D01*
X034567Y016832D01*
X033417Y016832D01*
X033417Y017832D01*
X033992Y017832D01*
X034443Y017832D01*
X034462Y017830D01*
X034481Y017826D01*
X034499Y017818D01*
X034516Y017808D01*
X034531Y017796D01*
X034543Y017781D01*
X034553Y017764D01*
X034561Y017746D01*
X034565Y017727D01*
X034567Y017708D01*
X034567Y016832D01*
X033992Y017832D02*
X033992Y013832D01*
X034443Y013832D01*
X034462Y013834D01*
X034481Y013838D01*
X034499Y013846D01*
X034516Y013856D01*
X034531Y013868D01*
X034543Y013883D01*
X034553Y013900D01*
X034561Y013918D01*
X034565Y013937D01*
X034567Y013956D01*
X034567Y014832D01*
X033417Y014832D01*
X033417Y016832D01*
X032843Y017708D02*
X032845Y017727D01*
X032849Y017746D01*
X032857Y017764D01*
X032867Y017781D01*
X032879Y017796D01*
X032894Y017808D01*
X032911Y017818D01*
X032929Y017826D01*
X032948Y017830D01*
X032967Y017832D01*
X033417Y017832D01*
X032843Y017708D02*
X032843Y015832D01*
X033417Y014832D02*
X033417Y013832D01*
X033992Y013832D01*
X033417Y013832D02*
X032967Y013832D01*
X032948Y013834D01*
X032929Y013838D01*
X032911Y013846D01*
X032894Y013856D01*
X032879Y013868D01*
X032867Y013883D01*
X032857Y013900D01*
X032849Y013918D01*
X032845Y013937D01*
X032843Y013956D01*
X034567Y014832D02*
X034567Y015832D01*
X035531Y027969D02*
X035531Y028372D01*
X031846Y028372D01*
X031846Y027969D01*
X029448Y027969D01*
X029448Y028627D01*
X029448Y030202D02*
X029448Y030860D01*
X031846Y030860D01*
X031846Y030457D01*
X035531Y030457D01*
X035531Y030860D01*
X037930Y030860D01*
X037930Y030202D01*
X037930Y028627D02*
X037930Y027969D01*
X035531Y027969D01*
X032228Y031939D02*
X031319Y031939D01*
X031318Y031939D02*
X031297Y031941D01*
X031276Y031947D01*
X031257Y031956D01*
X031240Y031969D01*
X031225Y031984D01*
X031213Y032002D01*
X031205Y032021D01*
X031200Y032042D01*
X031198Y032063D01*
X031198Y032514D01*
X031775Y032514D01*
X032352Y032514D01*
X032352Y032063D01*
X032350Y032044D01*
X032346Y032025D01*
X032338Y032007D01*
X032328Y031990D01*
X032316Y031975D01*
X032301Y031963D01*
X032284Y031953D01*
X032266Y031945D01*
X032247Y031941D01*
X032228Y031939D01*
X032352Y032514D02*
X032352Y033536D01*
X032352Y034433D01*
X032350Y034454D01*
X032344Y034475D01*
X032335Y034494D01*
X032322Y034511D01*
X032307Y034526D01*
X032289Y034538D01*
X032270Y034546D01*
X032249Y034551D01*
X032228Y034553D01*
X031775Y034553D01*
X031775Y032514D01*
X031198Y032514D02*
X031198Y033536D01*
X031198Y034433D01*
X031199Y034433D02*
X031201Y034454D01*
X031206Y034474D01*
X031215Y034493D01*
X031227Y034510D01*
X031242Y034525D01*
X031259Y034537D01*
X031278Y034546D01*
X031298Y034551D01*
X031319Y034553D01*
X031775Y034553D01*
X031198Y033536D02*
X032352Y033536D01*
X003488Y033546D02*
X003488Y036385D01*
X003486Y036404D01*
X003482Y036423D01*
X003474Y036441D01*
X003464Y036458D01*
X003452Y036473D01*
X003437Y036485D01*
X003420Y036495D01*
X003402Y036503D01*
X003383Y036507D01*
X003364Y036509D01*
X001888Y036509D01*
X001869Y036507D01*
X001850Y036503D01*
X001832Y036495D01*
X001815Y036485D01*
X001800Y036473D01*
X001788Y036458D01*
X001778Y036441D01*
X001770Y036423D01*
X001766Y036404D01*
X001764Y036385D01*
X001764Y035466D01*
X002913Y035466D01*
X002913Y034466D01*
X001764Y034466D01*
X001764Y033546D01*
X001766Y033527D01*
X001770Y033508D01*
X001778Y033490D01*
X001788Y033473D01*
X001800Y033458D01*
X001815Y033446D01*
X001832Y033436D01*
X001850Y033428D01*
X001869Y033424D01*
X001888Y033422D01*
X002339Y033422D01*
X002339Y036466D01*
X002913Y036466D02*
X002913Y035466D01*
X002913Y034466D02*
X002913Y033422D01*
X002339Y033422D01*
X002913Y033422D02*
X003364Y033422D01*
X003383Y033424D01*
X003402Y033428D01*
X003420Y033436D01*
X003437Y033446D01*
X003452Y033458D01*
X003464Y033473D01*
X003474Y033490D01*
X003482Y033508D01*
X003486Y033527D01*
X003488Y033546D01*
X001764Y034466D02*
X001764Y035466D01*
D17*
X034398Y038550D03*
D18*
X029811Y025477D03*
X029614Y025477D03*
D19*
X002429Y024178D03*
D20*
X032665Y022249D03*
D21*
X001780Y014099D03*
M02*
