G75*
%MOIN*%
%OFA0B0*%
%FSLAX24Y24*%
%IPPOS*%
%LPD*%
%AMOC8*
5,1,8,0,0,1.08239X$1,22.5*
%
%ADD10C,0.0000*%
%ADD11C,0.0709*%
%ADD12C,0.0669*%
%ADD13C,0.0827*%
%ADD14C,0.1024*%
%ADD15C,0.0866*%
%ADD16C,0.1299*%
%ADD17C,0.0630*%
%ADD18C,0.0906*%
%ADD19C,0.0787*%
%ADD20C,0.1000*%
%ADD21C,0.0560*%
%ADD22C,0.0500*%
%ADD23C,0.0150*%
%ADD24C,0.0140*%
%ADD25C,0.0100*%
%ADD26C,0.0160*%
%ADD27C,0.0240*%
%ADD28C,0.0400*%
%ADD29C,0.0239*%
%ADD30C,0.0320*%
%ADD31C,0.0200*%
%ADD32C,0.0554*%
D10*
X002390Y008440D02*
X038610Y008440D01*
X038610Y008444D02*
X038687Y008446D01*
X038764Y008452D01*
X038841Y008461D01*
X038917Y008474D01*
X038993Y008491D01*
X039067Y008512D01*
X039141Y008536D01*
X039213Y008564D01*
X039283Y008595D01*
X039352Y008630D01*
X039420Y008668D01*
X039485Y008709D01*
X039548Y008754D01*
X039609Y008802D01*
X039668Y008852D01*
X039724Y008905D01*
X039777Y008961D01*
X039827Y009020D01*
X039875Y009081D01*
X039920Y009144D01*
X039961Y009209D01*
X039999Y009277D01*
X040034Y009346D01*
X040065Y009416D01*
X040093Y009488D01*
X040117Y009562D01*
X040138Y009636D01*
X040155Y009712D01*
X040168Y009788D01*
X040177Y009865D01*
X040183Y009942D01*
X040185Y010019D01*
X040185Y038365D01*
X040183Y038442D01*
X040177Y038519D01*
X040168Y038596D01*
X040155Y038672D01*
X040138Y038748D01*
X040117Y038822D01*
X040093Y038896D01*
X040065Y038968D01*
X040034Y039038D01*
X039999Y039107D01*
X039961Y039175D01*
X039920Y039240D01*
X039875Y039303D01*
X039827Y039364D01*
X039777Y039423D01*
X039724Y039479D01*
X039668Y039532D01*
X039609Y039582D01*
X039548Y039630D01*
X039485Y039675D01*
X039420Y039716D01*
X039352Y039754D01*
X039283Y039789D01*
X039213Y039820D01*
X039141Y039848D01*
X039067Y039872D01*
X038993Y039893D01*
X038917Y039910D01*
X038841Y039923D01*
X038764Y039932D01*
X038687Y039938D01*
X038610Y039940D01*
X002390Y039940D01*
X002313Y039938D01*
X002236Y039932D01*
X002159Y039923D01*
X002083Y039910D01*
X002007Y039893D01*
X001933Y039872D01*
X001859Y039848D01*
X001787Y039820D01*
X001717Y039789D01*
X001648Y039754D01*
X001580Y039716D01*
X001515Y039675D01*
X001452Y039630D01*
X001391Y039582D01*
X001332Y039532D01*
X001276Y039479D01*
X001223Y039423D01*
X001173Y039364D01*
X001125Y039303D01*
X001080Y039240D01*
X001039Y039175D01*
X001001Y039107D01*
X000966Y039038D01*
X000935Y038968D01*
X000907Y038896D01*
X000883Y038822D01*
X000862Y038748D01*
X000845Y038672D01*
X000832Y038596D01*
X000823Y038519D01*
X000817Y038442D01*
X000815Y038365D01*
X000815Y010019D01*
X000817Y009942D01*
X000823Y009865D01*
X000832Y009788D01*
X000845Y009712D01*
X000862Y009636D01*
X000883Y009562D01*
X000907Y009488D01*
X000935Y009416D01*
X000966Y009346D01*
X001001Y009277D01*
X001039Y009209D01*
X001080Y009144D01*
X001125Y009081D01*
X001173Y009020D01*
X001223Y008961D01*
X001276Y008905D01*
X001332Y008852D01*
X001391Y008802D01*
X001452Y008754D01*
X001515Y008709D01*
X001580Y008668D01*
X001648Y008630D01*
X001717Y008595D01*
X001787Y008564D01*
X001859Y008536D01*
X001933Y008512D01*
X002007Y008491D01*
X002083Y008474D01*
X002159Y008461D01*
X002236Y008452D01*
X002313Y008446D01*
X002390Y008444D01*
X001937Y010192D02*
X001939Y010242D01*
X001945Y010292D01*
X001955Y010341D01*
X001969Y010389D01*
X001986Y010436D01*
X002007Y010481D01*
X002032Y010525D01*
X002060Y010566D01*
X002092Y010605D01*
X002126Y010642D01*
X002163Y010676D01*
X002203Y010706D01*
X002245Y010733D01*
X002289Y010757D01*
X002335Y010778D01*
X002382Y010794D01*
X002430Y010807D01*
X002480Y010816D01*
X002529Y010821D01*
X002580Y010822D01*
X002630Y010819D01*
X002679Y010812D01*
X002728Y010801D01*
X002776Y010786D01*
X002822Y010768D01*
X002867Y010746D01*
X002910Y010720D01*
X002951Y010691D01*
X002990Y010659D01*
X003026Y010624D01*
X003058Y010586D01*
X003088Y010546D01*
X003115Y010503D01*
X003138Y010459D01*
X003157Y010413D01*
X003173Y010365D01*
X003185Y010316D01*
X003193Y010267D01*
X003197Y010217D01*
X003197Y010167D01*
X003193Y010117D01*
X003185Y010068D01*
X003173Y010019D01*
X003157Y009971D01*
X003138Y009925D01*
X003115Y009881D01*
X003088Y009838D01*
X003058Y009798D01*
X003026Y009760D01*
X002990Y009725D01*
X002951Y009693D01*
X002910Y009664D01*
X002867Y009638D01*
X002822Y009616D01*
X002776Y009598D01*
X002728Y009583D01*
X002679Y009572D01*
X002630Y009565D01*
X002580Y009562D01*
X002529Y009563D01*
X002480Y009568D01*
X002430Y009577D01*
X002382Y009590D01*
X002335Y009606D01*
X002289Y009627D01*
X002245Y009651D01*
X002203Y009678D01*
X002163Y009708D01*
X002126Y009742D01*
X002092Y009779D01*
X002060Y009818D01*
X002032Y009859D01*
X002007Y009903D01*
X001986Y009948D01*
X001969Y009995D01*
X001955Y010043D01*
X001945Y010092D01*
X001939Y010142D01*
X001937Y010192D01*
X001937Y038188D02*
X001939Y038238D01*
X001945Y038288D01*
X001955Y038337D01*
X001969Y038385D01*
X001986Y038432D01*
X002007Y038477D01*
X002032Y038521D01*
X002060Y038562D01*
X002092Y038601D01*
X002126Y038638D01*
X002163Y038672D01*
X002203Y038702D01*
X002245Y038729D01*
X002289Y038753D01*
X002335Y038774D01*
X002382Y038790D01*
X002430Y038803D01*
X002480Y038812D01*
X002529Y038817D01*
X002580Y038818D01*
X002630Y038815D01*
X002679Y038808D01*
X002728Y038797D01*
X002776Y038782D01*
X002822Y038764D01*
X002867Y038742D01*
X002910Y038716D01*
X002951Y038687D01*
X002990Y038655D01*
X003026Y038620D01*
X003058Y038582D01*
X003088Y038542D01*
X003115Y038499D01*
X003138Y038455D01*
X003157Y038409D01*
X003173Y038361D01*
X003185Y038312D01*
X003193Y038263D01*
X003197Y038213D01*
X003197Y038163D01*
X003193Y038113D01*
X003185Y038064D01*
X003173Y038015D01*
X003157Y037967D01*
X003138Y037921D01*
X003115Y037877D01*
X003088Y037834D01*
X003058Y037794D01*
X003026Y037756D01*
X002990Y037721D01*
X002951Y037689D01*
X002910Y037660D01*
X002867Y037634D01*
X002822Y037612D01*
X002776Y037594D01*
X002728Y037579D01*
X002679Y037568D01*
X002630Y037561D01*
X002580Y037558D01*
X002529Y037559D01*
X002480Y037564D01*
X002430Y037573D01*
X002382Y037586D01*
X002335Y037602D01*
X002289Y037623D01*
X002245Y037647D01*
X002203Y037674D01*
X002163Y037704D01*
X002126Y037738D01*
X002092Y037775D01*
X002060Y037814D01*
X002032Y037855D01*
X002007Y037899D01*
X001986Y037944D01*
X001969Y037991D01*
X001955Y038039D01*
X001945Y038088D01*
X001939Y038138D01*
X001937Y038188D01*
X033059Y029414D02*
X033061Y029464D01*
X033067Y029514D01*
X033077Y029563D01*
X033091Y029611D01*
X033108Y029658D01*
X033129Y029703D01*
X033154Y029747D01*
X033182Y029788D01*
X033214Y029827D01*
X033248Y029864D01*
X033285Y029898D01*
X033325Y029928D01*
X033367Y029955D01*
X033411Y029979D01*
X033457Y030000D01*
X033504Y030016D01*
X033552Y030029D01*
X033602Y030038D01*
X033651Y030043D01*
X033702Y030044D01*
X033752Y030041D01*
X033801Y030034D01*
X033850Y030023D01*
X033898Y030008D01*
X033944Y029990D01*
X033989Y029968D01*
X034032Y029942D01*
X034073Y029913D01*
X034112Y029881D01*
X034148Y029846D01*
X034180Y029808D01*
X034210Y029768D01*
X034237Y029725D01*
X034260Y029681D01*
X034279Y029635D01*
X034295Y029587D01*
X034307Y029538D01*
X034315Y029489D01*
X034319Y029439D01*
X034319Y029389D01*
X034315Y029339D01*
X034307Y029290D01*
X034295Y029241D01*
X034279Y029193D01*
X034260Y029147D01*
X034237Y029103D01*
X034210Y029060D01*
X034180Y029020D01*
X034148Y028982D01*
X034112Y028947D01*
X034073Y028915D01*
X034032Y028886D01*
X033989Y028860D01*
X033944Y028838D01*
X033898Y028820D01*
X033850Y028805D01*
X033801Y028794D01*
X033752Y028787D01*
X033702Y028784D01*
X033651Y028785D01*
X033602Y028790D01*
X033552Y028799D01*
X033504Y028812D01*
X033457Y028828D01*
X033411Y028849D01*
X033367Y028873D01*
X033325Y028900D01*
X033285Y028930D01*
X033248Y028964D01*
X033214Y029001D01*
X033182Y029040D01*
X033154Y029081D01*
X033129Y029125D01*
X033108Y029170D01*
X033091Y029217D01*
X033077Y029265D01*
X033067Y029314D01*
X033061Y029364D01*
X033059Y029414D01*
X037803Y038188D02*
X037805Y038238D01*
X037811Y038288D01*
X037821Y038337D01*
X037835Y038385D01*
X037852Y038432D01*
X037873Y038477D01*
X037898Y038521D01*
X037926Y038562D01*
X037958Y038601D01*
X037992Y038638D01*
X038029Y038672D01*
X038069Y038702D01*
X038111Y038729D01*
X038155Y038753D01*
X038201Y038774D01*
X038248Y038790D01*
X038296Y038803D01*
X038346Y038812D01*
X038395Y038817D01*
X038446Y038818D01*
X038496Y038815D01*
X038545Y038808D01*
X038594Y038797D01*
X038642Y038782D01*
X038688Y038764D01*
X038733Y038742D01*
X038776Y038716D01*
X038817Y038687D01*
X038856Y038655D01*
X038892Y038620D01*
X038924Y038582D01*
X038954Y038542D01*
X038981Y038499D01*
X039004Y038455D01*
X039023Y038409D01*
X039039Y038361D01*
X039051Y038312D01*
X039059Y038263D01*
X039063Y038213D01*
X039063Y038163D01*
X039059Y038113D01*
X039051Y038064D01*
X039039Y038015D01*
X039023Y037967D01*
X039004Y037921D01*
X038981Y037877D01*
X038954Y037834D01*
X038924Y037794D01*
X038892Y037756D01*
X038856Y037721D01*
X038817Y037689D01*
X038776Y037660D01*
X038733Y037634D01*
X038688Y037612D01*
X038642Y037594D01*
X038594Y037579D01*
X038545Y037568D01*
X038496Y037561D01*
X038446Y037558D01*
X038395Y037559D01*
X038346Y037564D01*
X038296Y037573D01*
X038248Y037586D01*
X038201Y037602D01*
X038155Y037623D01*
X038111Y037647D01*
X038069Y037674D01*
X038029Y037704D01*
X037992Y037738D01*
X037958Y037775D01*
X037926Y037814D01*
X037898Y037855D01*
X037873Y037899D01*
X037852Y037944D01*
X037835Y037991D01*
X037821Y038039D01*
X037811Y038088D01*
X037805Y038138D01*
X037803Y038188D01*
X037803Y010192D02*
X037805Y010242D01*
X037811Y010292D01*
X037821Y010341D01*
X037835Y010389D01*
X037852Y010436D01*
X037873Y010481D01*
X037898Y010525D01*
X037926Y010566D01*
X037958Y010605D01*
X037992Y010642D01*
X038029Y010676D01*
X038069Y010706D01*
X038111Y010733D01*
X038155Y010757D01*
X038201Y010778D01*
X038248Y010794D01*
X038296Y010807D01*
X038346Y010816D01*
X038395Y010821D01*
X038446Y010822D01*
X038496Y010819D01*
X038545Y010812D01*
X038594Y010801D01*
X038642Y010786D01*
X038688Y010768D01*
X038733Y010746D01*
X038776Y010720D01*
X038817Y010691D01*
X038856Y010659D01*
X038892Y010624D01*
X038924Y010586D01*
X038954Y010546D01*
X038981Y010503D01*
X039004Y010459D01*
X039023Y010413D01*
X039039Y010365D01*
X039051Y010316D01*
X039059Y010267D01*
X039063Y010217D01*
X039063Y010167D01*
X039059Y010117D01*
X039051Y010068D01*
X039039Y010019D01*
X039023Y009971D01*
X039004Y009925D01*
X038981Y009881D01*
X038954Y009838D01*
X038924Y009798D01*
X038892Y009760D01*
X038856Y009725D01*
X038817Y009693D01*
X038776Y009664D01*
X038733Y009638D01*
X038688Y009616D01*
X038642Y009598D01*
X038594Y009583D01*
X038545Y009572D01*
X038496Y009565D01*
X038446Y009562D01*
X038395Y009563D01*
X038346Y009568D01*
X038296Y009577D01*
X038248Y009590D01*
X038201Y009606D01*
X038155Y009627D01*
X038111Y009651D01*
X038069Y009678D01*
X038029Y009708D01*
X037992Y009742D01*
X037958Y009779D01*
X037926Y009818D01*
X037898Y009859D01*
X037873Y009903D01*
X037852Y009948D01*
X037835Y009995D01*
X037821Y010043D01*
X037811Y010092D01*
X037805Y010142D01*
X037803Y010192D01*
D11*
X035713Y010477D03*
X035713Y011718D03*
X035713Y012958D03*
X036980Y012958D03*
X038980Y012958D03*
X033713Y012958D03*
X033713Y011718D03*
X033713Y010477D03*
X031323Y010851D03*
X030323Y010851D03*
X029323Y010851D03*
X026185Y011816D03*
X026185Y012879D03*
X026000Y014135D03*
X025000Y014135D03*
X024000Y014135D03*
X023000Y014135D03*
X022000Y014135D03*
X021000Y014135D03*
X020000Y014135D03*
X019000Y014135D03*
X018000Y014135D03*
X017000Y014135D03*
X016000Y014135D03*
X015000Y014135D03*
X014000Y014135D03*
X014815Y012879D03*
X014815Y011816D03*
X016815Y011816D03*
X016815Y012879D03*
X017000Y017135D03*
X018000Y017135D03*
X019000Y017135D03*
X020000Y017135D03*
X021000Y017135D03*
X022000Y017135D03*
X023000Y017135D03*
X024000Y017135D03*
X025000Y017135D03*
X026000Y017135D03*
X027000Y017135D03*
X029185Y017406D03*
X029185Y015910D03*
X029102Y014414D03*
X027000Y014135D03*
X024185Y012879D03*
X024185Y011816D03*
X031268Y014414D03*
X031185Y015910D03*
X031185Y017406D03*
X031185Y018903D03*
X032669Y018903D03*
X032669Y020241D03*
X032665Y021481D03*
X034669Y020241D03*
X034669Y018903D03*
X036429Y018903D03*
X037429Y018903D03*
X038429Y018903D03*
X038429Y020241D03*
X036429Y020241D03*
X032665Y023647D03*
X029185Y018903D03*
X027000Y021930D03*
X026000Y021930D03*
X025000Y021930D03*
X024000Y021930D03*
X023000Y021930D03*
X022000Y021930D03*
X021000Y021930D03*
X020000Y021930D03*
X019000Y021930D03*
X018000Y021930D03*
X017000Y021930D03*
X016000Y021930D03*
X015000Y021930D03*
X014000Y021930D03*
X012823Y021934D03*
X010382Y021934D03*
X009083Y021934D03*
X009256Y020162D03*
X008256Y020162D03*
X007256Y020162D03*
X006642Y021934D03*
X004217Y021501D03*
X002217Y021501D03*
X006193Y017092D03*
X006193Y015792D03*
X007193Y015792D03*
X008193Y015792D03*
X008193Y014493D03*
X008193Y013214D03*
X006193Y013214D03*
X006193Y014493D03*
X004217Y016777D03*
X002217Y016777D03*
X007256Y018312D03*
X008193Y017092D03*
X009256Y018312D03*
X010520Y018312D03*
X012685Y018312D03*
X014000Y017135D03*
X015000Y017135D03*
X016000Y017135D03*
X015441Y018706D03*
X017370Y018706D03*
X019567Y019481D03*
X021567Y019481D03*
X023630Y020359D03*
X025559Y020359D03*
X026000Y024930D03*
X025000Y024930D03*
X024000Y024930D03*
X023000Y024930D03*
X022000Y024930D03*
X021000Y024930D03*
X020000Y024930D03*
X019000Y024930D03*
X018000Y024930D03*
X017000Y024930D03*
X016000Y024930D03*
X015000Y024930D03*
X014000Y024930D03*
X014008Y026462D03*
X013618Y027914D03*
X012618Y027914D03*
X011618Y027914D03*
X012327Y026462D03*
X010327Y026462D03*
X009516Y027800D03*
X008154Y026462D03*
X006154Y026462D03*
X004217Y026855D03*
X002217Y026855D03*
X009516Y029847D03*
X011618Y030914D03*
X012618Y030914D03*
X013618Y030914D03*
X014618Y030914D03*
X014618Y027914D03*
X016008Y026462D03*
X022587Y027800D03*
X024630Y027914D03*
X025630Y027914D03*
X026630Y027914D03*
X027630Y027914D03*
X027000Y024930D03*
X022587Y029847D03*
X024630Y030914D03*
X025630Y030914D03*
X026630Y030914D03*
X027630Y030914D03*
X011677Y010851D03*
X010677Y010851D03*
X009677Y010851D03*
X007051Y010005D03*
X006051Y010005D03*
X005051Y010005D03*
D12*
X003728Y018351D03*
X002705Y018351D03*
X002705Y019926D03*
X003728Y019926D03*
X011114Y020123D03*
X012091Y020123D03*
X014791Y020320D03*
X015815Y020320D03*
X016996Y020320D03*
X018020Y020320D03*
X019280Y018391D03*
X020303Y018391D03*
X020697Y020556D03*
X021720Y020556D03*
X022980Y018745D03*
X024004Y018745D03*
X025185Y018745D03*
X026209Y018745D03*
X029673Y012840D03*
X030697Y012840D03*
X034398Y025182D03*
X035421Y025182D03*
X036996Y025182D03*
X038020Y025182D03*
X038413Y032338D03*
X037390Y032338D03*
X037390Y034330D03*
X038413Y034330D03*
X025657Y026343D03*
X024634Y026343D03*
X023098Y026343D03*
X022075Y026343D03*
X022075Y031088D03*
X023098Y031088D03*
X010028Y031088D03*
X009004Y031088D03*
D13*
X006185Y029867D03*
X005185Y029867D03*
X004185Y029867D03*
X004748Y034556D03*
X005748Y034556D03*
X006748Y034556D03*
X007748Y034556D03*
X009276Y034556D03*
X010276Y034556D03*
X011276Y034556D03*
X012276Y034556D03*
X013803Y034556D03*
X014803Y034556D03*
X015803Y034556D03*
X016803Y034556D03*
X018331Y034556D03*
X019331Y034556D03*
X020331Y034556D03*
X021331Y034556D03*
X022858Y034556D03*
X023858Y034556D03*
X024858Y034556D03*
X025858Y034556D03*
X027386Y034556D03*
X028386Y034556D03*
X029386Y034556D03*
X030386Y034556D03*
X030382Y025477D03*
X029043Y025477D03*
X030185Y022855D03*
X030185Y020855D03*
X034977Y023312D03*
X035977Y023312D03*
X036977Y023312D03*
X019295Y029867D03*
X018295Y029867D03*
X017295Y029867D03*
X011602Y024729D03*
X011602Y023627D03*
X008453Y023627D03*
X008453Y024729D03*
X011051Y015139D03*
X011051Y013139D03*
X003559Y013099D03*
X002559Y013099D03*
X002559Y014099D03*
X002559Y015099D03*
X003559Y015099D03*
D14*
X004122Y032446D03*
X007035Y032446D03*
X017311Y032446D03*
X020224Y032446D03*
D15*
X015736Y032446D03*
X012350Y032446D03*
X025500Y032446D03*
X028886Y032446D03*
X031878Y026658D03*
X035264Y026658D03*
D16*
X038217Y029414D03*
X035224Y032328D03*
X033571Y032328D03*
X033571Y034336D03*
X035224Y034336D03*
X029161Y029414D03*
D17*
X036524Y026658D03*
X038571Y026658D03*
X022114Y012643D03*
X021091Y012643D03*
X019909Y012643D03*
X018886Y012643D03*
D18*
X021980Y032446D03*
X023980Y032446D03*
X010831Y032446D03*
X008831Y032446D03*
D19*
X006213Y025178D03*
X006213Y024178D03*
X006213Y023178D03*
X005213Y023178D03*
X005213Y025178D03*
X005781Y020395D03*
X005781Y019395D03*
X005781Y018395D03*
X006051Y011225D03*
X007051Y011225D03*
X005051Y011225D03*
X014815Y010595D03*
X015815Y010595D03*
X016815Y010595D03*
X019500Y010595D03*
X020500Y010595D03*
X021500Y010595D03*
X024185Y010595D03*
X025185Y010595D03*
X026185Y010595D03*
X035315Y014332D03*
X035315Y015332D03*
X035315Y016332D03*
X035315Y017332D03*
X036315Y017332D03*
X036315Y016332D03*
X036315Y015332D03*
X036315Y014332D03*
X020366Y026462D03*
X019366Y026462D03*
X018366Y026462D03*
X017366Y026462D03*
D20*
X017475Y028174D02*
X016744Y028174D01*
X016236Y028682D01*
X016183Y028735D01*
X015703Y029215D01*
X015504Y029414D01*
X012012Y029414D01*
X011784Y029414D01*
X017475Y028174D02*
X020685Y028174D01*
X021335Y028824D01*
X023298Y028824D01*
X023888Y029414D01*
X024520Y029414D01*
X024654Y029414D01*
X029161Y029414D01*
D21*
X025500Y032446D02*
X025500Y033493D01*
X025474Y033519D01*
X024736Y033519D01*
X024858Y033641D01*
X024858Y034556D01*
X024736Y033519D02*
X020366Y033519D01*
X020331Y033554D01*
X020331Y033783D01*
X020331Y034556D01*
X020366Y033519D02*
X018811Y033519D01*
X018768Y033475D01*
X018789Y033455D01*
X018789Y031847D01*
X018295Y031353D01*
X018295Y031194D01*
X018295Y029867D01*
X019295Y029867D02*
X020472Y029867D01*
X021131Y030526D01*
X021131Y031597D01*
X021980Y032446D01*
X018811Y033519D02*
X016108Y033519D01*
X015954Y033673D01*
X015803Y033824D01*
X015803Y034556D01*
X012350Y033138D02*
X012350Y032446D01*
X012350Y033138D02*
X011969Y033519D01*
X006757Y033519D01*
X006757Y034547D01*
X006748Y034556D01*
X006757Y033519D02*
X006215Y033519D01*
X005644Y032947D01*
X005644Y031472D01*
X005185Y031013D01*
X005185Y029867D01*
X004185Y029867D02*
X004185Y029798D01*
X004185Y029310D01*
X004693Y028803D01*
X010292Y028803D01*
X010903Y029414D01*
X011647Y029414D01*
X011784Y029414D01*
X012012Y029414D02*
X012069Y029414D01*
X008831Y032446D02*
X008077Y031692D01*
X008077Y030502D01*
X007442Y029867D01*
X006185Y029867D01*
X011276Y033582D02*
X011276Y034556D01*
X016236Y028808D02*
X016236Y028682D01*
X016183Y028735D02*
X016183Y028755D01*
X017295Y029867D01*
X025474Y033519D02*
X029081Y033519D01*
X029386Y033824D01*
X029386Y034556D01*
D22*
X024630Y030914D02*
X024457Y031088D01*
X023098Y031088D01*
X024630Y030914D02*
X024630Y027914D01*
X024516Y027800D01*
X022587Y027800D01*
X024520Y029414D02*
X024530Y029424D01*
X024572Y029424D01*
X020224Y031711D02*
X020224Y032446D01*
X020224Y031711D02*
X019295Y030782D01*
X019295Y029867D01*
X017475Y028174D02*
X017311Y028338D01*
X017295Y029867D02*
X017311Y029883D01*
X017311Y032446D01*
X012233Y029445D02*
X012202Y029414D01*
X012012Y029414D01*
X012012Y029386D01*
X012069Y029414D02*
X012039Y029445D01*
X011618Y030914D02*
X011618Y027914D01*
X011504Y027800D01*
X009516Y027800D01*
X010028Y031088D02*
X011445Y031088D01*
X011618Y030914D01*
X007035Y031244D02*
X006185Y030394D01*
X006185Y029867D01*
X007035Y031244D02*
X007035Y032446D01*
X004122Y032446D02*
X004122Y029930D01*
X004185Y029867D01*
X011051Y013139D02*
X012201Y013139D01*
X013098Y012242D01*
X013098Y011804D01*
X013098Y011692D01*
X013098Y009352D01*
X013144Y009306D01*
X014189Y009306D01*
X016961Y009306D01*
X017230Y009306D01*
X027135Y009306D01*
X027401Y009306D01*
X027954Y009306D01*
X029869Y009306D01*
X035887Y009306D01*
X036668Y010086D01*
X036668Y010467D01*
X036668Y010655D01*
X036668Y011097D01*
X037172Y011602D01*
X037980Y012410D01*
X037980Y014369D01*
X037980Y015293D01*
X037980Y016534D01*
X039331Y017885D01*
X039331Y020814D01*
X038264Y021882D01*
X035034Y021882D01*
X034977Y021939D01*
X034977Y023312D01*
X034134Y021882D02*
X033451Y022564D01*
X031894Y022564D01*
X030185Y020855D01*
X034134Y021882D02*
X034500Y021882D01*
X035034Y021882D01*
X036977Y023312D02*
X038188Y023312D01*
X039009Y024133D01*
X039009Y026221D01*
X038571Y026658D01*
X036524Y026658D02*
X035264Y026658D01*
X031878Y026658D02*
X030421Y026658D01*
X030382Y026697D01*
X030382Y025477D01*
X030382Y026697D02*
X029161Y027918D01*
X029161Y029414D01*
X035945Y034336D02*
X036014Y034267D01*
D23*
X036078Y034330D01*
X037390Y034330D01*
X036480Y032495D02*
X036637Y032338D01*
X037390Y032338D01*
X025102Y029433D02*
X025093Y029424D01*
X024572Y029424D01*
X023917Y027061D02*
X024634Y026343D01*
X023917Y027061D02*
X021693Y027061D01*
X021252Y026620D01*
X021252Y025989D01*
X021000Y025737D01*
X021000Y024930D01*
X022000Y021930D02*
X022000Y021255D01*
X022564Y020692D01*
X023000Y021418D02*
X023000Y021930D01*
X023000Y021418D02*
X023399Y021019D01*
X024077Y021019D01*
X024596Y020500D01*
X019000Y017662D02*
X019000Y017135D01*
X019000Y017662D02*
X018920Y017742D01*
X018344Y018318D01*
X018344Y018695D01*
X018333Y018706D01*
X017370Y018706D01*
X017697Y017926D02*
X016918Y017926D01*
X016410Y018434D01*
X016410Y018697D01*
X016402Y018706D01*
X015441Y018706D01*
X016410Y018697D02*
X016410Y019725D01*
X015815Y020320D01*
X018020Y020320D02*
X018344Y019996D01*
X018344Y018695D01*
X017697Y017926D02*
X018000Y017623D01*
X018000Y017135D01*
X017024Y009369D02*
X016961Y009306D01*
X027321Y009385D02*
X027401Y009306D01*
X034669Y018903D02*
X036429Y018903D01*
X015954Y033673D02*
X015801Y033520D01*
X012012Y029386D02*
X012002Y029376D01*
X008998Y025274D02*
X008453Y024729D01*
X005947Y033312D02*
X006015Y033380D01*
X005051Y010005D02*
X005051Y009404D01*
X005042Y009306D02*
X005485Y009306D01*
X005042Y009306D02*
X004645Y009306D01*
D24*
X005067Y009306D02*
X005269Y009306D01*
X006051Y010576D02*
X006079Y010604D01*
X007502Y010604D01*
X010707Y013809D01*
X012745Y013809D01*
X013263Y013291D01*
X013274Y013291D01*
X013274Y013409D01*
X014000Y014135D01*
X013569Y014769D02*
X012939Y014139D01*
X010534Y014139D01*
X008293Y011898D01*
X002472Y011898D01*
X001484Y012885D01*
X001484Y034422D01*
X003918Y036855D01*
X012780Y036855D01*
X013803Y035832D01*
X013803Y034556D01*
X013039Y034064D02*
X013039Y035635D01*
X012213Y036462D01*
X004187Y036462D01*
X001839Y034113D01*
X001839Y027233D01*
X002217Y026855D01*
X002945Y027194D02*
X002193Y027946D01*
X002193Y033817D01*
X004444Y036068D01*
X009646Y036068D01*
X010276Y035438D01*
X010276Y034556D01*
X009276Y034556D02*
X009276Y035241D01*
X008843Y035674D01*
X004700Y035674D01*
X004214Y035188D01*
X002547Y033521D01*
X002547Y028278D01*
X003490Y027336D01*
X003490Y021125D01*
X004721Y019893D01*
X004721Y017427D01*
X005709Y016438D01*
X008580Y016438D01*
X009214Y017072D01*
X012724Y017072D01*
X013294Y016501D01*
X022806Y016501D01*
X023000Y016695D01*
X023000Y017135D01*
X024000Y017135D02*
X024000Y016593D01*
X023554Y016147D01*
X012861Y016147D01*
X012337Y016670D01*
X010111Y016670D01*
X008577Y015137D01*
X005661Y015137D01*
X004662Y016136D01*
X003893Y016136D01*
X001965Y018064D01*
X001965Y020139D01*
X002945Y021119D01*
X002945Y027194D01*
X003980Y027536D02*
X002902Y028614D01*
X002902Y033195D01*
X003496Y033790D01*
X003572Y033790D01*
X005436Y033790D01*
X005748Y034101D01*
X005748Y034556D01*
X004748Y034556D02*
X004201Y035103D01*
X003719Y033312D02*
X005947Y033312D01*
X006015Y033380D02*
X006076Y033380D01*
X006215Y033519D01*
X003719Y033312D02*
X003681Y033312D01*
X003256Y032887D01*
X003256Y028999D01*
X004277Y027979D01*
X008253Y027979D01*
X009770Y026462D01*
X010327Y026462D01*
X010629Y025788D02*
X009823Y025788D01*
X008074Y027536D01*
X003980Y027536D01*
X004466Y027105D02*
X004217Y026855D01*
X004466Y027105D02*
X006134Y027105D01*
X006154Y027085D01*
X006154Y026462D01*
X006134Y027105D02*
X006465Y027105D01*
X007953Y025617D01*
X008714Y025617D01*
X008998Y025333D01*
X008998Y025274D01*
X008998Y025333D02*
X009316Y025015D01*
X009316Y022167D01*
X009083Y021934D01*
X008256Y022667D02*
X008256Y021098D01*
X008293Y021136D01*
X010937Y021136D01*
X012375Y022573D01*
X015734Y022573D01*
X016000Y022307D01*
X016000Y021930D01*
X015000Y021930D02*
X015000Y021560D01*
X013952Y020512D01*
X013952Y018312D01*
X013161Y017521D01*
X008622Y017521D01*
X008193Y017092D01*
X006541Y017440D02*
X006193Y017092D01*
X006541Y017440D02*
X006541Y020732D01*
X005783Y021490D01*
X005783Y022128D01*
X006213Y022558D01*
X006213Y023178D01*
X006213Y024178D02*
X006744Y024178D01*
X008256Y022667D01*
X008256Y021098D02*
X008256Y020162D01*
X010382Y021934D02*
X010382Y024517D01*
X011125Y025260D01*
X011125Y025206D01*
X011602Y024729D01*
X011125Y025260D02*
X012327Y026462D01*
X012648Y027125D02*
X011989Y027125D01*
X010652Y025788D01*
X010629Y025788D01*
X011553Y027839D02*
X009554Y027839D01*
X009516Y027800D01*
X011553Y027839D02*
X011647Y027933D01*
X011647Y029414D01*
X012618Y027914D02*
X012618Y027757D01*
X013356Y027019D01*
X013356Y024020D01*
X013945Y023430D01*
X017213Y023430D01*
X018000Y022643D01*
X018000Y021930D01*
X017000Y021930D02*
X017000Y022466D01*
X016469Y022997D01*
X013624Y022997D01*
X013044Y023577D01*
X012995Y023626D01*
X012995Y026779D01*
X012648Y027125D01*
X014000Y025505D02*
X014000Y024930D01*
X014000Y024222D01*
X014435Y023787D01*
X020226Y023787D01*
X021475Y022538D01*
X027384Y022538D01*
X028881Y021041D01*
X028881Y020252D01*
X030028Y019104D01*
X030028Y018563D01*
X031185Y017406D01*
X029905Y016079D02*
X029471Y016513D01*
X028358Y016513D01*
X027771Y017099D01*
X027771Y019421D01*
X026000Y021192D01*
X026000Y021930D01*
X027000Y021930D02*
X028376Y020554D01*
X028376Y017152D01*
X028721Y016807D01*
X029663Y016807D01*
X030485Y015985D01*
X030485Y014244D01*
X030948Y013781D01*
X031698Y013781D01*
X032914Y014997D01*
X032914Y015937D01*
X034309Y017332D01*
X035315Y017332D01*
X035315Y016332D02*
X034434Y016332D01*
X033955Y015852D01*
X033955Y015150D01*
X032245Y013440D01*
X030789Y013440D01*
X029905Y014324D01*
X029905Y016079D01*
X029185Y015910D02*
X029102Y015828D01*
X029102Y014414D01*
X029122Y014414D01*
X030697Y012840D01*
X029673Y012840D02*
X028331Y014182D01*
X028331Y014540D01*
X027787Y015084D01*
X013220Y015084D01*
X012599Y014463D01*
X010337Y014463D01*
X008117Y012243D01*
X002811Y012243D01*
X002559Y012495D01*
X002559Y013099D01*
X002559Y014099D02*
X004320Y014099D01*
X005828Y012592D01*
X006568Y012592D01*
X007824Y013847D01*
X008577Y013847D01*
X009155Y014425D01*
X009155Y015053D01*
X009155Y015079D01*
X010344Y016268D01*
X011961Y016268D01*
X012437Y015792D01*
X024317Y015792D01*
X025000Y016475D01*
X025000Y017135D01*
X026000Y017135D02*
X026000Y016388D01*
X025050Y015438D01*
X012016Y015438D01*
X011575Y015879D01*
X010612Y015879D01*
X009734Y015001D01*
X009734Y014367D01*
X008581Y013214D01*
X008500Y013214D01*
X008193Y013214D01*
X006193Y013214D02*
X004867Y014540D01*
X004867Y015034D01*
X004111Y015790D01*
X002717Y015790D01*
X002559Y015632D01*
X002559Y015099D01*
X006051Y011225D02*
X006051Y010871D01*
X009643Y009306D02*
X009677Y009340D01*
X013263Y013291D02*
X013676Y012879D01*
X013707Y012879D01*
X014815Y012879D01*
X015000Y014135D02*
X015000Y014446D01*
X014678Y014769D01*
X013569Y014769D01*
X016000Y014135D02*
X016000Y010781D01*
X015815Y010595D01*
X017874Y010963D02*
X017874Y012712D01*
X017000Y013586D01*
X017000Y014135D01*
X018000Y014135D02*
X018000Y013526D01*
X018256Y013270D01*
X018256Y012217D01*
X018925Y011549D01*
X020171Y011549D01*
X020500Y011220D01*
X020500Y010595D01*
X021500Y010595D02*
X022110Y011206D01*
X027397Y011206D01*
X028377Y010226D01*
X032221Y010226D01*
X033713Y011718D01*
X033051Y012338D02*
X032571Y011857D01*
X028621Y011857D01*
X026969Y013509D01*
X025237Y013509D01*
X025000Y013747D01*
X025000Y014135D01*
X024000Y014135D02*
X024000Y013064D01*
X024185Y012879D01*
X024185Y011816D02*
X023491Y011816D01*
X023000Y012307D01*
X023000Y014135D01*
X022200Y014729D02*
X027350Y014729D01*
X027872Y014207D01*
X027887Y014193D01*
X027887Y013498D01*
X029170Y012214D01*
X031835Y012214D01*
X033148Y013528D01*
X034952Y015332D01*
X035315Y015332D01*
X035315Y014332D02*
X034708Y013725D01*
X034708Y012396D01*
X034649Y012338D01*
X033051Y012338D01*
X033713Y012958D02*
X033158Y013513D01*
X034649Y012338D02*
X036360Y012338D01*
X036980Y012958D01*
X036668Y010655D02*
X036650Y010637D01*
X033713Y010477D02*
X033107Y009871D01*
X026909Y009871D01*
X026185Y010595D01*
X025185Y010595D02*
X025185Y010593D01*
X025185Y010086D01*
X024971Y009871D01*
X018965Y009871D01*
X017874Y010963D01*
X020000Y013733D02*
X021091Y012643D01*
X020000Y013733D02*
X020000Y014135D01*
X022000Y014135D02*
X022000Y014530D01*
X022176Y014705D01*
X022200Y014729D01*
X026185Y012879D02*
X026718Y012879D01*
X028101Y011496D01*
X030099Y011496D01*
X030323Y011272D01*
X030323Y010851D01*
X027135Y009306D02*
X026998Y009443D01*
X028532Y015162D02*
X027000Y016695D01*
X027000Y017135D01*
X025185Y018745D02*
X024596Y019334D01*
X024596Y020406D01*
X024643Y020359D01*
X025559Y020359D01*
X024596Y020406D02*
X024596Y020500D01*
X023630Y020359D02*
X022635Y020359D01*
X022564Y020288D01*
X022564Y020692D01*
X022564Y020288D02*
X022564Y020194D01*
X022564Y019162D01*
X022980Y018745D01*
X022000Y022838D02*
X020678Y024160D01*
X015181Y024160D01*
X015000Y024341D01*
X015000Y024930D01*
X015000Y025421D01*
X015271Y025692D01*
X019131Y025692D01*
X019366Y025927D01*
X019366Y026462D01*
X018366Y026462D02*
X018366Y026913D01*
X018065Y027214D01*
X015709Y027214D01*
X014000Y025505D01*
X014000Y021930D02*
X012685Y020615D01*
X012685Y020200D01*
X012608Y020123D01*
X012091Y020123D01*
X012685Y020200D02*
X012685Y018312D01*
X005213Y023178D02*
X004217Y022182D01*
X004217Y021501D01*
X011276Y033582D02*
X011397Y033582D01*
X011477Y033501D01*
X011633Y033501D01*
X011649Y033517D01*
X011968Y033517D01*
X011969Y033519D01*
X013039Y034064D02*
X013583Y033520D01*
X015801Y033520D01*
X014803Y034556D02*
X014803Y035832D01*
X015827Y036855D01*
X031388Y036855D01*
X032429Y035814D01*
X032429Y028739D01*
X034372Y026796D01*
X034372Y026298D01*
X031779Y023706D01*
X023549Y023706D01*
X023000Y024255D01*
X023000Y024930D01*
X024000Y024930D02*
X024000Y024396D01*
X024375Y024021D01*
X031550Y024021D01*
X033828Y026298D01*
X033828Y026859D01*
X032035Y028651D01*
X032035Y035529D01*
X031103Y036462D01*
X020157Y036462D01*
X019331Y035635D01*
X019331Y034556D01*
X023858Y034556D02*
X023858Y035438D01*
X024488Y036068D01*
X030806Y036068D01*
X031642Y035232D01*
X031642Y028551D01*
X033306Y026886D01*
X033306Y026330D01*
X031312Y024336D01*
X025167Y024336D01*
X025000Y024503D01*
X025000Y024930D01*
X027000Y024930D02*
X027181Y024749D01*
X031165Y024749D01*
X032785Y026370D01*
X032785Y026920D01*
X031248Y028457D01*
X031248Y034955D01*
X030529Y035674D01*
X028819Y035674D01*
X028386Y035241D01*
X028386Y034556D01*
X024654Y029414D02*
X024654Y028080D01*
X024680Y028054D01*
X024680Y028019D01*
X024499Y027839D01*
X022625Y027839D01*
X022587Y027800D01*
X022000Y022838D02*
X027887Y022838D01*
X029373Y021352D01*
X029373Y020421D01*
X030891Y018903D01*
X031185Y018903D01*
X032669Y020241D02*
X032669Y020925D01*
X032677Y020932D01*
X036917Y020932D01*
X037429Y020420D01*
X037429Y018903D01*
X032669Y020925D02*
X032669Y021477D01*
X032665Y021481D01*
X029081Y015162D02*
X028532Y015162D01*
D25*
X028934Y015160D02*
X028936Y015160D01*
X029074Y015023D01*
X029074Y015881D01*
X029126Y015933D01*
X029203Y015933D01*
X029206Y015930D01*
X029206Y015557D01*
X029144Y015495D01*
X029144Y014426D01*
X029128Y014410D01*
X029133Y014410D01*
X029130Y014414D01*
X029102Y014414D01*
X029089Y014403D02*
X029084Y014397D01*
X029084Y014390D01*
X029201Y014273D01*
X029232Y014273D01*
X029250Y014291D01*
X029224Y014383D02*
X029154Y014313D01*
X029154Y015872D01*
X029146Y015879D01*
X029185Y015910D02*
X029223Y015910D01*
X029224Y015911D01*
X029224Y014383D01*
X029128Y014410D02*
X029120Y014403D01*
X029089Y014403D01*
X029061Y014353D02*
X029061Y015033D01*
X028934Y015160D01*
X028936Y015160D02*
X028936Y015173D01*
X029217Y015453D01*
X029217Y015930D01*
X029102Y015828D02*
X029081Y015807D01*
X029081Y015162D01*
X029061Y014353D02*
X029473Y013941D01*
X029590Y013941D01*
X028436Y014084D02*
X028397Y014084D01*
X028272Y014208D01*
X028272Y014540D01*
X027761Y015051D01*
X027761Y015061D01*
X027800Y015100D01*
X027824Y015100D01*
X027841Y015083D01*
X027816Y015059D01*
X027811Y015059D01*
X027787Y015084D01*
X027819Y015108D02*
X027572Y015108D01*
X027819Y015108D02*
X028252Y014675D01*
X028252Y014628D01*
X028361Y014519D01*
X028361Y014146D01*
X028366Y014151D01*
X028366Y014558D01*
X027841Y015083D01*
X027399Y014750D02*
X027111Y014750D01*
X027399Y014750D02*
X027902Y014247D01*
X027889Y014234D01*
X027889Y014224D01*
X027872Y014207D01*
X027902Y014247D02*
X027902Y014055D01*
X027891Y014045D01*
X026730Y012892D02*
X026668Y012953D01*
X026220Y012953D01*
X026163Y012895D01*
X026163Y012886D01*
X026264Y012784D01*
X026267Y012788D01*
X026757Y012788D01*
X026941Y012604D01*
X026978Y012604D01*
X026979Y012605D01*
X026781Y012784D02*
X026730Y012836D01*
X026730Y012826D01*
X026724Y012820D01*
X028068Y011476D01*
X028433Y011476D01*
X029916Y011514D02*
X030165Y011514D01*
X030166Y011514D01*
X030373Y011307D01*
X030373Y010882D01*
X030356Y010865D01*
X030289Y010865D01*
X030289Y010862D01*
X030327Y010823D01*
X030327Y010845D01*
X030319Y010845D01*
X030328Y010837D01*
X030312Y010821D01*
X030312Y010820D01*
X030267Y010865D01*
X030267Y011244D01*
X030010Y011501D01*
X029939Y011501D01*
X029936Y011486D02*
X030057Y011486D01*
X030120Y011486D01*
X030373Y011234D01*
X030373Y011305D01*
X030165Y011514D01*
X030057Y011486D02*
X030285Y011258D01*
X030285Y010865D01*
X030289Y010862D01*
X030318Y010847D02*
X030319Y010845D01*
X030323Y010851D02*
X030329Y010845D01*
X030327Y010845D01*
X030327Y011218D01*
X030374Y011265D01*
X030374Y010872D01*
X030327Y010825D01*
X030328Y010837D02*
X030338Y010847D01*
X030334Y010845D02*
X030329Y010845D01*
X030373Y011055D02*
X030373Y011234D01*
X032388Y011853D02*
X032500Y011853D01*
X033005Y012357D01*
X033037Y012357D01*
X033037Y012324D01*
X033037Y012317D01*
X033037Y012324D02*
X033051Y012338D01*
X033037Y012357D02*
X033395Y012357D01*
X033291Y013407D02*
X033263Y013407D01*
X033158Y013513D01*
X033148Y013522D01*
X033148Y013528D01*
X033043Y013407D02*
X033263Y013407D01*
X033281Y013416D02*
X033281Y013624D01*
X033281Y013416D02*
X033291Y013407D01*
X033043Y013407D02*
X033018Y013382D01*
X032790Y014848D02*
X032975Y015034D01*
X032975Y015970D01*
X032947Y015970D01*
X032914Y015937D01*
X031994Y015991D02*
X031994Y015083D01*
X031286Y014375D01*
X031286Y014382D01*
X031286Y014396D01*
X031268Y014414D01*
X031276Y014389D02*
X031241Y014424D01*
X031241Y014473D01*
X031913Y015146D01*
X031913Y015710D01*
X031721Y015903D01*
X031721Y015921D01*
X031865Y016064D01*
X031920Y016064D01*
X031994Y015991D01*
X031896Y016457D02*
X031896Y016916D01*
X031893Y016919D01*
X031893Y016853D01*
X031717Y016677D01*
X031724Y016660D02*
X031724Y016629D01*
X031830Y016523D01*
X031830Y016580D01*
X031908Y016658D01*
X031830Y016523D02*
X031896Y016457D01*
X031018Y016665D02*
X030986Y016633D01*
X030527Y016633D01*
X030137Y017023D01*
X030137Y017663D01*
X030067Y017732D01*
X030137Y017732D01*
X030224Y017645D01*
X030192Y017645D01*
X030177Y017631D01*
X030177Y017635D01*
X030185Y017643D01*
X030224Y017645D02*
X030224Y017072D01*
X030617Y016680D01*
X029207Y017997D02*
X029334Y018124D01*
X029334Y018195D01*
X029218Y018195D01*
X029185Y018162D01*
X029334Y018195D02*
X029213Y018316D01*
X029207Y017997D02*
X029172Y017997D01*
X030090Y018490D02*
X030119Y018461D01*
X030090Y018490D02*
X030090Y019068D01*
X030064Y019068D01*
X030028Y019104D01*
X030090Y019068D02*
X029943Y019216D01*
X029930Y019216D01*
X030488Y019327D02*
X030791Y019327D01*
X031209Y018910D01*
X031202Y018903D01*
X031185Y018903D01*
X031198Y018907D02*
X030783Y019323D01*
X030519Y019323D01*
X030872Y018970D01*
X031069Y018970D01*
X030785Y019254D01*
X030646Y019254D01*
X030881Y019019D01*
X030907Y019019D01*
X031017Y018910D01*
X031209Y018910D01*
X030746Y020374D02*
X030411Y020374D01*
X030003Y020782D01*
X030003Y020785D01*
X030081Y020863D01*
X030143Y020863D01*
X030150Y020855D01*
X030185Y020855D01*
X030284Y020618D02*
X030449Y020452D01*
X030496Y020452D01*
X030498Y020450D01*
X030562Y020450D01*
X030463Y020549D01*
X030437Y020549D01*
X030458Y020570D01*
X030647Y020570D01*
X030647Y021108D01*
X030534Y021221D01*
X030534Y020606D01*
X030548Y020592D01*
X030548Y020966D01*
X030560Y020978D01*
X030560Y020799D01*
X030609Y020749D01*
X030609Y020952D01*
X030605Y020957D01*
X030543Y020895D01*
X030543Y020712D01*
X030503Y020618D02*
X030284Y020618D01*
X030503Y020618D02*
X030746Y020374D01*
X032626Y021505D02*
X032639Y021492D01*
X032661Y021470D01*
X032670Y021470D01*
X032665Y021475D01*
X032665Y021481D01*
X032639Y021492D02*
X032639Y020246D01*
X032664Y020220D01*
X032670Y020220D01*
X032677Y020737D02*
X032860Y020920D01*
X032883Y020920D01*
X032719Y021084D01*
X032719Y021486D01*
X032700Y021505D01*
X032626Y021505D01*
X034467Y021915D02*
X034500Y021882D01*
X034467Y021915D02*
X034467Y021918D01*
X034804Y022256D01*
X035165Y022256D01*
X035348Y022073D01*
X036758Y020951D02*
X036959Y020951D01*
X037445Y020465D01*
X037445Y020379D01*
X037429Y020363D01*
X037427Y020361D01*
X037429Y020363D02*
X037429Y020420D01*
X039420Y018381D02*
X039492Y018381D01*
X039537Y018336D01*
X039537Y017794D01*
X038107Y016365D01*
X038107Y016332D01*
X037820Y016237D02*
X037780Y016278D01*
X037780Y016624D01*
X039132Y017976D01*
X039213Y017976D01*
X039260Y017929D01*
X039287Y017929D01*
X039331Y017885D01*
X039132Y017976D02*
X039132Y018093D01*
X039420Y018381D01*
X037789Y015548D02*
X037789Y015525D01*
X037896Y015419D01*
X037896Y015377D01*
X037942Y015332D01*
X037789Y015548D02*
X037666Y015424D01*
X037666Y015239D01*
X037840Y015065D01*
X037840Y014604D01*
X037649Y014413D01*
X037649Y014284D01*
X037930Y014003D01*
X037930Y013969D01*
X037006Y012987D02*
X036998Y012980D01*
X036943Y012980D01*
X036921Y012958D01*
X036829Y012865D01*
X036276Y012313D01*
X035945Y012313D01*
X036276Y012313D02*
X036424Y012313D01*
X037009Y012899D01*
X037009Y012954D01*
X036994Y012969D01*
X036976Y012969D01*
X036980Y012958D02*
X036921Y012958D01*
X037167Y011802D02*
X037123Y011757D01*
X035945Y011757D01*
X036148Y011757D02*
X035717Y011757D01*
X035713Y011754D01*
X035691Y011754D01*
X035713Y011732D01*
X035713Y011718D01*
X035710Y011750D02*
X036155Y011750D01*
X036148Y011757D01*
X036196Y011713D02*
X036247Y011713D01*
X036372Y011713D01*
X036487Y011599D01*
X036884Y011599D01*
X036913Y011570D01*
X036789Y011570D01*
X036637Y011419D01*
X036784Y011419D01*
X037123Y011757D01*
X036917Y011520D02*
X036651Y011520D01*
X036646Y011515D01*
X036646Y011530D01*
X036867Y011530D01*
X036646Y011530D02*
X036612Y011530D01*
X036591Y011508D01*
X036591Y011190D01*
X036585Y011184D01*
X036585Y011436D01*
X036607Y011477D02*
X036607Y011333D01*
X036462Y011188D01*
X036462Y011236D01*
X036542Y011316D01*
X036509Y011349D01*
X036509Y011570D01*
X036464Y011562D02*
X036542Y011485D01*
X036542Y011316D01*
X036462Y011188D02*
X036462Y010593D01*
X036401Y010532D01*
X036401Y010545D01*
X036480Y010623D01*
X036481Y010623D01*
X036588Y010623D01*
X036589Y010622D01*
X036635Y010622D01*
X036650Y010637D01*
X036668Y010655D02*
X036668Y010677D01*
X036670Y010679D01*
X036461Y010889D01*
X036461Y011500D01*
X036247Y011713D01*
X036464Y011562D02*
X036464Y011176D01*
X036667Y010973D01*
X036481Y010623D02*
X036353Y010496D01*
X036311Y010496D01*
X036346Y010490D02*
X036346Y010463D01*
X036495Y010314D01*
X036673Y010427D02*
X036685Y010414D01*
X036867Y010414D01*
X036867Y009992D01*
X035982Y009107D01*
X035741Y009107D01*
X035605Y009243D01*
X036346Y010490D02*
X036401Y010545D01*
X036668Y010467D02*
X036673Y010463D01*
X036673Y010427D01*
X036607Y011477D02*
X036646Y011515D01*
X036646Y011505D01*
X035710Y011750D02*
X035680Y011721D01*
X035680Y011706D02*
X035680Y011743D01*
X035691Y011754D01*
X034848Y012355D02*
X034723Y012480D01*
X034697Y012480D01*
X034552Y012336D01*
X034647Y012336D01*
X034708Y012396D01*
X034552Y012336D02*
X034469Y012336D01*
X034689Y013683D02*
X034693Y013687D01*
X034730Y013687D01*
X035342Y014300D01*
X035342Y014305D01*
X035315Y014332D01*
X035333Y014352D02*
X035323Y014362D01*
X035278Y014362D01*
X034689Y013773D01*
X034689Y013683D01*
X035342Y014305D02*
X035342Y014336D01*
X034778Y015032D02*
X034665Y015032D01*
X034665Y015146D01*
X034769Y015249D01*
X034709Y015194D02*
X034937Y015421D01*
X035257Y015421D01*
X035346Y015332D01*
X035315Y015332D01*
X035346Y015332D02*
X035352Y015326D01*
X035349Y015302D02*
X035349Y015383D01*
X035306Y015426D01*
X035293Y015426D01*
X035285Y015434D01*
X034952Y015434D01*
X034698Y015181D01*
X034698Y015156D01*
X034772Y015082D01*
X034829Y015082D01*
X034778Y015032D01*
X034785Y015053D02*
X034803Y015053D01*
X035035Y015285D01*
X035267Y015285D01*
X035270Y015289D01*
X035336Y015289D01*
X035349Y015302D01*
X034785Y015053D02*
X034709Y015129D01*
X034709Y015194D01*
X034001Y015168D02*
X034001Y015835D01*
X034462Y016296D01*
X035309Y016296D01*
X035335Y016321D01*
X035335Y016336D01*
X035332Y016339D02*
X035332Y016315D01*
X035332Y016304D01*
X035320Y016293D01*
X035332Y016315D02*
X035315Y016332D01*
X035332Y016339D02*
X035312Y016358D01*
X034410Y016358D01*
X033909Y015857D01*
X033909Y015076D01*
X034001Y015168D01*
X032790Y014848D02*
X032776Y014848D01*
X031286Y014382D02*
X031220Y014449D01*
X034275Y017305D02*
X034290Y017290D01*
X035323Y017290D01*
X035323Y017324D01*
X035315Y017332D01*
X035349Y017331D02*
X035349Y017340D01*
X035308Y017381D01*
X034329Y017381D01*
X034275Y017327D01*
X034275Y017305D01*
X035323Y017290D02*
X035347Y017314D01*
X033725Y010480D02*
X033728Y010477D01*
X033728Y010468D01*
X033718Y010477D01*
X033713Y010477D01*
X033728Y010477D02*
X033737Y010468D01*
X033737Y010446D01*
X033141Y009849D01*
X032982Y009849D01*
X027454Y009874D02*
X027432Y009853D01*
X026873Y009853D01*
X026168Y010558D01*
X026168Y010586D01*
X026187Y010586D01*
X026187Y010594D01*
X026185Y010595D01*
X026185Y010590D01*
X026196Y010579D01*
X026196Y010589D01*
X026178Y010606D01*
X026194Y010622D01*
X026213Y010622D01*
X026952Y009884D01*
X027152Y009884D01*
X026168Y010586D02*
X026168Y010604D01*
X025236Y010579D02*
X025236Y010043D01*
X025044Y009852D01*
X024889Y009852D01*
X025128Y010091D01*
X025128Y010600D01*
X025156Y010628D01*
X025205Y010628D01*
X025234Y010599D01*
X025236Y010579D02*
X025194Y010621D01*
X025194Y010602D01*
X025185Y010593D01*
X025187Y010621D02*
X025194Y010621D01*
X024889Y009852D02*
X024729Y009852D01*
X024171Y011775D02*
X023502Y011775D01*
X023030Y012248D01*
X023030Y012337D01*
X023491Y011875D01*
X024164Y011875D01*
X024164Y011837D01*
X024185Y011816D01*
X024208Y011819D02*
X024208Y011831D01*
X024164Y011875D01*
X024175Y011875D02*
X024216Y011834D01*
X024216Y011819D01*
X024171Y011775D01*
X024172Y012863D02*
X023959Y013075D01*
X023959Y014132D01*
X023980Y014153D01*
X024007Y014153D01*
X024059Y014101D01*
X024059Y013480D01*
X024204Y013336D01*
X024204Y012881D01*
X024189Y012867D01*
X024178Y012867D01*
X024172Y012863D02*
X024172Y012888D01*
X024179Y012888D01*
X024179Y012885D01*
X024185Y012879D01*
X024172Y012888D02*
X024172Y013277D01*
X024065Y013384D01*
X024065Y013060D01*
X024098Y013027D01*
X024098Y013293D01*
X024893Y013830D02*
X024893Y014120D01*
X024946Y014173D01*
X025085Y014173D01*
X025129Y014130D01*
X025129Y013955D01*
X025105Y013931D01*
X025105Y013820D01*
X025091Y013806D01*
X025091Y013904D01*
X025152Y013965D01*
X025152Y014120D01*
X025015Y014120D01*
X025000Y014135D01*
X025004Y014147D02*
X025145Y014005D01*
X025145Y013719D01*
X025347Y013517D01*
X025368Y013517D01*
X025365Y013520D01*
X025203Y013520D01*
X024893Y013830D01*
X025152Y014120D02*
X025105Y014167D01*
X026167Y012876D02*
X026259Y012784D01*
X026264Y012784D01*
X026264Y012784D01*
X026781Y012784D01*
X026724Y012820D02*
X026417Y012820D01*
X026174Y012876D02*
X026167Y012876D01*
X026687Y012849D02*
X026700Y012836D01*
X026730Y012836D01*
X026730Y012892D01*
X026718Y012879D02*
X026689Y012849D01*
X026687Y012849D01*
X025916Y016284D02*
X025906Y016284D01*
X025916Y016284D02*
X026078Y016445D01*
X026078Y017077D01*
X026078Y017083D01*
X026009Y017153D01*
X026009Y017149D01*
X026019Y017139D01*
X026000Y017135D02*
X026015Y017119D01*
X026081Y017119D01*
X026081Y017017D01*
X026068Y017004D01*
X026078Y017077D02*
X025999Y017156D01*
X025989Y017159D02*
X026041Y017159D01*
X026081Y017119D01*
X025989Y017159D02*
X025962Y017133D01*
X025962Y016353D01*
X025966Y016350D01*
X025989Y016350D01*
X026078Y016439D01*
X026078Y016445D01*
X026910Y016687D02*
X027178Y016419D01*
X027277Y016419D01*
X027122Y016551D02*
X027122Y017060D01*
X027026Y017156D01*
X026933Y017156D01*
X026910Y017133D01*
X026998Y017133D01*
X027000Y017135D01*
X026910Y017133D02*
X026910Y016687D01*
X025070Y016518D02*
X025024Y016472D01*
X024984Y016472D01*
X024938Y016426D01*
X024938Y017113D01*
X024978Y017113D01*
X025000Y017135D01*
X025004Y017153D02*
X025024Y017153D01*
X025070Y017106D01*
X025070Y016518D01*
X024938Y017113D02*
X024985Y017159D01*
X024073Y017119D02*
X024073Y016598D01*
X023607Y016132D01*
X023481Y016132D01*
X023921Y016571D01*
X023921Y017116D01*
X023981Y017116D01*
X024000Y017135D01*
X024007Y017156D02*
X024000Y017162D01*
X023967Y017162D01*
X023921Y017116D01*
X024000Y017166D02*
X024027Y017166D01*
X024073Y017119D01*
X023072Y017132D02*
X023072Y016627D01*
X022927Y016482D01*
X022507Y016482D01*
X022484Y016505D01*
X022672Y016505D01*
X022897Y016730D01*
X022897Y017129D01*
X022994Y017129D01*
X023000Y017135D01*
X023009Y017162D02*
X022930Y017162D01*
X022897Y017129D01*
X022953Y017166D02*
X022959Y017159D01*
X023045Y017159D01*
X023072Y017132D01*
X023353Y016132D02*
X023481Y016132D01*
X022410Y014747D02*
X022117Y014747D01*
X021952Y014582D01*
X021952Y014153D01*
X022006Y014099D01*
X022006Y014165D01*
X022083Y014242D01*
X022083Y014612D01*
X022176Y014705D01*
X022176Y014705D01*
X022187Y014717D01*
X022306Y014717D01*
X022332Y014717D01*
X022306Y014717D02*
X022147Y014558D01*
X022147Y014236D01*
X022017Y014106D01*
X022006Y014106D01*
X020199Y013641D02*
X020199Y013559D01*
X020185Y013545D01*
X020199Y013641D02*
X020041Y013799D01*
X020041Y014145D01*
X020026Y014160D01*
X019957Y014160D01*
X019919Y014122D01*
X019987Y014122D01*
X020000Y014135D01*
X019919Y014122D02*
X019919Y013791D01*
X020077Y013632D01*
X020099Y013632D01*
X018926Y013201D02*
X018926Y013107D01*
X018844Y013025D01*
X018844Y012792D01*
X018837Y012785D01*
X018847Y012681D02*
X018778Y012681D01*
X018778Y013053D01*
X018926Y013201D01*
X018856Y012681D02*
X018847Y012681D01*
X018886Y012643D01*
X018897Y012640D02*
X018856Y012681D01*
X018272Y013169D02*
X017964Y013476D01*
X017964Y014132D01*
X017992Y014160D01*
X017992Y014160D01*
X018013Y014156D02*
X018035Y014134D01*
X018000Y014134D01*
X018000Y014135D01*
X018035Y014134D02*
X018035Y013547D01*
X018272Y013310D01*
X018272Y013169D01*
X017050Y013543D02*
X017050Y014119D01*
X017011Y014158D01*
X017003Y014158D02*
X016976Y014158D01*
X016940Y014122D01*
X016987Y014122D01*
X017000Y014135D01*
X016940Y014122D02*
X016940Y013617D01*
X017014Y013543D01*
X017050Y013543D01*
X015092Y014178D02*
X015092Y014485D01*
X014787Y014790D01*
X014744Y014747D01*
X014744Y014799D01*
X013545Y014799D01*
X013421Y014675D01*
X013502Y014675D01*
X013567Y014739D01*
X014645Y014739D01*
X014744Y014747D02*
X014744Y014713D01*
X014744Y014799D02*
X014776Y014799D01*
X014891Y014683D01*
X014891Y014529D01*
X014906Y014514D01*
X014955Y014381D02*
X014955Y014149D01*
X014988Y014116D01*
X014988Y014111D01*
X014993Y014107D01*
X015023Y014107D01*
X015037Y014123D02*
X015092Y014178D01*
X015037Y014123D02*
X015026Y014134D01*
X015004Y014134D01*
X015002Y014135D01*
X015000Y014135D01*
X014955Y014381D02*
X014546Y014790D01*
X014787Y014790D01*
X013830Y014787D02*
X013550Y014787D01*
X013533Y014787D01*
X012902Y014156D01*
X012789Y014156D01*
X012554Y014471D02*
X012357Y014471D01*
X012554Y014471D02*
X013182Y015099D01*
X013235Y015099D01*
X013335Y015099D01*
X013235Y015099D02*
X013220Y015084D01*
X013550Y014787D02*
X013569Y014769D01*
X012869Y015794D02*
X012496Y015794D01*
X012042Y016248D01*
X011981Y016248D01*
X011961Y016268D01*
X012000Y016290D02*
X011801Y016290D01*
X012000Y016290D02*
X012042Y016248D01*
X011991Y016688D02*
X012350Y016688D01*
X012350Y016660D01*
X012347Y016660D01*
X012337Y016670D01*
X012350Y016688D02*
X012375Y016688D01*
X012927Y016136D01*
X013103Y016136D01*
X013294Y016501D02*
X013313Y016520D01*
X013330Y016520D01*
X012758Y017092D01*
X012584Y017092D01*
X013330Y016520D02*
X013613Y016520D01*
X012195Y015433D02*
X012076Y015433D01*
X011604Y015905D01*
X010612Y015905D01*
X010612Y015879D01*
X009874Y015169D02*
X009706Y015001D01*
X009734Y015001D01*
X009706Y015001D02*
X009686Y014981D01*
X009686Y014345D01*
X009512Y014170D01*
X009512Y014157D01*
X009116Y014413D02*
X009116Y015064D01*
X009126Y015053D01*
X009155Y015053D01*
X009116Y015064D02*
X009324Y015272D01*
X008634Y016416D02*
X009276Y017058D01*
X008924Y017503D02*
X008684Y017503D01*
X008684Y017487D01*
X008251Y017054D01*
X008218Y017054D01*
X008218Y017090D01*
X008216Y017092D01*
X008193Y017092D01*
X008182Y017085D02*
X008176Y017092D01*
X008176Y017160D01*
X008556Y017541D01*
X008962Y017541D01*
X008924Y017503D01*
X008635Y017545D02*
X008513Y017545D01*
X008157Y017190D01*
X008157Y017075D01*
X008179Y017053D01*
X008198Y017073D01*
X008205Y017073D01*
X008193Y017061D01*
X008193Y017054D01*
X008178Y017069D01*
X008193Y017054D02*
X008218Y017054D01*
X008348Y016432D02*
X008364Y016416D01*
X008500Y016416D01*
X008522Y016438D01*
X008580Y016438D01*
X008634Y016416D02*
X008500Y016416D01*
X009116Y014413D02*
X009007Y014305D01*
X008855Y013532D02*
X008772Y013449D01*
X008619Y013449D01*
X008525Y013356D01*
X008525Y013322D01*
X008595Y013302D02*
X008255Y013302D01*
X008242Y013289D01*
X008389Y013289D01*
X008632Y013532D01*
X008855Y013532D01*
X008852Y013522D02*
X008698Y013369D01*
X008662Y013369D01*
X008595Y013302D01*
X008619Y013366D02*
X008772Y013519D01*
X008875Y013519D01*
X008878Y013522D01*
X008852Y013522D01*
X008619Y013366D02*
X008212Y013366D01*
X008166Y013319D01*
X008166Y013196D01*
X008216Y013146D01*
X008542Y013146D01*
X008602Y013206D01*
X008602Y013232D01*
X008583Y013214D01*
X008500Y013214D01*
X006064Y010744D02*
X006187Y010622D01*
X006187Y010604D01*
X006187Y010582D01*
X006067Y010462D01*
X006079Y010604D02*
X006187Y010604D01*
X006064Y010744D02*
X006048Y010744D01*
X005053Y011225D02*
X005052Y011225D01*
X005051Y011225D01*
X005053Y011225D02*
X005053Y011250D01*
X005057Y011254D01*
X005011Y011254D01*
X004263Y010506D01*
X004263Y009498D01*
X004526Y009235D01*
X005396Y009235D01*
X005458Y009297D01*
X005457Y009313D02*
X005419Y009275D01*
X005419Y009306D01*
X005485Y009306D01*
X005419Y009275D02*
X005380Y009236D01*
X004680Y009236D01*
X004606Y009236D02*
X004329Y009513D01*
X004329Y009554D01*
X004306Y009576D01*
X004281Y009560D02*
X004329Y009513D01*
X004287Y009607D02*
X004287Y009657D01*
X004584Y009360D01*
X005115Y009360D01*
X005144Y009331D01*
X004860Y009331D01*
X004852Y009323D01*
X004856Y009323D01*
X005032Y009498D01*
X005034Y009496D01*
X005034Y009489D01*
X005047Y009502D01*
X005061Y009502D01*
X005216Y009347D01*
X005187Y009347D01*
X005109Y009347D01*
X005051Y009404D01*
X005051Y009321D01*
X005067Y009306D01*
X004948Y009291D02*
X004893Y009236D01*
X004606Y009236D01*
X004892Y009327D02*
X005047Y009482D01*
X005052Y009482D01*
X005187Y009347D01*
X005228Y009360D02*
X005091Y009498D01*
X005032Y009498D01*
X005034Y009489D02*
X005034Y009453D01*
X004899Y009318D01*
X004287Y009657D02*
X004287Y009724D01*
X003039Y012223D02*
X002747Y012223D01*
X002489Y012481D01*
X002489Y013066D01*
X002560Y013138D01*
X002560Y013136D01*
X002635Y013061D01*
X002635Y012541D01*
X002910Y012266D01*
X002881Y012257D02*
X003074Y012257D01*
X003039Y012223D01*
X002881Y012257D02*
X002632Y012507D01*
X002632Y013064D01*
X002572Y013124D01*
X002559Y013111D01*
X002559Y013099D01*
X002569Y015061D02*
X002574Y015066D01*
X002569Y015061D02*
X002519Y015061D01*
X002469Y015110D01*
X002469Y015662D01*
X002614Y015806D01*
X002763Y015806D01*
X002796Y015774D01*
X002796Y015754D01*
X002644Y015602D01*
X002644Y015131D01*
X002581Y015068D01*
X002559Y015068D01*
X002559Y015099D01*
X004759Y015117D02*
X004827Y015049D01*
X004827Y014553D01*
X004885Y014495D01*
X004887Y014495D01*
X004887Y014520D01*
X004867Y014540D01*
X004759Y015117D02*
X004759Y015140D01*
X006190Y017073D02*
X006190Y017075D01*
X006198Y017083D01*
X006198Y017088D01*
X006195Y017092D01*
X006193Y017092D01*
X006190Y017075D02*
X006172Y017093D01*
X006172Y017318D01*
X006530Y017676D01*
X006530Y017560D01*
X006223Y017253D01*
X006539Y020578D02*
X006561Y020600D01*
X006561Y020763D01*
X005803Y021521D01*
X005803Y022132D01*
X005799Y022128D01*
X005783Y022128D01*
X005803Y022132D02*
X005949Y022278D01*
X005764Y022184D02*
X005764Y022070D01*
X006302Y022608D01*
X006302Y023171D01*
X006295Y023178D01*
X006213Y023178D01*
X006206Y023198D02*
X006185Y023198D01*
X006144Y023157D01*
X006144Y022564D01*
X005764Y022184D01*
X005764Y022070D02*
X005764Y021893D01*
X006188Y023212D02*
X006261Y023212D01*
X006295Y023178D01*
X006900Y023852D02*
X007019Y023852D01*
X007019Y023933D01*
X006632Y024320D01*
X006220Y024320D01*
X006162Y024262D01*
X006162Y024147D01*
X006160Y024145D01*
X006160Y024122D01*
X006219Y024064D01*
X006283Y024064D01*
X006283Y024160D01*
X006263Y024180D01*
X006178Y024180D01*
X006178Y024210D01*
X006200Y024232D01*
X006719Y024232D01*
X006833Y024118D01*
X006833Y024062D01*
X006917Y023977D01*
X006915Y023975D01*
X006783Y023975D01*
X006634Y024123D01*
X006213Y024123D01*
X006193Y024143D01*
X006213Y024164D01*
X006213Y024178D01*
X006176Y024184D02*
X006176Y024202D01*
X006176Y024184D02*
X006174Y024182D01*
X006174Y024162D01*
X006193Y024143D01*
X006160Y024145D02*
X006160Y024188D01*
X006283Y024064D02*
X006689Y024064D01*
X006900Y023852D01*
X005235Y023199D02*
X005228Y023206D01*
X005191Y023206D01*
X004151Y022166D01*
X004151Y021539D01*
X004217Y021473D01*
X004217Y021501D01*
X004217Y021501D01*
X004230Y021501D01*
X004252Y021479D01*
X004247Y021475D01*
X004210Y021475D01*
X004174Y021512D01*
X004174Y022167D01*
X004297Y022291D01*
X004343Y022291D01*
X004281Y022229D01*
X004281Y021512D01*
X004256Y021486D01*
X004217Y021486D01*
X004217Y021473D02*
X004246Y021502D01*
X004246Y021531D01*
X008285Y021279D02*
X008426Y021138D01*
X008424Y021136D01*
X008293Y021136D01*
X008426Y021127D02*
X008426Y021138D01*
X008426Y021127D02*
X008253Y020954D01*
X008253Y020952D01*
X009069Y021915D02*
X009081Y021927D01*
X009085Y021927D01*
X009083Y021929D01*
X009083Y021934D01*
X009069Y021915D02*
X009063Y021921D01*
X009063Y022480D01*
X009299Y022716D01*
X009299Y022614D01*
X009134Y022449D01*
X009134Y022086D01*
X009153Y022067D01*
X009153Y022160D01*
X009237Y022244D01*
X009237Y022430D01*
X009193Y022474D01*
X009333Y024558D02*
X009333Y025072D01*
X009313Y025052D01*
X009313Y025015D01*
X009299Y025001D01*
X009299Y024912D01*
X009299Y025001D02*
X009109Y025192D01*
X008916Y025192D01*
X008914Y025190D01*
X008914Y025400D01*
X008883Y025431D01*
X008739Y025666D02*
X009333Y025072D01*
X009316Y025015D02*
X009313Y025015D01*
X008739Y025666D02*
X007891Y025666D01*
X007801Y025756D01*
X006516Y027031D02*
X006508Y027039D01*
X006245Y027039D01*
X006190Y027093D01*
X005958Y027093D01*
X006109Y026942D01*
X006109Y026468D01*
X006138Y026439D01*
X006169Y026439D01*
X006192Y026462D01*
X006203Y026473D01*
X006192Y026462D02*
X006154Y026462D01*
X006159Y026444D02*
X006206Y026491D01*
X006206Y026921D01*
X006315Y027031D01*
X006516Y027031D01*
X005958Y027093D02*
X005893Y027093D01*
X005011Y027086D02*
X004563Y027086D01*
X004366Y026888D01*
X004700Y026888D01*
X004854Y027042D01*
X004598Y027042D01*
X004520Y026965D01*
X004709Y026965D01*
X004717Y026973D01*
X004756Y026831D02*
X005011Y027086D01*
X004665Y027129D02*
X004345Y027129D01*
X004191Y026974D01*
X004191Y026845D01*
X004214Y026868D01*
X004278Y026868D01*
X004265Y026855D01*
X004217Y026855D01*
X004217Y026847D01*
X004220Y026844D01*
X004220Y026839D01*
X004212Y026831D01*
X004756Y026831D01*
X004580Y028575D02*
X003926Y029229D01*
X003926Y029953D01*
X004080Y029798D01*
X004185Y029798D01*
X004185Y029867D01*
X004185Y029868D01*
X004185Y029798D02*
X004422Y029798D01*
X004956Y029799D02*
X005122Y029632D01*
X005252Y029632D01*
X005414Y029795D01*
X005414Y030904D01*
X005880Y031369D01*
X005880Y032901D01*
X006657Y033678D01*
X006757Y033579D01*
X006757Y033519D01*
X006657Y033678D02*
X006725Y033746D01*
X006725Y033880D01*
X006517Y033870D02*
X006406Y033760D01*
X006100Y033760D01*
X005473Y033132D01*
X005473Y033275D01*
X005483Y033285D01*
X005463Y033285D01*
X005440Y033308D01*
X005311Y033308D01*
X005320Y033299D01*
X005301Y033280D01*
X005270Y033311D01*
X005310Y033308D02*
X005311Y033308D01*
X005310Y033308D02*
X005310Y033304D01*
X005414Y033200D01*
X005414Y031571D01*
X004956Y031112D01*
X004956Y029799D01*
X005954Y029769D02*
X005954Y030449D01*
X006855Y031350D01*
X006855Y032511D01*
X006940Y032595D01*
X007073Y032566D02*
X007131Y032508D01*
X007070Y032446D01*
X007035Y032446D01*
X007131Y032508D02*
X007229Y032410D01*
X007229Y031148D01*
X006341Y030260D01*
X006341Y030192D01*
X006481Y030052D01*
X006322Y030052D01*
X005996Y029727D01*
X005954Y029769D01*
X005446Y028774D02*
X005246Y028575D01*
X004580Y028575D01*
X002265Y027087D02*
X002265Y026844D01*
X002233Y026812D01*
X002181Y026812D01*
X002172Y026822D01*
X002172Y026829D01*
X002172Y026828D01*
X002178Y026828D01*
X002180Y026827D01*
X002180Y026819D01*
X002219Y026819D01*
X002235Y026836D01*
X002235Y026964D01*
X002221Y026979D01*
X002217Y026974D01*
X002217Y026855D01*
X002233Y026842D02*
X002233Y026964D01*
X001856Y027342D01*
X001817Y027303D01*
X001817Y027182D01*
X002180Y026819D01*
X002172Y026829D02*
X002140Y026860D01*
X002239Y026822D02*
X002258Y026841D01*
X002258Y027010D01*
X001846Y027423D01*
X001846Y027506D01*
X002265Y027087D01*
X001846Y027506D02*
X001846Y027589D01*
X003261Y032723D02*
X003261Y032814D01*
X003746Y033299D01*
X003724Y033299D01*
X003719Y033295D01*
X003719Y033312D01*
X003572Y033790D02*
X002904Y033121D01*
X002904Y032960D01*
X004722Y034527D02*
X004748Y034553D01*
X004748Y034556D01*
X004773Y034572D02*
X004773Y034532D01*
X004764Y034523D01*
X004759Y034523D01*
X004757Y034527D02*
X004722Y034527D01*
X004239Y035010D01*
X004027Y035010D01*
X004025Y035012D01*
X004035Y035012D01*
X004282Y035260D01*
X004282Y035063D01*
X004773Y034572D01*
X004214Y035116D02*
X004214Y035188D01*
X004214Y035116D02*
X004201Y035103D01*
X004282Y035260D02*
X004345Y035322D01*
X005665Y034556D02*
X005665Y033958D01*
X005476Y033769D01*
X005401Y033769D01*
X005372Y033799D01*
X005372Y033831D01*
X005665Y034124D01*
X005665Y034518D01*
X005699Y034552D01*
X005730Y034521D01*
X005748Y034539D01*
X005748Y034556D01*
X005743Y034582D02*
X005730Y034582D01*
X005699Y034552D01*
X005665Y034556D02*
X005697Y034589D01*
X005778Y034589D01*
X005795Y034573D01*
X005795Y034088D01*
X005824Y034118D01*
X005824Y034554D01*
X005792Y034586D01*
X005795Y034088D02*
X005665Y033958D01*
X005301Y033280D02*
X005544Y033036D01*
X005544Y033021D01*
X006517Y033870D02*
X006517Y034670D01*
X006637Y034791D01*
X006744Y034791D01*
X008651Y035664D02*
X008678Y035691D01*
X008900Y035691D01*
X009333Y035258D01*
X009333Y034568D01*
X009296Y034531D01*
X009276Y034552D01*
X009276Y034556D01*
X009285Y034534D02*
X009225Y034594D01*
X009225Y035192D01*
X008753Y035664D01*
X008651Y035664D01*
X009061Y036085D02*
X009494Y036085D01*
X009694Y036085D01*
X010324Y035455D01*
X010324Y034570D01*
X010298Y034543D01*
X010247Y034543D01*
X010226Y034564D01*
X010229Y034570D02*
X010229Y035437D01*
X009604Y036061D01*
X009518Y036061D01*
X009494Y036085D01*
X009225Y034585D02*
X009279Y034531D01*
X009296Y034531D01*
X010229Y034570D02*
X010265Y034534D01*
X010277Y034534D01*
X010277Y034555D01*
X010276Y034556D01*
X011051Y033915D02*
X010906Y033770D01*
X011386Y033770D01*
X011458Y033697D01*
X011397Y033636D01*
X011397Y033582D01*
X011458Y033697D02*
X012122Y033034D01*
X012122Y032340D01*
X012257Y032205D01*
X012440Y032205D01*
X012481Y032246D01*
X012470Y032215D02*
X012585Y032329D01*
X012585Y033238D01*
X012077Y033746D01*
X011652Y033746D01*
X011483Y033915D01*
X011051Y033915D01*
X012357Y032246D02*
X012353Y032243D01*
X012353Y032215D01*
X012470Y032215D01*
X013553Y033498D02*
X013575Y033520D01*
X013583Y033520D01*
X013553Y033498D02*
X013929Y033498D01*
X013970Y033530D02*
X013620Y033530D01*
X013056Y034095D01*
X013026Y034095D01*
X013018Y034103D01*
X013018Y034033D01*
X013553Y033498D01*
X013813Y034512D02*
X013817Y034512D01*
X013841Y034536D01*
X013841Y035822D01*
X013739Y035923D01*
X013620Y036042D01*
X013739Y035923D02*
X013739Y035890D01*
X013766Y035863D01*
X013766Y035764D01*
X013800Y035764D01*
X013808Y035772D01*
X013808Y035813D01*
X013788Y035793D01*
X012724Y036857D01*
X012157Y036457D02*
X013020Y035593D01*
X013020Y035493D01*
X013039Y035512D01*
X013039Y035635D01*
X013766Y035764D02*
X013766Y034546D01*
X013793Y034519D01*
X013810Y034519D01*
X014760Y034563D02*
X014767Y034556D01*
X014803Y034556D01*
X014784Y034556D02*
X014767Y034556D01*
X014798Y034525D01*
X014811Y034525D01*
X014842Y034556D01*
X014842Y035890D01*
X014923Y035971D01*
X014842Y035890D02*
X014764Y035812D01*
X014764Y034560D01*
X014767Y034556D01*
X014784Y034556D02*
X014808Y034532D01*
X015569Y034651D02*
X015569Y033687D01*
X015967Y033290D01*
X016626Y033290D01*
X016861Y033525D01*
X015989Y033652D02*
X015940Y033652D01*
X015878Y033714D01*
X015770Y033606D01*
X015573Y033606D01*
X015500Y033533D01*
X015423Y033533D01*
X015677Y033787D01*
X015677Y034759D01*
X015569Y034651D01*
X015954Y033673D02*
X015969Y033673D01*
X015989Y033652D01*
X013802Y035682D02*
X013802Y035779D01*
X013788Y035793D01*
X013808Y035813D02*
X013803Y035818D01*
X013803Y035832D01*
X018365Y033325D02*
X018555Y033135D01*
X018555Y031948D01*
X018060Y031453D01*
X018060Y030984D01*
X018093Y030950D01*
X018372Y031229D01*
X018331Y031229D01*
X018295Y031194D01*
X018372Y031229D02*
X018495Y031229D01*
X019039Y031773D01*
X019039Y033146D01*
X019307Y033414D01*
X019411Y033414D01*
X019878Y033656D02*
X019878Y033688D01*
X020164Y033975D01*
X020495Y033975D01*
X020612Y033858D01*
X020599Y033858D01*
X020524Y033783D01*
X020331Y033783D01*
X020389Y033636D02*
X020366Y033613D01*
X020366Y033519D01*
X020612Y033858D02*
X020740Y033730D01*
X019374Y034561D02*
X019374Y035599D01*
X020248Y036474D01*
X020144Y036474D01*
X019288Y035618D01*
X019288Y034568D01*
X019329Y034527D01*
X019340Y034527D02*
X019374Y034561D01*
X020157Y036462D02*
X020269Y036462D01*
X020281Y036474D01*
X020248Y036474D01*
X023812Y035462D02*
X023812Y034567D01*
X023833Y034546D01*
X023868Y034546D01*
X023868Y034547D01*
X023858Y034556D01*
X023868Y034546D02*
X023872Y034546D01*
X023902Y034576D01*
X023906Y034576D01*
X023915Y034593D02*
X023915Y035441D01*
X024558Y036085D01*
X024435Y036085D01*
X023812Y035462D01*
X023915Y034593D02*
X023868Y034546D01*
X024247Y033736D02*
X024456Y033736D01*
X024716Y033996D01*
X024984Y033996D01*
X025249Y033732D01*
X025040Y033356D02*
X024878Y033356D01*
X024878Y033493D01*
X024852Y033519D01*
X024736Y033519D01*
X024627Y033356D02*
X024247Y033736D01*
X024627Y033356D02*
X024878Y033356D01*
X025040Y033356D02*
X025291Y033105D01*
X025692Y033105D01*
X025948Y033361D01*
X026046Y033361D01*
X028310Y034584D02*
X028310Y035210D01*
X028784Y035684D01*
X030537Y035684D01*
X030548Y035674D01*
X030648Y035574D01*
X030548Y035674D02*
X030529Y035674D01*
X030469Y035653D02*
X031227Y034895D01*
X031643Y035053D02*
X031643Y035148D01*
X030722Y036068D01*
X030721Y036069D01*
X030722Y036068D02*
X030806Y036068D01*
X031037Y036458D02*
X032022Y035474D01*
X032022Y035384D01*
X032035Y035398D01*
X032035Y035529D01*
X032438Y035669D02*
X032438Y035742D01*
X031325Y036855D01*
X031321Y036859D01*
X031325Y036855D02*
X031388Y036855D01*
X030469Y035653D02*
X028884Y035653D01*
X028452Y035221D01*
X028452Y034590D01*
X028399Y034537D01*
X028394Y034537D01*
X028394Y034548D01*
X028386Y034556D01*
X028373Y034521D02*
X028310Y034584D01*
X028373Y034521D02*
X028373Y034516D01*
X024869Y036085D02*
X024558Y036085D01*
X022135Y032279D02*
X021483Y032279D01*
X020900Y031695D01*
X020900Y030589D01*
X021357Y030410D02*
X020583Y029636D01*
X019370Y029636D01*
X019195Y029811D01*
X019251Y029867D01*
X019295Y029867D01*
X019886Y028617D02*
X020487Y028617D01*
X021143Y029273D01*
X022137Y029273D01*
X020586Y027723D01*
X020897Y027723D01*
X021623Y028449D01*
X021705Y028366D01*
X023511Y028366D01*
X024107Y028962D01*
X024267Y028962D01*
X024500Y028729D01*
X024755Y028729D01*
X024975Y028949D01*
X024975Y029529D01*
X024966Y029529D01*
X025061Y029433D01*
X025102Y029433D01*
X024975Y029529D02*
X024975Y029878D01*
X024802Y030051D01*
X024452Y030051D01*
X024245Y029844D01*
X024224Y029865D01*
X023709Y029865D01*
X023109Y029265D01*
X021357Y030410D02*
X021357Y031501D01*
X022135Y032279D01*
X019886Y028617D02*
X019558Y028289D01*
X020098Y027723D02*
X020586Y027723D01*
X021619Y027085D02*
X022109Y027085D01*
X021619Y027085D02*
X021204Y026670D01*
X021204Y025987D01*
X021046Y025830D01*
X021046Y025600D01*
X020935Y025489D01*
X020935Y024961D01*
X020987Y024909D01*
X021020Y024909D01*
X021015Y024914D01*
X021015Y025721D01*
X021078Y025721D01*
X021294Y025938D01*
X021294Y026608D01*
X021271Y026631D01*
X021271Y026085D01*
X020935Y025749D01*
X020935Y025711D01*
X020935Y025489D01*
X020935Y025711D02*
X021018Y025793D01*
X021083Y025793D01*
X021085Y025791D01*
X021085Y024958D01*
X021028Y024901D01*
X021008Y024901D01*
X021008Y024906D01*
X021003Y024912D01*
X021003Y024927D01*
X021000Y024930D01*
X019446Y025907D02*
X019209Y025670D01*
X018650Y025670D01*
X018686Y025706D01*
X019054Y025706D01*
X019308Y025960D01*
X019308Y026444D01*
X019325Y026461D01*
X019352Y026434D01*
X019366Y026449D01*
X019366Y026462D01*
X019373Y026487D02*
X019351Y026487D01*
X019325Y026461D01*
X019380Y026485D02*
X019446Y026419D01*
X019446Y025907D01*
X018434Y026485D02*
X018434Y026929D01*
X018133Y027230D01*
X017980Y027230D01*
X018293Y026916D01*
X018293Y026477D01*
X018353Y026417D01*
X018372Y026417D01*
X018366Y026423D01*
X018366Y026462D01*
X018371Y026423D02*
X018434Y026485D01*
X017980Y027230D02*
X017773Y027230D01*
X016933Y027723D02*
X016522Y027723D01*
X015367Y028879D01*
X015589Y029101D01*
X015589Y029253D01*
X015504Y029339D01*
X015504Y029414D01*
X015703Y029215D02*
X015842Y029354D01*
X016619Y029354D01*
X016641Y029375D01*
X016763Y029253D01*
X016763Y028764D01*
X016252Y029275D01*
X016252Y029310D01*
X015698Y029864D01*
X015139Y029864D01*
X015004Y028985D02*
X015022Y028967D01*
X015278Y028967D01*
X015367Y028879D01*
X013376Y027087D02*
X013376Y026846D01*
X013376Y027087D02*
X012689Y027774D01*
X012689Y027735D01*
X013023Y027401D01*
X013023Y027539D01*
X012624Y027938D01*
X012618Y027931D01*
X012618Y027914D01*
X012619Y027919D02*
X012624Y027925D01*
X012624Y027938D01*
X012611Y027179D02*
X012501Y027179D01*
X012500Y027178D01*
X012619Y027178D01*
X012704Y027093D01*
X012648Y027179D02*
X013014Y026814D01*
X013014Y026423D01*
X012992Y026650D02*
X012992Y026732D01*
X012585Y027138D01*
X012585Y027154D01*
X012611Y027179D01*
X012648Y027179D01*
X012500Y027178D02*
X012041Y027178D01*
X012041Y027129D01*
X012037Y027125D01*
X011989Y027125D01*
X012013Y027178D02*
X012041Y027178D01*
X012013Y027178D02*
X011838Y027003D01*
X011838Y026980D01*
X011618Y027914D02*
X011557Y027914D01*
X011540Y027931D01*
X011540Y027979D01*
X011442Y028078D01*
X011417Y028078D01*
X011207Y027868D01*
X011207Y027979D01*
X011681Y028697D02*
X011709Y028697D01*
X012084Y029073D01*
X012084Y029760D01*
X011810Y030034D01*
X011647Y030034D01*
X011272Y029659D01*
X010822Y029659D01*
X010128Y028965D01*
X010243Y028850D01*
X010243Y028829D01*
X010269Y028803D01*
X010292Y028803D01*
X010128Y028965D02*
X009938Y028965D01*
X009626Y028653D01*
X009707Y028572D01*
X010412Y028572D01*
X011072Y029232D01*
X011180Y029246D02*
X011563Y028863D01*
X011786Y028863D01*
X011786Y028803D01*
X011681Y028697D01*
X010238Y026651D02*
X009590Y026651D01*
X009495Y026746D01*
X009590Y026651D02*
X009612Y026629D01*
X010263Y026629D01*
X010343Y026549D01*
X010343Y026460D01*
X010337Y026462D02*
X010355Y026444D01*
X009885Y026444D01*
X009773Y026556D01*
X010270Y026556D01*
X010356Y026470D01*
X010356Y026533D01*
X010238Y026651D01*
X010346Y026540D02*
X010346Y026481D01*
X010327Y026462D01*
X010337Y026462D01*
X010358Y026436D02*
X010358Y026528D01*
X010346Y026540D01*
X010358Y026436D02*
X010316Y026394D01*
X009809Y026394D01*
X009741Y026463D01*
X009741Y026583D01*
X009678Y025909D02*
X009854Y025733D01*
X010622Y025733D01*
X010622Y025756D01*
X010629Y025763D01*
X010629Y025788D01*
X010622Y025733D02*
X010741Y025851D01*
X011237Y025332D02*
X011237Y025192D01*
X011635Y024793D01*
X011635Y024733D01*
X011632Y024737D01*
X011619Y024737D01*
X011611Y024729D01*
X011602Y024729D01*
X011606Y024703D02*
X011635Y024733D01*
X011606Y024703D02*
X011563Y024703D01*
X011173Y025093D01*
X010997Y025093D01*
X010980Y025109D01*
X012972Y023860D02*
X012972Y023582D01*
X013015Y023582D01*
X013032Y023565D01*
X013044Y023577D01*
X012972Y023582D02*
X013574Y022981D01*
X013761Y022981D01*
X013774Y022995D01*
X013945Y023430D02*
X013945Y023493D01*
X013381Y024057D01*
X013933Y024256D02*
X013933Y025470D01*
X013995Y025532D01*
X014000Y025505D02*
X014000Y025263D01*
X014069Y025194D01*
X014069Y024160D01*
X014030Y024160D01*
X013933Y024256D01*
X014000Y024222D02*
X014009Y024222D01*
X014075Y024288D01*
X014573Y023790D01*
X014661Y023790D01*
X015120Y024132D02*
X015306Y024132D01*
X015278Y024160D01*
X015181Y024160D01*
X015120Y024132D02*
X014908Y024345D01*
X014908Y025439D01*
X015175Y025706D01*
X015468Y025706D01*
X015484Y025690D01*
X015402Y025686D02*
X015356Y025686D01*
X015066Y025397D01*
X015066Y024372D01*
X015278Y024160D01*
X014075Y024288D02*
X014039Y024325D01*
X013945Y023493D02*
X013989Y023449D01*
X014059Y023449D01*
X014956Y021952D02*
X015049Y021952D01*
X015085Y021917D01*
X015085Y021645D01*
X014750Y021311D01*
X014730Y021311D01*
X014677Y021258D01*
X014669Y021267D01*
X014669Y021358D01*
X014970Y021659D01*
X014976Y021659D01*
X014985Y021650D01*
X014985Y021422D01*
X014871Y021308D01*
X014821Y021258D01*
X014724Y021258D01*
X014771Y021308D02*
X014704Y021375D01*
X014935Y021607D01*
X014935Y021885D01*
X014938Y021888D01*
X014938Y021935D01*
X014943Y021930D01*
X015000Y021930D01*
X015006Y021949D02*
X015032Y021949D01*
X015087Y021894D01*
X015087Y021525D01*
X014985Y021422D01*
X014871Y021308D02*
X014771Y021308D01*
X014938Y021935D02*
X014956Y021952D01*
X015588Y022559D02*
X015623Y022594D01*
X015826Y022594D01*
X016054Y022366D01*
X016054Y021940D01*
X016016Y021903D01*
X015946Y021903D01*
X015905Y021943D01*
X015905Y021967D02*
X015905Y022301D01*
X015647Y022559D01*
X015588Y022559D01*
X015905Y021967D02*
X015949Y021923D01*
X015995Y021923D01*
X016001Y021923D01*
X016001Y021929D01*
X016000Y021930D01*
X015995Y021923D02*
X016007Y021911D01*
X016950Y021938D02*
X016950Y022453D01*
X016417Y022986D01*
X016426Y022986D01*
X016456Y023016D01*
X016520Y023016D01*
X017074Y022462D01*
X017074Y021935D01*
X017044Y021905D01*
X017003Y021905D01*
X017003Y021923D01*
X017000Y021926D01*
X017000Y021930D01*
X017003Y021908D02*
X016980Y021908D01*
X016950Y021938D01*
X016956Y021920D02*
X016971Y021905D01*
X017003Y021905D01*
X017952Y021943D02*
X017952Y022658D01*
X017961Y022649D01*
X018017Y022649D01*
X018040Y022626D01*
X018040Y021926D01*
X018031Y021917D01*
X018019Y021930D01*
X018000Y021930D01*
X017993Y021926D02*
X017993Y021920D01*
X017984Y021911D01*
X017952Y021943D01*
X018022Y021908D02*
X018031Y021917D01*
X018011Y020332D02*
X017999Y020332D01*
X017987Y020321D01*
X017987Y020272D01*
X018019Y020272D01*
X018019Y020319D01*
X018020Y020320D01*
X017987Y020272D02*
X017987Y020060D01*
X018324Y019723D01*
X018324Y019853D01*
X018036Y020140D01*
X018036Y020163D01*
X018269Y019930D01*
X018036Y020163D02*
X018036Y020166D01*
X018335Y018890D02*
X018171Y018725D01*
X018171Y018684D01*
X018315Y018540D01*
X018315Y018274D01*
X018922Y017667D01*
X018922Y017143D01*
X018960Y017106D01*
X019038Y017106D01*
X019073Y017140D01*
X019073Y017629D01*
X018960Y017742D01*
X018920Y017742D01*
X018920Y017160D01*
X018963Y017118D01*
X019006Y017118D01*
X018082Y017138D02*
X018082Y017618D01*
X017741Y017959D01*
X016893Y017959D01*
X016893Y017963D01*
X016391Y018465D01*
X016391Y018387D01*
X016896Y017881D01*
X017674Y017881D01*
X017926Y017629D01*
X017926Y017290D01*
X018001Y017216D01*
X018001Y017106D01*
X017978Y017106D01*
X017949Y017136D01*
X017949Y017669D01*
X017920Y017699D01*
X017954Y017699D01*
X018050Y017603D01*
X018050Y017599D01*
X018034Y017584D01*
X018048Y017584D01*
X018048Y017613D01*
X017713Y017949D01*
X017408Y017949D01*
X018050Y017599D02*
X018050Y017141D01*
X018044Y017135D01*
X018000Y017135D01*
X018012Y017103D02*
X018044Y017135D01*
X018082Y017138D02*
X018037Y017093D01*
X018001Y017093D01*
X017978Y017090D02*
X018034Y017090D01*
X017978Y017090D02*
X017926Y017142D01*
X017926Y017290D01*
X018001Y017211D02*
X018048Y017258D01*
X018048Y017584D01*
X016410Y018582D02*
X016397Y018570D01*
X016397Y018573D01*
X016265Y018705D01*
X016265Y018727D01*
X016391Y018852D01*
X016410Y018697D02*
X016410Y018582D01*
X012684Y019854D02*
X012684Y019933D01*
X012520Y020098D01*
X012571Y020080D02*
X012108Y020080D01*
X012126Y020098D01*
X012126Y020121D01*
X012124Y020123D01*
X012091Y020123D01*
X012080Y020126D02*
X012080Y020162D01*
X012108Y020190D01*
X012566Y020190D01*
X012666Y020291D01*
X012666Y019913D01*
X012674Y019905D01*
X012674Y019977D01*
X012571Y020080D01*
X012581Y020163D02*
X012524Y020163D01*
X012500Y020188D01*
X012525Y020188D01*
X012666Y020329D01*
X012666Y019872D01*
X012684Y019854D01*
X012581Y020163D02*
X012626Y020208D01*
X012626Y020586D01*
X012732Y020692D01*
X012770Y020692D01*
X012500Y020188D02*
X012098Y020188D01*
X012075Y020164D01*
X012075Y020113D01*
X012108Y020080D01*
X014069Y025194D02*
X014069Y025559D01*
X014115Y025605D01*
X022014Y021952D02*
X022063Y021903D01*
X022070Y021903D01*
X022074Y021899D01*
X022074Y021254D01*
X022628Y020700D01*
X022628Y020383D01*
X022595Y020416D01*
X022592Y020416D01*
X022604Y020427D01*
X022604Y020540D01*
X022744Y020399D01*
X022772Y020399D01*
X022583Y020211D01*
X022582Y020212D01*
X022582Y020212D01*
X022582Y019208D01*
X023022Y018768D01*
X023022Y018748D01*
X022978Y018704D01*
X022959Y018704D01*
X022553Y019110D01*
X022553Y020705D01*
X022538Y020720D01*
X022573Y020649D02*
X022573Y020599D01*
X022806Y020366D01*
X022728Y020366D01*
X022582Y020221D01*
X022582Y020212D01*
X022564Y020194D01*
X022583Y020211D02*
X022583Y020151D01*
X022544Y019271D02*
X022544Y019118D01*
X022931Y018731D01*
X022974Y018731D01*
X022974Y018747D01*
X022976Y018745D01*
X022980Y018745D01*
X022974Y018731D02*
X022990Y018731D01*
X024575Y019314D02*
X024575Y020488D01*
X024070Y020993D01*
X023374Y020993D01*
X022946Y021421D01*
X022946Y021939D01*
X022974Y021967D01*
X023056Y021967D01*
X023099Y021923D01*
X023099Y021309D01*
X023135Y021273D01*
X023091Y021406D02*
X023430Y021067D01*
X024091Y021067D01*
X024753Y020405D01*
X025561Y020405D01*
X025589Y020377D01*
X025589Y020336D01*
X025559Y020305D01*
X024746Y020305D01*
X024623Y020183D01*
X024623Y019369D01*
X025224Y018768D01*
X025224Y018745D01*
X025191Y018712D01*
X025176Y018712D01*
X024597Y019291D01*
X024596Y019292D01*
X024596Y019334D01*
X024575Y019314D02*
X024596Y019292D01*
X023091Y021406D02*
X023091Y021880D01*
X023010Y021962D01*
X023524Y023683D02*
X023838Y023683D01*
X023842Y023679D01*
X023561Y023679D01*
X023557Y023683D01*
X023557Y023698D01*
X023550Y023706D01*
X023549Y023706D01*
X023557Y023683D02*
X023497Y023743D01*
X023524Y023683D02*
X022944Y024262D01*
X022944Y024917D01*
X022982Y024955D01*
X023020Y024955D01*
X023073Y024902D01*
X023073Y024247D01*
X023596Y023724D01*
X023743Y023724D01*
X024300Y024001D02*
X023932Y024368D01*
X023932Y024906D01*
X023985Y024959D01*
X024008Y024951D02*
X024030Y024930D01*
X024072Y024887D01*
X024072Y024418D01*
X024470Y024020D01*
X024618Y024020D01*
X024599Y024001D01*
X024300Y024001D01*
X024936Y024471D02*
X024936Y024936D01*
X024931Y024930D02*
X024928Y024932D01*
X024928Y024482D01*
X025091Y024319D01*
X025398Y024319D01*
X025394Y024315D01*
X025091Y024315D01*
X024936Y024471D01*
X025061Y024558D02*
X025273Y024345D01*
X025341Y024345D01*
X025061Y024558D02*
X025061Y024932D01*
X025038Y024955D01*
X024951Y024955D01*
X024928Y024932D01*
X024931Y024930D02*
X025000Y024930D01*
X025932Y024951D02*
X025932Y025629D01*
X026402Y026099D01*
X026485Y026061D02*
X026485Y026568D01*
X025716Y027337D01*
X025716Y027917D01*
X025675Y027958D01*
X025583Y027958D01*
X025561Y027935D01*
X025561Y027394D01*
X026402Y026553D01*
X026402Y026519D01*
X026459Y026576D01*
X026481Y026576D01*
X025686Y027371D01*
X025652Y027371D01*
X026485Y026061D02*
X026065Y025641D01*
X026065Y024944D01*
X026044Y024923D01*
X026015Y024951D01*
X026000Y024936D01*
X026000Y024930D01*
X026000Y024917D02*
X026019Y024898D01*
X026015Y024895D01*
X026011Y024895D01*
X026000Y024883D01*
X025932Y024951D01*
X025996Y024917D02*
X026000Y024917D01*
X026019Y024898D02*
X026044Y024923D01*
X026985Y024955D02*
X027639Y024955D01*
X027833Y024762D01*
X027307Y024762D01*
X027174Y024895D01*
X027170Y024898D01*
X027132Y024898D01*
X027100Y024930D01*
X027000Y024930D01*
X027174Y024895D02*
X027617Y024895D01*
X027678Y024834D01*
X027295Y024834D01*
X027280Y024849D01*
X024030Y024930D02*
X024000Y024930D01*
X028800Y029019D02*
X028836Y028984D01*
X029071Y029219D01*
X029071Y029251D01*
X029161Y029342D01*
X029161Y029414D01*
X028836Y028984D02*
X029069Y028751D01*
X029069Y028701D01*
X030421Y026658D02*
X030421Y026601D01*
X030561Y026461D01*
X030588Y026461D01*
X030632Y026417D01*
X030632Y026390D01*
X030762Y026519D01*
X030762Y026488D01*
X030527Y026254D01*
X030480Y026237D02*
X030632Y026390D01*
X030762Y026519D02*
X030762Y026536D01*
X032679Y026254D02*
X032727Y026301D01*
X032727Y026957D01*
X032764Y026920D01*
X032785Y026920D01*
X033250Y026930D02*
X033250Y026291D01*
X033289Y026330D01*
X033306Y026330D01*
X033250Y026291D02*
X033169Y026210D01*
X033740Y026213D02*
X033777Y026250D01*
X033777Y026900D01*
X033818Y026859D01*
X033828Y026859D01*
X034315Y026855D02*
X034315Y026233D01*
X034277Y026196D01*
X034372Y026796D02*
X034372Y026798D01*
X034315Y026855D01*
X037523Y029142D02*
X036399Y030266D01*
X036525Y030392D01*
X036525Y030523D01*
X036520Y030529D01*
X036480Y030529D01*
X036639Y030536D02*
X036709Y030606D01*
X036709Y033892D01*
X036437Y034165D01*
X036511Y034165D01*
X036614Y034062D01*
X036653Y034062D01*
X036670Y034080D01*
X036670Y034108D01*
X036568Y034210D01*
X036547Y034210D01*
X036569Y034231D01*
X036653Y034231D01*
X036716Y034294D01*
X036821Y034294D01*
X036706Y034178D01*
X036706Y033522D01*
X036558Y033374D01*
X036443Y033988D02*
X036443Y034302D01*
X036437Y034309D01*
X036437Y034165D01*
X036383Y034154D02*
X036383Y034254D01*
X036454Y034325D01*
X036454Y033999D01*
X036443Y033988D01*
X036383Y034154D02*
X036519Y034289D01*
X037392Y034289D01*
X037390Y034291D01*
X037390Y034330D01*
X037416Y034314D02*
X037392Y034289D01*
X037416Y034314D02*
X037416Y034347D01*
X037376Y034386D01*
X036237Y034386D01*
X036065Y034559D01*
X036065Y034429D01*
X036139Y034503D01*
X036286Y034355D01*
X036139Y034503D02*
X036078Y034564D01*
X035092Y034564D01*
X035006Y034477D01*
X035006Y034240D01*
X035136Y034110D01*
X035847Y034110D01*
X036024Y033932D01*
X036187Y033932D01*
X036044Y034408D02*
X036065Y034429D01*
X036065Y034559D02*
X035900Y034559D01*
X035807Y034466D01*
X033852Y035405D02*
X033815Y035368D01*
X033815Y034256D01*
X033671Y034112D01*
X033476Y034112D01*
X033333Y034256D01*
X033558Y034256D01*
X033610Y034308D01*
X033610Y034100D01*
X033667Y034100D01*
X033610Y034100D02*
X033488Y034100D01*
X033330Y034258D01*
X033330Y035520D01*
X034069Y036258D01*
X038796Y036258D01*
X039563Y035491D01*
X039563Y030306D01*
X038402Y029144D01*
X038122Y029144D01*
X037835Y029431D01*
X037734Y029431D01*
X037699Y029667D02*
X036446Y030921D01*
X036421Y030810D02*
X036256Y030645D01*
X036256Y030409D01*
X036399Y030266D01*
X037699Y029667D02*
X038791Y029667D01*
X038265Y029142D01*
X038208Y029142D01*
X038207Y029141D01*
X038317Y029141D01*
X039555Y030379D01*
X039555Y035460D01*
X038773Y036242D01*
X034127Y036242D01*
X033333Y035447D01*
X033333Y034256D01*
X036651Y032282D02*
X036666Y032297D01*
X037390Y032297D01*
X037390Y032338D01*
X037414Y032346D02*
X037414Y032321D01*
X037390Y032297D01*
X037414Y032346D02*
X037373Y032387D01*
X036844Y032387D01*
X036693Y032539D01*
X036693Y032541D01*
X036839Y032395D01*
X036839Y032292D01*
X036567Y032019D01*
X036567Y031990D01*
X037519Y029314D02*
X037692Y029141D01*
X038207Y029141D01*
X038208Y029142D02*
X037523Y029142D01*
X022272Y011224D02*
X022065Y011224D01*
X021480Y010640D01*
X021480Y010573D01*
X021519Y010573D01*
X021521Y010571D02*
X022147Y011196D01*
X022300Y011196D01*
X022272Y011224D01*
X021521Y010571D02*
X021503Y010571D01*
X021496Y010578D01*
X021496Y010591D01*
X021500Y010595D01*
X020567Y010619D02*
X020567Y011231D01*
X020229Y011569D01*
X020100Y011569D01*
X020456Y011214D01*
X020456Y010619D01*
X020498Y010576D01*
X020498Y010593D01*
X020500Y010595D01*
X020498Y010576D02*
X020524Y010576D01*
X020534Y010586D01*
X020567Y010619D01*
X020534Y010586D02*
X020518Y010586D01*
X020100Y011569D02*
X019834Y011569D01*
X017641Y009452D02*
X017641Y009445D01*
X017547Y009445D01*
X017458Y009534D01*
X017455Y009624D02*
X017469Y009624D01*
X017641Y009452D01*
X017455Y009624D02*
X017280Y009449D01*
X015817Y010577D02*
X015807Y010577D01*
X015807Y010588D01*
X015815Y010595D01*
X015807Y010577D02*
X015788Y010597D01*
X015788Y011233D01*
X015984Y011429D01*
X015984Y011356D01*
X015866Y011238D01*
X015866Y010747D01*
X015887Y010725D01*
X015887Y011221D01*
X015904Y011238D01*
X013718Y012888D02*
X013713Y012884D01*
X013707Y012884D01*
X013707Y012879D01*
X013718Y012888D02*
X013150Y013457D01*
X013116Y013457D01*
X013150Y013457D02*
X013326Y013457D01*
X013346Y013477D01*
X013346Y013218D01*
X013400Y013164D01*
X013304Y011964D02*
X013405Y011863D01*
X013405Y011773D01*
X013186Y011553D01*
X013186Y011604D01*
X013098Y011692D01*
X013085Y011553D02*
X013186Y011553D01*
X013193Y009682D02*
X013154Y009643D01*
X012944Y009643D01*
X012928Y009626D01*
X012928Y009538D01*
X012952Y009538D01*
X013043Y009447D01*
X013043Y009408D01*
X013098Y009352D01*
X012928Y009538D02*
X012891Y009538D01*
X012716Y009363D01*
X012716Y009240D01*
X012850Y009106D01*
X012953Y009106D01*
X012819Y009240D01*
X012819Y009322D01*
X012780Y009361D01*
X012780Y009392D01*
X012671Y009283D01*
X012735Y009283D01*
X012907Y009110D01*
X013357Y009110D01*
X013495Y009248D01*
X013495Y009456D01*
X013269Y009682D01*
X013193Y009682D01*
X012926Y009538D02*
X012780Y009392D01*
X012953Y009106D02*
X013507Y009106D01*
X013711Y009310D01*
X009859Y009345D02*
X009847Y009345D01*
X009708Y009484D01*
X009654Y009484D01*
X009498Y009329D01*
X009498Y009340D01*
X009677Y009340D01*
X009690Y009516D02*
X009854Y009352D01*
X009854Y009350D01*
X009859Y009345D01*
X009690Y009516D02*
X009660Y009516D01*
X009463Y009318D01*
X009404Y009318D01*
X009422Y009329D02*
X009498Y009329D01*
D26*
X009677Y009340D02*
X009677Y010851D01*
X013098Y011692D02*
X013223Y011816D01*
X014815Y011816D01*
X013111Y011816D02*
X013098Y011804D01*
X016815Y011816D02*
X016815Y010595D01*
X017458Y009534D02*
X017230Y009306D01*
X017458Y009534D02*
X017458Y012236D01*
X016815Y012879D01*
X006051Y011225D02*
X006051Y010576D01*
X006051Y010005D01*
X005042Y009306D02*
X004577Y009306D01*
X004306Y009576D01*
X004306Y010481D01*
X005051Y011225D01*
X025630Y027389D02*
X026404Y026616D01*
X026404Y026059D01*
X026000Y025656D01*
X026000Y024930D01*
X025630Y027389D02*
X025630Y027914D01*
X029185Y018903D02*
X029185Y018162D01*
X029185Y017406D01*
X029185Y018162D02*
X029667Y018162D01*
X030185Y017643D01*
X030185Y017068D01*
X030595Y016658D01*
X031908Y016658D01*
X031926Y016641D01*
X031926Y016106D02*
X031926Y015072D01*
X031268Y014414D01*
X031185Y015910D02*
X031900Y015910D01*
X031910Y015921D01*
X035713Y011718D02*
X037056Y011718D01*
X037172Y011602D01*
X036658Y010477D02*
X035713Y010477D01*
X029869Y009306D02*
X029783Y009391D01*
X027977Y009329D02*
X027954Y009306D01*
D27*
X031910Y015921D02*
X031926Y015936D01*
X031926Y016106D01*
X031926Y016641D01*
X031926Y019260D01*
X030330Y020855D01*
X030185Y020855D01*
X014189Y009306D02*
X009643Y009306D01*
X005485Y009306D01*
X005269Y009306D01*
X005094Y009306D01*
D28*
X022000Y023966D02*
X022000Y024930D01*
X022000Y026269D01*
X022075Y026343D01*
X022000Y023966D02*
X022694Y023273D01*
X029768Y023273D01*
X030185Y022855D01*
X034977Y023312D02*
X034977Y024039D01*
X035421Y024483D01*
X035421Y025182D01*
X036996Y025182D02*
X036996Y023331D01*
X036977Y023312D01*
D29*
X036315Y015332D02*
X037942Y015332D01*
X037980Y015293D01*
X037980Y014369D02*
X037943Y014332D01*
X036315Y014332D01*
D30*
X021000Y017135D02*
X021000Y017694D01*
X020303Y018391D01*
X020697Y020556D02*
X020000Y021253D01*
X020000Y021930D01*
X019000Y014135D02*
X019000Y012757D01*
X018886Y012643D01*
D31*
X036658Y010477D02*
X036668Y010467D01*
D32*
X037594Y029414D02*
X038217Y029414D01*
X039331Y030529D01*
X039331Y035349D01*
X038665Y036015D01*
X034245Y036015D01*
X033571Y035341D01*
X033571Y034336D01*
X035224Y034336D02*
X035945Y034336D01*
X036014Y034267D02*
X036480Y033801D01*
X036480Y032495D01*
X036480Y030529D01*
X037594Y029414D01*
M02*
