G75*
%MOIN*%
%OFA0B0*%
%FSLAX24Y24*%
%IPPOS*%
%LPD*%
%AMOC8*
5,1,8,0,0,1.08239X$1,22.5*
%
%ADD10C,0.0000*%
D10*
X002390Y008440D02*
X038610Y008440D01*
X038610Y008444D02*
X038687Y008446D01*
X038764Y008452D01*
X038841Y008461D01*
X038917Y008474D01*
X038993Y008491D01*
X039067Y008512D01*
X039141Y008536D01*
X039213Y008564D01*
X039283Y008595D01*
X039352Y008630D01*
X039420Y008668D01*
X039485Y008709D01*
X039548Y008754D01*
X039609Y008802D01*
X039668Y008852D01*
X039724Y008905D01*
X039777Y008961D01*
X039827Y009020D01*
X039875Y009081D01*
X039920Y009144D01*
X039961Y009209D01*
X039999Y009277D01*
X040034Y009346D01*
X040065Y009416D01*
X040093Y009488D01*
X040117Y009562D01*
X040138Y009636D01*
X040155Y009712D01*
X040168Y009788D01*
X040177Y009865D01*
X040183Y009942D01*
X040185Y010019D01*
X040185Y038365D01*
X040183Y038442D01*
X040177Y038519D01*
X040168Y038596D01*
X040155Y038672D01*
X040138Y038748D01*
X040117Y038822D01*
X040093Y038896D01*
X040065Y038968D01*
X040034Y039038D01*
X039999Y039107D01*
X039961Y039175D01*
X039920Y039240D01*
X039875Y039303D01*
X039827Y039364D01*
X039777Y039423D01*
X039724Y039479D01*
X039668Y039532D01*
X039609Y039582D01*
X039548Y039630D01*
X039485Y039675D01*
X039420Y039716D01*
X039352Y039754D01*
X039283Y039789D01*
X039213Y039820D01*
X039141Y039848D01*
X039067Y039872D01*
X038993Y039893D01*
X038917Y039910D01*
X038841Y039923D01*
X038764Y039932D01*
X038687Y039938D01*
X038610Y039940D01*
X002390Y039940D01*
X002313Y039938D01*
X002236Y039932D01*
X002159Y039923D01*
X002083Y039910D01*
X002007Y039893D01*
X001933Y039872D01*
X001859Y039848D01*
X001787Y039820D01*
X001717Y039789D01*
X001648Y039754D01*
X001580Y039716D01*
X001515Y039675D01*
X001452Y039630D01*
X001391Y039582D01*
X001332Y039532D01*
X001276Y039479D01*
X001223Y039423D01*
X001173Y039364D01*
X001125Y039303D01*
X001080Y039240D01*
X001039Y039175D01*
X001001Y039107D01*
X000966Y039038D01*
X000935Y038968D01*
X000907Y038896D01*
X000883Y038822D01*
X000862Y038748D01*
X000845Y038672D01*
X000832Y038596D01*
X000823Y038519D01*
X000817Y038442D01*
X000815Y038365D01*
X000815Y010019D01*
X000817Y009942D01*
X000823Y009865D01*
X000832Y009788D01*
X000845Y009712D01*
X000862Y009636D01*
X000883Y009562D01*
X000907Y009488D01*
X000935Y009416D01*
X000966Y009346D01*
X001001Y009277D01*
X001039Y009209D01*
X001080Y009144D01*
X001125Y009081D01*
X001173Y009020D01*
X001223Y008961D01*
X001276Y008905D01*
X001332Y008852D01*
X001391Y008802D01*
X001452Y008754D01*
X001515Y008709D01*
X001580Y008668D01*
X001648Y008630D01*
X001717Y008595D01*
X001787Y008564D01*
X001859Y008536D01*
X001933Y008512D01*
X002007Y008491D01*
X002083Y008474D01*
X002159Y008461D01*
X002236Y008452D01*
X002313Y008446D01*
X002390Y008444D01*
X001937Y010192D02*
X001939Y010242D01*
X001945Y010292D01*
X001955Y010341D01*
X001969Y010389D01*
X001986Y010436D01*
X002007Y010481D01*
X002032Y010525D01*
X002060Y010566D01*
X002092Y010605D01*
X002126Y010642D01*
X002163Y010676D01*
X002203Y010706D01*
X002245Y010733D01*
X002289Y010757D01*
X002335Y010778D01*
X002382Y010794D01*
X002430Y010807D01*
X002480Y010816D01*
X002529Y010821D01*
X002580Y010822D01*
X002630Y010819D01*
X002679Y010812D01*
X002728Y010801D01*
X002776Y010786D01*
X002822Y010768D01*
X002867Y010746D01*
X002910Y010720D01*
X002951Y010691D01*
X002990Y010659D01*
X003026Y010624D01*
X003058Y010586D01*
X003088Y010546D01*
X003115Y010503D01*
X003138Y010459D01*
X003157Y010413D01*
X003173Y010365D01*
X003185Y010316D01*
X003193Y010267D01*
X003197Y010217D01*
X003197Y010167D01*
X003193Y010117D01*
X003185Y010068D01*
X003173Y010019D01*
X003157Y009971D01*
X003138Y009925D01*
X003115Y009881D01*
X003088Y009838D01*
X003058Y009798D01*
X003026Y009760D01*
X002990Y009725D01*
X002951Y009693D01*
X002910Y009664D01*
X002867Y009638D01*
X002822Y009616D01*
X002776Y009598D01*
X002728Y009583D01*
X002679Y009572D01*
X002630Y009565D01*
X002580Y009562D01*
X002529Y009563D01*
X002480Y009568D01*
X002430Y009577D01*
X002382Y009590D01*
X002335Y009606D01*
X002289Y009627D01*
X002245Y009651D01*
X002203Y009678D01*
X002163Y009708D01*
X002126Y009742D01*
X002092Y009779D01*
X002060Y009818D01*
X002032Y009859D01*
X002007Y009903D01*
X001986Y009948D01*
X001969Y009995D01*
X001955Y010043D01*
X001945Y010092D01*
X001939Y010142D01*
X001937Y010192D01*
X001937Y038188D02*
X001939Y038238D01*
X001945Y038288D01*
X001955Y038337D01*
X001969Y038385D01*
X001986Y038432D01*
X002007Y038477D01*
X002032Y038521D01*
X002060Y038562D01*
X002092Y038601D01*
X002126Y038638D01*
X002163Y038672D01*
X002203Y038702D01*
X002245Y038729D01*
X002289Y038753D01*
X002335Y038774D01*
X002382Y038790D01*
X002430Y038803D01*
X002480Y038812D01*
X002529Y038817D01*
X002580Y038818D01*
X002630Y038815D01*
X002679Y038808D01*
X002728Y038797D01*
X002776Y038782D01*
X002822Y038764D01*
X002867Y038742D01*
X002910Y038716D01*
X002951Y038687D01*
X002990Y038655D01*
X003026Y038620D01*
X003058Y038582D01*
X003088Y038542D01*
X003115Y038499D01*
X003138Y038455D01*
X003157Y038409D01*
X003173Y038361D01*
X003185Y038312D01*
X003193Y038263D01*
X003197Y038213D01*
X003197Y038163D01*
X003193Y038113D01*
X003185Y038064D01*
X003173Y038015D01*
X003157Y037967D01*
X003138Y037921D01*
X003115Y037877D01*
X003088Y037834D01*
X003058Y037794D01*
X003026Y037756D01*
X002990Y037721D01*
X002951Y037689D01*
X002910Y037660D01*
X002867Y037634D01*
X002822Y037612D01*
X002776Y037594D01*
X002728Y037579D01*
X002679Y037568D01*
X002630Y037561D01*
X002580Y037558D01*
X002529Y037559D01*
X002480Y037564D01*
X002430Y037573D01*
X002382Y037586D01*
X002335Y037602D01*
X002289Y037623D01*
X002245Y037647D01*
X002203Y037674D01*
X002163Y037704D01*
X002126Y037738D01*
X002092Y037775D01*
X002060Y037814D01*
X002032Y037855D01*
X002007Y037899D01*
X001986Y037944D01*
X001969Y037991D01*
X001955Y038039D01*
X001945Y038088D01*
X001939Y038138D01*
X001937Y038188D01*
X033059Y029414D02*
X033061Y029464D01*
X033067Y029514D01*
X033077Y029563D01*
X033091Y029611D01*
X033108Y029658D01*
X033129Y029703D01*
X033154Y029747D01*
X033182Y029788D01*
X033214Y029827D01*
X033248Y029864D01*
X033285Y029898D01*
X033325Y029928D01*
X033367Y029955D01*
X033411Y029979D01*
X033457Y030000D01*
X033504Y030016D01*
X033552Y030029D01*
X033602Y030038D01*
X033651Y030043D01*
X033702Y030044D01*
X033752Y030041D01*
X033801Y030034D01*
X033850Y030023D01*
X033898Y030008D01*
X033944Y029990D01*
X033989Y029968D01*
X034032Y029942D01*
X034073Y029913D01*
X034112Y029881D01*
X034148Y029846D01*
X034180Y029808D01*
X034210Y029768D01*
X034237Y029725D01*
X034260Y029681D01*
X034279Y029635D01*
X034295Y029587D01*
X034307Y029538D01*
X034315Y029489D01*
X034319Y029439D01*
X034319Y029389D01*
X034315Y029339D01*
X034307Y029290D01*
X034295Y029241D01*
X034279Y029193D01*
X034260Y029147D01*
X034237Y029103D01*
X034210Y029060D01*
X034180Y029020D01*
X034148Y028982D01*
X034112Y028947D01*
X034073Y028915D01*
X034032Y028886D01*
X033989Y028860D01*
X033944Y028838D01*
X033898Y028820D01*
X033850Y028805D01*
X033801Y028794D01*
X033752Y028787D01*
X033702Y028784D01*
X033651Y028785D01*
X033602Y028790D01*
X033552Y028799D01*
X033504Y028812D01*
X033457Y028828D01*
X033411Y028849D01*
X033367Y028873D01*
X033325Y028900D01*
X033285Y028930D01*
X033248Y028964D01*
X033214Y029001D01*
X033182Y029040D01*
X033154Y029081D01*
X033129Y029125D01*
X033108Y029170D01*
X033091Y029217D01*
X033077Y029265D01*
X033067Y029314D01*
X033061Y029364D01*
X033059Y029414D01*
X037803Y038188D02*
X037805Y038238D01*
X037811Y038288D01*
X037821Y038337D01*
X037835Y038385D01*
X037852Y038432D01*
X037873Y038477D01*
X037898Y038521D01*
X037926Y038562D01*
X037958Y038601D01*
X037992Y038638D01*
X038029Y038672D01*
X038069Y038702D01*
X038111Y038729D01*
X038155Y038753D01*
X038201Y038774D01*
X038248Y038790D01*
X038296Y038803D01*
X038346Y038812D01*
X038395Y038817D01*
X038446Y038818D01*
X038496Y038815D01*
X038545Y038808D01*
X038594Y038797D01*
X038642Y038782D01*
X038688Y038764D01*
X038733Y038742D01*
X038776Y038716D01*
X038817Y038687D01*
X038856Y038655D01*
X038892Y038620D01*
X038924Y038582D01*
X038954Y038542D01*
X038981Y038499D01*
X039004Y038455D01*
X039023Y038409D01*
X039039Y038361D01*
X039051Y038312D01*
X039059Y038263D01*
X039063Y038213D01*
X039063Y038163D01*
X039059Y038113D01*
X039051Y038064D01*
X039039Y038015D01*
X039023Y037967D01*
X039004Y037921D01*
X038981Y037877D01*
X038954Y037834D01*
X038924Y037794D01*
X038892Y037756D01*
X038856Y037721D01*
X038817Y037689D01*
X038776Y037660D01*
X038733Y037634D01*
X038688Y037612D01*
X038642Y037594D01*
X038594Y037579D01*
X038545Y037568D01*
X038496Y037561D01*
X038446Y037558D01*
X038395Y037559D01*
X038346Y037564D01*
X038296Y037573D01*
X038248Y037586D01*
X038201Y037602D01*
X038155Y037623D01*
X038111Y037647D01*
X038069Y037674D01*
X038029Y037704D01*
X037992Y037738D01*
X037958Y037775D01*
X037926Y037814D01*
X037898Y037855D01*
X037873Y037899D01*
X037852Y037944D01*
X037835Y037991D01*
X037821Y038039D01*
X037811Y038088D01*
X037805Y038138D01*
X037803Y038188D01*
X037803Y010192D02*
X037805Y010242D01*
X037811Y010292D01*
X037821Y010341D01*
X037835Y010389D01*
X037852Y010436D01*
X037873Y010481D01*
X037898Y010525D01*
X037926Y010566D01*
X037958Y010605D01*
X037992Y010642D01*
X038029Y010676D01*
X038069Y010706D01*
X038111Y010733D01*
X038155Y010757D01*
X038201Y010778D01*
X038248Y010794D01*
X038296Y010807D01*
X038346Y010816D01*
X038395Y010821D01*
X038446Y010822D01*
X038496Y010819D01*
X038545Y010812D01*
X038594Y010801D01*
X038642Y010786D01*
X038688Y010768D01*
X038733Y010746D01*
X038776Y010720D01*
X038817Y010691D01*
X038856Y010659D01*
X038892Y010624D01*
X038924Y010586D01*
X038954Y010546D01*
X038981Y010503D01*
X039004Y010459D01*
X039023Y010413D01*
X039039Y010365D01*
X039051Y010316D01*
X039059Y010267D01*
X039063Y010217D01*
X039063Y010167D01*
X039059Y010117D01*
X039051Y010068D01*
X039039Y010019D01*
X039023Y009971D01*
X039004Y009925D01*
X038981Y009881D01*
X038954Y009838D01*
X038924Y009798D01*
X038892Y009760D01*
X038856Y009725D01*
X038817Y009693D01*
X038776Y009664D01*
X038733Y009638D01*
X038688Y009616D01*
X038642Y009598D01*
X038594Y009583D01*
X038545Y009572D01*
X038496Y009565D01*
X038446Y009562D01*
X038395Y009563D01*
X038346Y009568D01*
X038296Y009577D01*
X038248Y009590D01*
X038201Y009606D01*
X038155Y009627D01*
X038111Y009651D01*
X038069Y009678D01*
X038029Y009708D01*
X037992Y009742D01*
X037958Y009779D01*
X037926Y009818D01*
X037898Y009859D01*
X037873Y009903D01*
X037852Y009948D01*
X037835Y009995D01*
X037821Y010043D01*
X037811Y010092D01*
X037805Y010142D01*
X037803Y010192D01*
M02*
