%
M48
M72
T01C0.0276
T02C0.0354
T03C0.0433
T04C0.0492
T05C0.0571
T06C0.0689
T07C0.1260
%
T01
X24630Y27914
X25630Y27914
X27630Y30914
X26630Y30914
X26630Y27914
X27630Y27914
X25630Y30914
X24630Y30914
X22587Y27800
X22587Y29847
X22075Y31088
X23098Y31088
X29323Y10851
X30323Y10851
X31323Y10851
X22980Y18745
X24004Y18745
X25185Y18745
X26209Y18745
X20697Y20556
X21720Y20556
X22075Y26343
X23098Y26343
X24634Y26343
X25657Y26343
X5051Y10005
X6051Y10005
X7051Y10005
X12091Y20123
X11114Y20123
X2217Y21501
X4217Y21501
X19567Y19481
X21567Y19481
X10520Y18312
X12685Y18312
X6193Y17092
X8193Y17092
X37390Y32338
X38413Y32338
X36429Y20241
X38429Y20241
X33713Y12958
X35713Y12958
X36980Y12958
X38980Y12958
X29185Y18903
X31185Y18903
X29185Y17406
X31185Y17406
X14815Y12879
X16815Y12879
X8193Y15792
X7193Y15792
X6193Y15792
X6193Y14493
X8193Y14493
X3728Y18351
X2705Y18351
X9256Y20162
X8256Y20162
X7256Y20162
X7256Y18312
X9256Y18312
X3728Y19926
X2705Y19926
X11618Y27914
X12618Y27914
X14618Y30914
X13618Y30914
X13618Y27914
X14618Y27914
X12618Y30914
X11618Y30914
X9516Y27800
X9516Y29847
X9004Y31088
X10028Y31088
X34398Y25182
X35421Y25182
X23630Y20359
X25559Y20359
X36996Y25182
X38020Y25182
X36524Y26658
X38571Y26658
X10327Y26462
X12327Y26462
X14008Y26462
X16008Y26462
X10382Y21934
X12823Y21934
X37390Y34330
X38413Y34330
X32665Y21481
X32665Y23647
X32669Y20241
X34669Y20241
X32669Y18903
X34669Y18903
X38429Y18903
X37429Y18903
X36429Y18903
X9677Y10851
X10677Y10851
X11677Y10851
X2217Y26855
X4217Y26855
X6154Y26462
X8154Y26462
X14000Y21930
X15000Y21930
X20000Y21930
X21000Y21930
X16000Y21930
X17000Y21930
X19000Y21930
X18000Y21930
X22000Y21930
X23000Y21930
X24000Y21930
X25000Y21930
X26000Y21930
X27000Y21930
X27000Y24930
X26000Y24930
X25000Y24930
X24000Y24930
X23000Y24930
X22000Y24930
X21000Y24930
X20000Y24930
X19000Y24930
X18000Y24930
X17000Y24930
X16000Y24930
X15000Y24930
X14000Y24930
X27000Y17135
X26000Y17135
X21000Y17135
X20000Y17135
X25000Y17135
X24000Y17135
X22000Y17135
X23000Y17135
X19000Y17135
X18000Y17135
X17000Y17135
X16000Y17135
X15000Y17135
X14000Y17135
X14000Y14135
X15000Y14135
X16000Y14135
X17000Y14135
X18000Y14135
X19000Y14135
X20000Y14135
X21000Y14135
X22000Y14135
X23000Y14135
X24000Y14135
X25000Y14135
X26000Y14135
X27000Y14135
X20303Y18391
X19280Y18391
X21091Y12643
X22114Y12643
X18020Y20320
X16996Y20320
X15815Y20320
X14791Y20320
X15441Y18706
X17370Y18706
X29185Y15910
X31185Y15910
X31268Y14414
X29102Y14414
X18886Y12643
X19909Y12643
X29673Y12840
X30697Y12840
X2217Y16777
X4217Y16777
X6193Y13214
X8193Y13214
X33713Y10477
X35713Y10477
X14815Y11816
X16815Y11816
X33713Y11718
X35713Y11718
X24185Y12879
X26185Y12879
X24185Y11816
X26185Y11816
X9083Y21934
X6642Y21934
T02
X30185Y22855
X30185Y20855
X25500Y32446
X28886Y32446
X12350Y32446
X15736Y32446
X35264Y26658
X31878Y26658
X30382Y25477
X29043Y25477
X11602Y24729
X11602Y23627
X24185Y10595
X25185Y10595
X26185Y10595
X19500Y10595
X20500Y10595
X21500Y10595
X8453Y24729
X8453Y23627
X14815Y10595
X15815Y10595
X16815Y10595
X11051Y15139
X11051Y13139
T03
X19295Y29867
X18295Y29867
X17295Y29867
X6185Y29867
X5185Y29867
X4185Y29867
X36977Y23312
X35977Y23312
X34977Y23312
X8831Y32446
X10831Y32446
X21980Y32446
X23980Y32446
X5213Y25178
X6213Y23178
X6213Y24178
X6213Y25178
X5213Y23178
X10276Y34556
X11276Y34556
X12276Y34556
X9276Y34556
X28386Y34556
X29386Y34556
X30386Y34556
X27386Y34556
X23858Y34556
X24858Y34556
X25858Y34556
X22858Y34556
X5748Y34556
X6748Y34556
X7748Y34556
X4748Y34556
X19331Y34556
X20331Y34556
X21331Y34556
X18331Y34556
X14803Y34556
X15803Y34556
X16803Y34556
X13803Y34556
X35315Y14332
X35315Y15332
X36315Y14332
X36315Y15332
X35315Y16332
X35315Y17332
X36315Y16332
X36315Y17332
X3559Y13099
X2559Y15099
X2559Y14099
X2559Y13099
X3559Y15099
X20366Y26462
X17366Y26462
X18366Y26462
X19366Y26462
X5051Y11225
X7051Y11225
X6051Y11225
X5781Y20395
X5781Y18395
X5781Y19395
T04
X17311Y32446
X20224Y32446
X4122Y32446
X7035Y32446
T05
X29161Y29414
X38217Y29414
T06
X33571Y32328
X33571Y34336
X35224Y34336
X35224Y32328
T07
X2567Y38188
X38433Y10192
X2567Y10192
X38433Y38188
X33689Y29414
M30
